<svg width="36" height="40" viewBox="0 0 36 40" xmlns="http://www.w3.org/2000/svg" xmlns:xlink="http://www.w3.org/1999/xlink"><title>Page 1</title><desc>Created using Figma</desc><use xlink:href="#a" transform="translate(1.16 9.083)" fill="#FFF"/><use xlink:href="#b" transform="translate(0 7.931)" fill="#41C1F1"/><g transform="translate(-4921 -241)"><mask id="d"><use xlink:href="#c" transform="translate(4942.02 250.492)" fill="#FFF"/></mask><g mask="url(#d)"><use xlink:href="#e" transform="translate(4942.02 250.492)" fill="#6E568D"/></g></g><use xlink:href="#f" transform="translate(4.93 13.765)" fill="#101113"/><g transform="translate(-4921 -241)"><mask id="h"><use xlink:href="#g" transform="translate(4922.99 251.238)" fill="#FFF"/></mask><g mask="url(#h)"><use xlink:href="#i" transform="translate(4922.99 251.238)" fill="#FE5767"/></g></g><g transform="translate(-4921 -241)"><mask id="k"><use xlink:href="#j" transform="translate(4928.81 253.481)" fill="#FFF"/></mask><g mask="url(#k)"><use xlink:href="#l" transform="translate(4922.38 253.481)" fill="#FEC401"/></g></g><use xlink:href="#m" transform="translate(7.75 8.472)" fill="#FE5767"/><use xlink:href="#n" transform="translate(22.03 6.588)" fill="#FE5767"/><use xlink:href="#o" transform="translate(23.33 7.683)" fill="#101113"/><use xlink:href="#p" transform="translate(24.95 7.383)" fill="#FE5767"/><use xlink:href="#q" transform="translate(26.13 8.338)" fill="#101113"/><use xlink:href="#r" transform="translate(4.92 3.298)" fill="#101113"/><use xlink:href="#s" transform="translate(13.24 .875)" fill="#101113"/><use xlink:href="#t" transform="translate(5.22 6.303)" fill="#2EBCB4"/><use xlink:href="#u" transform="translate(11.33 3.874)" fill="#2EBCB4"/><use xlink:href="#v" transform="translate(6.79 7.848)" fill="#FFF"/><use xlink:href="#w" transform="translate(12.9 5.421)" fill="#FFF"/><use xlink:href="#x" transform="translate(12.6 18.266)" fill="#FFF"/><use xlink:href="#y" transform="translate(7.74 9.364)" fill="#101113"/><use xlink:href="#z" transform="translate(14.39 6.637)" fill="#101113"/><g transform="translate(-4921 -241)"><mask id="B"><use xlink:href="#A" transform="translate(4922.27 266.658)" fill="#FFF"/></mask><g mask="url(#B)"><use xlink:href="#C" transform="translate(4911.13 266.658)" fill="#268C88"/></g></g><g transform="translate(-4921 -241)"><mask id="E"><use xlink:href="#D" transform="translate(4922.26 266.61)" fill="#FFF"/></mask><g mask="url(#E)"><use xlink:href="#F" transform="translate(4911.13 266.611)" fill="#2EBCB4"/></g></g><g transform="translate(-4921 -241)"><mask id="H"><use xlink:href="#G" transform="translate(4951.91 246.953)" fill="#FFF"/></mask><g mask="url(#H)"><use xlink:href="#I" transform="translate(4951.91 246.953)" fill="#6E568D"/></g></g><use xlink:href="#J" transform="translate(31.07 6.705)" fill="#533A74"/><g transform="translate(-4921 -241)"><mask id="L"><use xlink:href="#K" transform="translate(4954.92 247.002)" fill="#FFF"/></mask><g mask="url(#L)"><use xlink:href="#M" transform="translate(4954.92 246.916)" fill="#533A74"/></g></g><g transform="translate(-4921 -241)"><mask id="O"><use xlink:href="#N" transform="translate(4927.13 269.594)" fill="#FFF"/></mask><g mask="url(#O)"><use xlink:href="#P" transform="translate(4926.61 269.594)" fill="#6E568D"/></g></g><g transform="translate(-4921 -241)"><mask id="R"><use xlink:href="#Q" transform="translate(4929.66 277.741)" fill="#FFF"/></mask><g mask="url(#R)"><use xlink:href="#S" transform="translate(4928.61 277.742)" fill="#533A74"/></g></g><g transform="translate(-4921 -241)"><mask id="U"><use xlink:href="#T" transform="translate(4928.81 277.215)" fill="#FFF"/></mask><g mask="url(#U)"><use xlink:href="#V" transform="translate(4927.82 277.215)" fill="#533A74"/></g></g><use xlink:href="#W" transform="translate(10.18 29.814)" fill="#634E81"/><use xlink:href="#X" transform="translate(12.66 29.094)" fill="#634E81"/><use xlink:href="#Y" transform="translate(11.32 29.005)" fill="#634E81"/><use xlink:href="#Z" transform="translate(12.19 30.239)" fill="#634E81"/><use xlink:href="#aa" transform="translate(13.45 30.646)" fill="#634E81"/><use xlink:href="#aa" transform="translate(13.22 32.618)" fill="#634E81"/><use xlink:href="#ab" transform="translate(12.74 31.284)" fill="#634E81"/><use xlink:href="#ac" transform="translate(13.94 31.74)" fill="#634E81"/><use xlink:href="#ad" transform="translate(12.05 32.122)" fill="#634E81"/><use xlink:href="#ae" transform="translate(11.15 30.921)" fill="#634E81"/><use xlink:href="#Y" transform="translate(10.7 32.18)" fill="#634E81"/><use xlink:href="#af" transform="translate(9.51 31.105)" fill="#634E81"/><use xlink:href="#ag" transform="translate(9.05 34.23)" fill="#634E81"/><use xlink:href="#ah" transform="translate(7.65 35.114)" fill="#634E81"/><g transform="translate(-4921 -241)"><mask id="aj"><use xlink:href="#ai" transform="translate(4927.41 275.918)" fill="#FFF"/></mask><g mask="url(#aj)"><use xlink:href="#ak" transform="translate(4927.41 275.918)" fill="#634E81"/></g></g><use xlink:href="#al" transform="translate(7.2 34.483)" fill="#634E81"/><use xlink:href="#am" transform="translate(6.97 32.983)" fill="#634E81"/><use xlink:href="#an" transform="translate(8.28 32.833)" fill="#634E81"/><use xlink:href="#ah" transform="translate(8.47 31.603)" fill="#634E81"/><use xlink:href="#ao" transform="translate(10.26 33.459)" fill="#634E81"/><use xlink:href="#ap" transform="translate(9.38 32.864)" fill="#634E81"/><use xlink:href="#aq" transform="translate(8.47 34.172)" fill="#634E81"/><use xlink:href="#ar" transform="translate(25.16 23.871)" fill="#634E81"/><use xlink:href="#as" transform="translate(25.58 22.138)" fill="#634E81"/><use xlink:href="#at" transform="translate(26.64 21.758)" fill="#634E81"/><use xlink:href="#au" transform="translate(25.84 21.002)" fill="#634E81"/><use xlink:href="#av" transform="translate(24.71 21.344)" fill="#634E81"/><use xlink:href="#aw" transform="translate(24.88 22.647)" fill="#634E81"/><use xlink:href="#av" transform="translate(25.14 20.491)" fill="#634E81"/><use xlink:href="#ax" transform="translate(30.91 10.713)" fill="#634E81"/><use xlink:href="#ay" transform="translate(30.33 13.551)" fill="#634E81"/><use xlink:href="#az" transform="translate(26.99 20.599)" fill="#634E81"/><use xlink:href="#aA" transform="translate(25.89 19.596)" fill="#634E81"/><use xlink:href="#aB" transform="translate(27.82 19.642)" fill="#634E81"/><use xlink:href="#aC" transform="translate(28.18 12.527)" fill="#634E81"/><use xlink:href="#aD" transform="translate(29.54 11.451)" fill="#634E81"/><use xlink:href="#aE" transform="translate(29.58 14.752)" fill="#634E81"/><use xlink:href="#aE" transform="translate(31.44 13.115)" fill="#634E81"/><use xlink:href="#aF" transform="translate(29.31 15.64)" fill="#634E81"/><use xlink:href="#aG" transform="translate(29.18 13.551)" fill="#634E81"/><use xlink:href="#aH" transform="translate(29.82 15.889)" fill="#634E81"/><use xlink:href="#aI" transform="translate(25.08 25.258)" fill="#634E81"/><use xlink:href="#aD" transform="translate(28.45 18.675)" fill="#634E81"/><use xlink:href="#aJ" transform="translate(30.32 12.131)" fill="#634E81"/><use xlink:href="#aK" transform="translate(26.85 19.26)" fill="#634E81"/><use xlink:href="#aL" transform="translate(31.69 12.131)" fill="#634E81"/><use xlink:href="#aM" transform="translate(13.68 19.753)" fill="#FFF"/><defs><path id="a" fill-rule="evenodd" d="M14.996 29.643C6.714 29.643 0 23.007 0 14.82 0 6.636 6.714 0 14.996 0s14.996 6.636 14.996 14.821c0 8.186-6.714 14.822-14.996 14.822z"/><path id="b" fill-rule="evenodd" d="M16.16 30.795c-8.283 0-14.996-6.636-14.996-14.822 0-8.185 6.713-14.821 14.996-14.821 8.282 0 14.995 6.636 14.995 14.821 0 8.186-6.713 14.822-14.995 14.822zM16.16 0C7.25 0 0 7.165 0 15.972c0 8.807 7.25 15.972 16.16 15.972s16.16-7.165 16.16-15.972C32.32 7.165 25.07 0 16.16 0z"/><path id="c" fill-rule="evenodd" d="M9.54 18.569c.39-1.32.599-2.715.599-4.16 0-1.67 1.212-3.87 2.646-6.29V0H0v18.569h9.54z"/><path id="e" fill-rule="evenodd" d="M3.581 18.569L0 8.899 10.168 0l2.617 1.135-9.204 17.434z"/><path id="f" fill-rule="evenodd" d="M6.458 14.004l-3.053-1.47 1.55-2.556-3.143-1.692 2.23-3.236L0 3.302 3.17 0l3.288 14.004z"/><path id="g" fill-rule="evenodd" d="M2.706 0c.545 1.772.705 3.283-.018 4.132A14.753 14.753 0 0 0 0 8.804v9.722c2.036 5.798 7.612 9.96 14.17 9.96 3.152 0 6.075-.96 8.489-2.6V0H2.706z"/><path id="i" fill-rule="evenodd" d="M22.399 9.917c.224 1.853.265 14.554.26 18.824-.005 3.97-1.452 8.216-7.722 9.238-5.095.831-8.525 1.437-11.068 2.27-2.076.68-3.076 1.217-3.473 1.454-.398.238-.563-.157-.177-.872.405-.752 5.173-6.346 8.595-7.74 3.423-1.391 2.773-2.79 2.408-5.193-1.003-6.615-5.414-24.416-5.406-24.381 0 0 14.446-11.211 16.583 6.4z"/><path id="j" fill-rule="evenodd" d="M13.838 0c1.295 1.526 2.294 3.958 2.745 7.674.186 1.534.246 10.505.258 15.97a15.054 15.054 0 0 1-8.486 2.6c-.991 0-1.96-.095-2.899-.277a26.769 26.769 0 0 1-.049-.31C4.404 19.05.005 1.29 0 1.273 0 1.274.751.69 1.936 0h11.902z"/><path id="l" fill-rule="evenodd" d="M13.946 9.028s2.575 13.542 2.743 16.766c.151 2.91-.947 6.728-4.385 7.494-3.439.766-6.244 2.362-7.712 3.2C2.056 37.936 0 40.678 0 40.678l19.84-4.248 6.71-5.063-3.01-21.871S24.125-.76 17.34.045c-4.915.584-3.717 5.8-3.394 8.983z"/><path id="m" fill-rule="evenodd" d="M15.473 11.825s1.456-.498 2.951-.972c1.727-.547 3.093-1.23 3.172-1.338 0 0-.46-3.007-2.201-6.965-1.738-3.953-5.672-2.695-11.646-.366C5.464 3.074 0 5.166 0 5.166s1.883 2.518 4.345 4.999c3.904 3.931 11.128 1.661 11.128 1.66z"/><path id="n" fill-rule="evenodd" d="M1.712.005c.991-.082 1.834.912 1.882 2.22.049 1.307-.717 2.433-1.71 2.514C.894 4.821.05 3.827.003 2.52-.046 1.212.72.086 1.712.005z"/><path id="o" fill-rule="evenodd" d="M.765.003c.373.047.637.558.59 1.144-.047.585-.387 1.023-.76.977-.372-.046-.637-.558-.59-1.143C.052.395.393-.043.765.003z"/><path id="p" fill-rule="evenodd" d="M2.514.043c.848.233 1.182 1.348.746 2.49C2.825 3.672 1.785 4.41.938 4.176.09 3.943-.244 2.829.19 1.687.627.548 1.666-.19 2.514.044z"/><path id="q" fill-rule="evenodd" d="M1.074.03c.316.125.4.599.19 1.058-.213.458-.64.73-.958.605-.316-.125-.401-.6-.19-1.058.212-.46.641-.73.958-.605z"/><path id="r" fill-rule="evenodd" d="M1.536.229c.656-.314 1.236-.319 1.509.07.272.39-.036.997-.395 1.271-.359.274-1.012 1.545-1.186 1.857-.173.313-.711.484-1.039.344-.326-.14-.452-.624-.42-1C.083 1.844.559.696 1.536.229z"/><path id="s" fill-rule="evenodd" d="M1.067.094C.367.307-.062.696.007 1.17c.07.473.719.713 1.173.673.454-.04 1.816.457 2.161.57.345.114.859-.124 1.002-.448.143-.325-.1-.77-.386-1.026-.7-.633-1.848-1.16-2.89-.844z"/><path id="t" fill-rule="evenodd" d="M2.994.225C5.29-.534 7.77.687 8.536 2.952c.766 2.264-.473 4.715-2.767 5.473S.994 7.963.227 5.699C-.54 3.434.699.984 2.994.225z"/><path id="u" fill-rule="evenodd" d="M2.993.225C5.288-.534 7.77.688 8.536 2.953s-.473 4.715-2.767 5.474C3.475 9.186.993 7.964.227 5.699S.699.984 2.993.225z"/><path id="v" fill-rule="evenodd" d="M1.924.145c1.474-.488 3.07.297 3.563 1.753.492 1.456-.304 3.031-1.78 3.52C2.234 5.904.638 5.12.147 3.663-.347 2.208.449.633 1.924.144z"/><path id="w" fill-rule="evenodd" d="M1.924.145C3.4-.343 4.994.442 5.487 1.898c.492 1.456-.304 3.031-1.779 3.52C2.234 5.904.638 5.12.146 3.663-.347 2.208.45.633 1.924.144z"/><path id="x" fill-rule="evenodd" d="M11.763 1.645c-1.42.38-3.825.766-6.123.64C3.83 2.187 1.477 1.735.537.142A.29.29 0 0 0 .143.039.282.282 0 0 0 .04.428c1.894 3.214 8.598 2.62 11.775 1.795a13.17 13.17 0 0 0-.05-.578z"/><path id="y" fill-rule="evenodd" d="M.443 2.086a.416.416 0 0 1-.401-.3C-.06 1.428.027 1.036.28.708a1.87 1.87 0 0 1 .98-.634A1.892 1.892 0 0 1 2.43.11c.389.148.67.438.772.794a.418.418 0 0 1-.804.224C2.36.986 2.214.911 2.13.88a1.058 1.058 0 0 0-.642-.01 1.042 1.042 0 0 0-.543.341c-.055.07-.14.209-.1.35a.413.413 0 0 1-.401.525z"/><path id="z" fill-rule="evenodd" d="M.444 2.088a.416.416 0 0 1-.401-.3C-.16 1.075.375.323 1.262.076c.886-.247 1.74.117 1.943.83a.412.412 0 0 1-.29.508.417.417 0 0 1-.513-.285C2.337.905 1.946.744 1.488.872c-.458.127-.706.466-.642.691a.413.413 0 0 1-.402.525z"/><path id="A" fill-rule="evenodd" d="M0 0c.878 7.359 7.211 13.067 14.892 13.067 3.13 0 6.035-.947 8.44-2.568V0H0z"/><path id="C" fill-rule="evenodd" d="M0 8.406c5.616.468 4.961 3.588 7.032 5.25 1.745 1.399 3.844-.325 7.259 4.549 1.506-2.254 5.117-5.33 8.557-7.104 0 0-.997-5.386-1.538-7.884 3.737-1.162 9.17-.411 11.432 1.689.782-2.287 1.723-2.4 1.723-2.4L34.449 0c-1.252.806-1.745 2.331-1.897 3.331-.622-.787-1.617-1.438-2.447-1.799-2.224-.967-4.834-1.247-7.152-.526-2.317.722-4.263 2.62-6.34 3.865l-5.947 3.565c-.148.088-.3.179-.472.203-.188.027-.376-.03-.557-.082A18.12 18.12 0 0 0 .647 8.3"/><path id="D" fill-rule="evenodd" d="M0 0c.744 6.413 5.63 11.581 11.947 12.827h5.902a15.016 15.016 0 0 0 3.575-1.186V0H0z"/><path id="F" fill-rule="evenodd" d="M32.552 3.378c-.176-.218-.31-.477-.504-.67C23.58-5.798 0 8.453 0 8.453c6.45-1.55 10.471 4.374 10.471 4.374C24.56-6.596 32.552 3.378 32.552 3.378z"/><path id="G" fill-rule="evenodd" d="M0 2.822c.003-.483.1-.97.274-1.384C.649.538 1.548 0 2.512 0c.33 0 .668.063.994.196.976.398 1.575 1.306 1.582 2.25v.037a2.24 2.24 0 0 1-.173.847C4.41 4.538 2.465 5.52 1.184 5 .354 4.66.004 3.772 0 2.86v-.038z"/><path id="I" fill-rule="evenodd" d="M4.915 3.33C5.419 2.122 4.788.719 3.506.197 2.225-.326.777.23.273 1.437c-.504 1.21-.371 3.04.91 3.563 1.282.522 3.227-.462 3.732-1.67z"/><path id="J" fill-rule="evenodd" d="M.974 2.335a.15.15 0 0 1-.105-.042.147.147 0 0 1-.005-.211A5.977 5.977 0 0 1 2.421.922C2.147.637 1.32.02.205.438a.15.15 0 1 1-.107-.28c1.397-.524 2.526.394 2.694.757a.15.15 0 0 1-.077.2c-.142.061-.887.407-1.632 1.174a.149.149 0 0 1-.11.046z"/><path id="K" fill-rule="evenodd" d="M2.055 2.764C2.222 1.697 1.602.598.5.15A2.658 2.658 0 0 0 0 0v2.764h2.055z"/><path id="M" fill-rule="evenodd" d="M2.152 2.849c-.359 0-1.299-.212-1.665-.436a.148.148 0 0 1-.038-.223c.219-.264.465-.47.72-.652-.326.003-.723-.042-1.084-.217A.15.15 0 0 1 0 1.187C0 .845.34.268.62.035a.154.154 0 0 1 .213.018.148.148 0 0 1-.018.211c-.206.173-.445.58-.5.83.454.183 1.021.167 1.417.085a.153.153 0 0 1 .171.09.148.148 0 0 1-.058.183c-.357.227-.725.46-1.036.787.388.164 1.076.31 1.343.31a.15.15 0 0 1 .152.15.15.15 0 0 1-.152.15z"/><path id="N" fill-rule="evenodd" d="M5.405.235c-.67.298-1.359.757-2.125 1.34C1.355 3.04.42 4.788 0 6.33a15.022 15.022 0 0 0 4.497 2.76 2.35 2.35 0 0 0-1.698-1.25c.29-.713.972-1.726 2.998-1.931.208-.02.41-.024.6-.043C10.377 5.465 9.245 0 6.44 0c-.325 0-.67.073-1.034.235z"/><path id="P" fill-rule="evenodd" d="M5.925.235c-.669.298-1.358.758-2.123 1.34C1.024 3.687.307 6.392.224 8.215A13.813 13.813 0 0 1 0 10.046c0 1.355 1.56 2.214 2.868 2.214 1.309 0 2.37-1 2.37-2.231 0-1.088-.826-1.993-1.919-2.192.29-.711.973-1.725 3-1.93.208-.02.409-.025.6-.044 4.44-.444 2.517-7.194-.994-5.63z"/><path id="Q" fill-rule="evenodd" d="M0 0c.615.351 1.257.661 1.922.925V.854A2.293 2.293 0 0 0 1.093 0H0z"/><path id="S" fill-rule="evenodd" d="M.323 3.161a.151.151 0 0 1-.142-.099c-.196-.536-.198-1.078-.165-1.437a.152.152 0 0 1 .054-.102.156.156 0 0 1 .112-.034c.523.049.951.13 1.342.344-.069-.333-.069-.587-.069-.989a.152.152 0 0 1 .176-.148c.389.06.709.183 1 .39L2.615.927C2.588.63 2.565.373 2.506.196a.15.15 0 0 1 .096-.188.152.152 0 0 1 .192.095c.07.209.095.481.123.797.016.17.032.344.056.525a.15.15 0 0 1-.083.153.153.153 0 0 1-.174-.027 1.888 1.888 0 0 0-.957-.527c.002.423.018.654.157 1.113a.15.15 0 0 1-.062.167.153.153 0 0 1-.18-.009c-.389-.315-.818-.43-1.366-.491-.016.32.007.74.158 1.156a.15.15 0 0 1-.143.201z"/><path id="T" fill-rule="evenodd" d="M0 0c.62.411 1.272.778 1.952 1.096V.53a2.438 2.438 0 0 0-.828-.313A3.3 3.3 0 0 1 1.222 0H0z"/><path id="V" fill-rule="evenodd" d="M.152 1.625a.144.144 0 0 1-.056-.01.15.15 0 0 1-.086-.194C.237.846.702.4 1.32.165c.547-.209 1.15-.22 1.536-.03a.15.15 0 0 1 .068.202.154.154 0 0 1-.204.067c-.308-.152-.826-.136-1.29.04C.891.65.487 1.035.293 1.53a.153.153 0 0 1-.142.096z"/><path id="W" fill-rule="evenodd" d="M.692.088c.188.143.223.41.079.597a.433.433 0 0 1-.603.077.423.423 0 0 1-.079-.596.434.434 0 0 1 .603-.078z"/><path id="X" fill-rule="evenodd" d="M.713.05c.205.116.255.41.112.653C.682.948.399 1.05.193.931-.01.813-.062.52.082.276.226.032.508-.069.713.049z"/><path id="Y" fill-rule="evenodd" d="M.554.07c.15.117.178.33.063.479A.347.347 0 0 1 .134.61.338.338 0 0 1 .072.133.346.346 0 0 1 .554.071z"/><path id="Z" fill-rule="evenodd" d="M.277.035a.17.17 0 0 1 .031.24.173.173 0 0 1-.24.03.168.168 0 0 1-.032-.239.173.173 0 0 1 .24-.03z"/><path id="aa" fill-rule="evenodd" d="M.415.053A.253.253 0 0 1 .462.41a.259.259 0 0 1-.361.047.254.254 0 0 1-.048-.359.26.26 0 0 1 .362-.046z"/><path id="ab" fill-rule="evenodd" d="M.415.053A.253.253 0 0 1 .462.41a.259.259 0 0 1-.361.047.254.254 0 0 1-.048-.359.26.26 0 0 1 .362-.046z"/><path id="ac" fill-rule="evenodd" d="M.623.08a.38.38 0 0 1 .07.536.39.39 0 0 1-.542.07A.38.38 0 0 1 .08.15.39.39 0 0 1 .623.08z"/><path id="ad" fill-rule="evenodd" d="M.7.085c.167.127.174.54.063.692A.506.506 0 0 1 .07.894C-.097.767.071.273.187.124.303-.025.532-.042.7.084z"/><path id="ae" fill-rule="evenodd" d="M.67.044C.783.13.74.312.571.451.403.591.175.633.062.547-.05.461-.006.28.162.14.33.002.557-.042.67.044z"/><path id="af" fill-rule="evenodd" d="M.71.146C.828.295.757.643.636.743.433.913.15.817.032.668-.085.52.149.148.273.051.4-.045.594-.002.711.146z"/><path id="ag" fill-rule="evenodd" d="M.69.088c.189.142.224.41.08.596a.433.433 0 0 1-.603.078A.421.421 0 0 1 .09.167a.431.431 0 0 1 .602-.08z"/><path id="ah" fill-rule="evenodd" d="M.553.07c.15.114.177.327.061.477A.345.345 0 0 1 .133.61.338.338 0 0 1 .07.133.345.345 0 0 1 .553.07z"/><path id="ai" fill-rule="evenodd" d="M0 .247c.21.177.423.348.642.514H.77V0H0v.247z"/><path id="ak" fill-rule="evenodd" d="M.484.061c.13.1.155.287.053.417a.3.3 0 0 1-.42.055.295.295 0 0 1-.055-.417.303.303 0 0 1 .422-.055z"/><path id="al" fill-rule="evenodd" d="M.276.035a.169.169 0 0 1 .031.238.172.172 0 0 1-.24.031.168.168 0 0 1-.03-.238.173.173 0 0 1 .24-.031z"/><path id="am" fill-rule="evenodd" d="M.11.88C-.04.768-.025.37.086.219.27-.038.589-.043.739.072.89.186.707.669.591.818a.345.345 0 0 1-.48.063z"/><path id="an" fill-rule="evenodd" d="M.062.547C-.05.461-.006.28.162.14.33.002.557-.042.67.044.782.13.737.312.57.45.401.59.173.633.061.547z"/><path id="ao" fill-rule="evenodd" d="M.94.193C1.023.362.829.71.66.796.378.942.092.803.01.634c-.081-.17.301-.52.472-.6A.345.345 0 0 1 .94.193z"/><path id="ap" fill-rule="evenodd" d="M.059.686C-.057.538.015.191.136.09.338-.08.62.016.737.164.853.312.62.684.495.78.37.877.175.835.059.686z"/><path id="aq" fill-rule="evenodd" d="M.276.035a.167.167 0 0 1 .03.237.171.171 0 0 1-.24.032.168.168 0 0 1-.03-.237.172.172 0 0 1 .24-.032z"/><path id="ar" fill-rule="evenodd" d="M.31.834A.425.425 0 1 1 .55.017a.425.425 0 1 1-.24.817z"/><path id="as" fill-rule="evenodd" d="M.354 1.013C.119.978-.036.723.007.444.05.166.275-.032.51.004c.235.036.39.29.347.57-.044.278-.268.475-.503.44z"/><path id="at" fill-rule="evenodd" d="M.249.667a.34.34 0 1 1 .19-.653.34.34 0 1 1-.19.653z"/><path id="au" fill-rule="evenodd" d="M.125.334A.17.17 0 0 1 .007.123.173.173 0 0 1 .219.007a.17.17 0 1 1-.094.327z"/><path id="av" fill-rule="evenodd" d="M.186.5A.255.255 0 1 1 .33.01c.137.04.216.18.177.316A.259.259 0 0 1 .186.5z"/><path id="aw" fill-rule="evenodd" d="M.186.5A.255.255 0 1 1 .33.01c.137.04.216.18.176.316A.258.258 0 0 1 .186.5z"/><path id="ax" fill-rule="evenodd" d="M.28.751A.382.382 0 1 1 .494.015.384.384 0 0 1 .76.49a.387.387 0 0 1-.48.261z"/><path id="ay" fill-rule="evenodd" d="M.324.996C.122.938-.038.556.008.374a.503.503 0 0 1 .601-.36c.203.059.23.58.177.76-.052.18-.26.28-.462.222z"/><path id="az" fill-rule="evenodd" d="M.123.696C-.014.657-.041.47.064.28.17.091.365-.032.502.007c.137.04.163.225.058.416-.105.19-.3.312-.437.273z"/><path id="aA" fill-rule="evenodd" d="M.249.667a.34.34 0 1 1 .19-.653.34.34 0 1 1-.19.653z"/><path id="aB" fill-rule="evenodd" d="M.182.787C.02.691-.043.342.032.204.156-.026.456-.04.62.056c.164.096.085.527.004.661-.08.135-.279.166-.442.07z"/><path id="aC" fill-rule="evenodd" d="M.31.834A.424.424 0 0 1 .017.308a.43.43 0 0 1 .53-.291c.228.064.359.3.293.525a.43.43 0 0 1-.53.292z"/><path id="aD" fill-rule="evenodd" d="M.248.667a.34.34 0 0 1-.235-.42.344.344 0 0 1 .425-.234.34.34 0 0 1 .234.421.344.344 0 0 1-.424.233z"/><path id="aE" fill-rule="evenodd" d="M.217.584A.297.297 0 0 1 .012.215.3.3 0 0 1 .383.011c.16.046.251.211.205.369a.3.3 0 0 1-.371.204z"/><path id="aF" fill-rule="evenodd" d="M.124.334A.17.17 0 1 1 .218.007a.17.17 0 1 1-.094.327z"/><path id="aG" fill-rule="evenodd" d="M.24 0c.142-.006.265.16.275.37.01.212-.099.388-.24.395C.133.771.01.605 0 .394-.01.183.099.006.24 0z"/><path id="aH" fill-rule="evenodd" d="M.452.013c.182.052.316.426.27.608-.078.306-.373.425-.555.373C-.015.943-.025.427.027.246A.344.344 0 0 1 .453.013z"/><path id="aI" fill-rule="evenodd" d="M.5.007c.137.039.163.225.058.415-.104.19-.3.313-.436.274C-.015.657-.04.47.064.28.169.091.364-.032.5.007z"/><path id="aJ" fill-rule="evenodd" d="M.083.843C-.056.715-.004.32.12.18.328-.058.646-.032.784.096.923.224.696.688.567.826a.345.345 0 0 1-.484.017z"/><path id="aK" fill-rule="evenodd" d="M.533.055C.695.151.757.5.682.638.556.868.258.883.095.787-.068.692.011.26.092.127.172-.01.37-.042.532.054z"/><path id="aL" fill-rule="evenodd" d="M.123.334a.17.17 0 0 1-.116-.21.171.171 0 0 1 .21-.117.17.17 0 1 1-.094.327z"/><path id="aM" fill-rule="evenodd" d="M0 0l.777 2.339 2.266-1.135 1.468 1.75L6.583 1.36l1.914 1.316L9.947.854 9.994.68 7.293.916 5.07.993 2.669.901 0 0z"/></defs></svg>