<svg width="30" height="17" viewBox="0 0 30 22" version="1.1" xmlns="http://www.w3.org/2000/svg" xmlns:xlink="http://www.w3.org/1999/xlink">
<title>round_world</title>
<desc>Created using Figma</desc>
<g id="Canvas" transform="translate(-4622 -238)">
<g id="round_world">
<g id="Page 1">
<g id="&#208;&#167;&#209;&#130;&#208;&#190; &#209;&#130;&#208;&#176;&#208;&#186;&#208;&#190;&#208;&#181; &#208;&#163;&#209;&#135;&#208;&#184;.&#209;&#128;&#209;&#131; | 768  1024">
<g id="What is olymp">
<g id="Table">
<g id="Page 1">
<g id="Group 3">
<mask id="mask0_alpha" mask-type="alpha">
<g id="mask 2">
<g id="Vector">
<use xlink:href="#path0_fill" transform="translate(4622 238.875)" fill="#FFFFFF"/>
</g>
</g>
</mask>
<g id="Fill 1" mask="url(#mask0_alpha)">
<use xlink:href="#path1_fill" transform="translate(4622 238.875)" fill="#C6E0F2"/>
</g>
</g>
<g id="Fill 4">
<use xlink:href="#path2_fill" transform="translate(4636.02 239.572)" fill="#33471E"/>
</g>
<g id="Fill 6">
<use xlink:href="#path3_fill" transform="translate(4628.5 250.793)" fill="#ECC64A"/>
</g>
<g id="Fill 8">
<use xlink:href="#path4_fill" transform="translate(4631.06 249.885)" fill="#33471E"/>
</g>
<g id="Fill 10">
<use xlink:href="#path5_fill" transform="translate(4627.56 245.897)" fill="#43632E"/>
</g>
<g id="Fill 12">
<use xlink:href="#path6_fill" transform="translate(4627.74 246.721)" fill="#384E23"/>
</g>
<g id="Fill 14">
<use xlink:href="#path7_fill" transform="translate(4631.16 246.746)" fill="#687E36"/>
</g>
<g id="Fill 16">
<use xlink:href="#path8_fill" transform="translate(4644.83 248.789)" fill="#ECC64A"/>
</g>
<g id="Fill 18">
<use xlink:href="#path9_fill" transform="translate(4644.84 249.794)" fill="#CDAA34"/>
</g>
<g id="Fill 20">
<use xlink:href="#path10_fill" transform="translate(4638.07 246.68)" fill="#8BA73D"/>
</g>
<g id="Fill 22">
<use xlink:href="#path11_fill" transform="translate(4641.65 250.196)" fill="#A2C03D"/>
</g>
<g id="Fill 24">
<use xlink:href="#path12_fill" transform="translate(4642.09 248.377)" fill="#FFFFFF"/>
</g>
<g id="Fill 26">
<use xlink:href="#path13_fill" transform="translate(4641.65 247.9)" fill="#FFFFFF"/>
</g>
<g id="Fill 28">
<use xlink:href="#path14_fill" transform="translate(4642.39 248.363)" fill="#2F2E2C"/>
</g>
<g id="Fill 30">
<use xlink:href="#path15_fill" transform="translate(4642.19 248.377)" fill="#FFFFFF"/>
</g>
<g id="Fill 32">
<use xlink:href="#path16_fill" transform="translate(4631.89 241.013)" fill="#43632E"/>
</g>
</g>
</g>
</g>
</g>
</g>
</g>
</g>
<defs>
<path id="path0_fill" d="M 30 16.0084L 30 3.37902e-09L -1.62893e-14 3.37902e-09L -1.62893e-14 16.0084L 30 16.0084Z"/>
<path id="path1_fill" fill-rule="evenodd" d="M 26.631 9.68413C 26.5941 9.68413 26.5581 9.68808 26.5215 9.68921C 26.0328 7.38402 23.9457 5.62435 21.3903 5.46058C 20.2576 2.28741 17.0669 3.37902e-09 13.3049 3.37902e-09C 9.20059 3.37902e-09 5.77438 2.72196 4.96105 6.34747C 2.2051 6.44206 -1.62893e-14 8.56344 -1.62893e-14 11.1736C -1.62893e-14 13.8439 2.3062 16.0084 5.15115 16.0084L 26.631 16.0084C 28.4917 16.0084 30.0001 14.5927 30.0001 12.8463C 30.0001 11.0999 28.4917 9.68413 26.631 9.68413Z"/>
<path id="path2_fill" fill-rule="evenodd" d="M 5.92561 0.798516C 5.90984 0.480013 5.89633 0.213747 5.88534 -2.10069e-08C 4.94529 0.767739 4.11225 1.54113 3.38623 2.32016C 1.96826 3.83446 1.01582 5.14066 0.52833 6.23876C -0.0121023 7.45602 -0.137987 8.48438 0.150957 9.32412C 0.399347 10.0323 0.923165 10.5645 1.72241 10.9212C 2.34141 11.1976 2.93901 11.1527 3.51437 10.7867C 4.05086 10.4507 4.48878 9.9007 4.82813 9.13607C 5.12553 8.46631 5.39504 7.49273 5.63695 6.21561C 5.87351 4.99101 5.9932 3.9762 5.99602 3.17148C 6.00447 2.52656 5.98109 1.73567 5.92561 0.798516Z"/>
<path id="path3_fill" fill-rule="evenodd" d="M 2.66949 0.336574C 2.6295 0.289702 2.60106 0.23436 2.58444 0.170828C 2.56755 0.114074 2.56107 0.0570366 2.56445 -2.75977e-07L 0.796427 0.472107L 0.0402721 0.135816L 0.465803 0.587593L 8.52112e-08 0.93405L 0.52607 0.964262L 0.405817 1.48155L 0.886546 0.813482L 2.66949 0.336574ZM 2.03838 2.11912L 3.82133 1.64221C 3.78134 1.59534 3.75289 1.54 3.73628 1.47646C 3.71966 1.41943 3.7129 1.36267 3.71628 1.30564L 1.94826 1.77774L 1.19211 1.44117L 1.61764 1.89323L 1.15211 2.23969L 1.6779 2.2699L 1.55765 2.7869L 2.03838 2.11912Z"/>
<path id="path4_fill" fill-rule="evenodd" d="M 0.0208416 1.07946C 0.0374573 1.143 0.0659008 1.19834 0.105891 1.24521C 0.246139 1.3991 0.519876 1.45783 0.927383 1.42084C 1.09776 1.40757 1.29293 1.37905 1.51344 1.33557L 1.15268 -2.97679e-07C 0.41821 0.271066 0.0340773 0.57404 0.000845882 0.908637C -0.00253359 0.965674 0.00422592 1.02243 0.0208416 1.07946ZM 2.07922 2.72648C 2.2496 2.7132 2.44476 2.68469 2.66527 2.6412L 2.30451 1.30535C 1.57004 1.5767 1.18619 1.87968 1.15268 2.21427C 1.1493 2.27131 1.15606 2.32807 1.17267 2.3851C 1.18957 2.44863 1.21773 2.50398 1.25801 2.55085C 1.39825 2.70473 1.67199 2.76318 2.07922 2.72648Z"/>
<path id="path5_fill" fill-rule="evenodd" d="M 3.79626 2.99782C 3.74276 2.81373 3.70107 2.63471 3.67094 2.46049L 1.05186 2.46049L 0.631115 3.57017L 3.79626 2.99782ZM 3.61603 2.05389C 3.60589 1.92655 3.60082 1.80259 3.60082 1.68231C 3.60082 1.6487 3.60251 1.6168 3.60589 1.58687L -1.00149e-08 -8.91055e-08L 0.355688 0.823647L 3.61603 2.05389Z"/>
<path id="path6_fill" fill-rule="evenodd" d="M 3.80133 2.71659C 3.73121 2.53249 3.67122 2.35178 3.62109 2.17418L 0.455664 2.74681L -2.22299e-07 3.95192L 3.80133 2.71659ZM 3.49577 1.63685C 3.4724 1.49962 3.45409 1.36409 3.44086 1.23025L 0.180238 -6.70031e-08L 0.876407 1.63685L 3.49577 1.63685Z"/>
<path id="path7_fill" fill-rule="evenodd" d="M 0.195446 2.14905C 0.245574 2.32637 0.30556 2.50736 0.375683 2.69146C 0.4827 2.98258 0.616189 3.28047 0.776432 3.58513C 1.3439 4.67646 2.05359 5.49164 2.90493 6.03066C 3.85653 6.63322 4.99682 6.9345 6.32551 6.9345C 7.10363 6.9345 7.75136 6.79049 8.2687 6.50249C 8.76633 6.22154 9.24706 5.75621 9.71117 5.10678L 7.59281 -1.65864e-07C 4.57438 0.107015 2.04514 0.352951 0.00506914 0.738091C 0.00168973 0.768021 7.76864e-08 0.799928 7.76864e-08 0.833529C 7.76864e-08 0.953815 0.00506945 1.07777 0.0152079 1.20512C 0.0284441 1.33896 0.0467489 1.47449 0.0701235 1.61172C 0.100257 1.78593 0.141937 1.96495 0.195446 2.14905Z"/>
<path id="path8_fill" fill-rule="evenodd" d="M 0.13518 0.928967L 0.13518 1.00436L 3.86639 1.00436C 3.85287 0.733008 2.56417 0.398411 6.23763e-07 2.23112e-07C 0.0901196 0.291114 0.13518 0.600864 0.13518 0.928967Z"/>
<path id="path9_fill" fill-rule="evenodd" d="M 0.120254 -4.59961e-08C 0.116874 0.174217 0.100257 0.341375 0.070123 0.502038C 0.0535073 0.605947 0.0301343 0.706467 7.4611e-07 0.803317L 3.85146 -4.59961e-08L 0.120254 -4.59961e-08Z"/>
<path id="path10_fill" fill-rule="evenodd" d="M 3.76134 3.69582C 3.88497 3.57525 4.03339 3.51511 4.20715 3.51511C 4.38063 3.51511 4.52764 3.57525 4.64789 3.69582C 4.77124 3.81978 4.83319 3.96858 4.83319 4.1428C 4.83319 4.31673 4.77124 4.46412 4.64789 4.58469C 4.52764 4.70837 4.38063 4.77048 4.20715 4.77048C 4.03339 4.77048 3.88497 4.70837 3.76134 4.58469C 3.64109 4.46412 3.5811 4.31673 3.5811 4.1428C 3.5811 3.96858 3.64109 3.81978 3.76134 3.69582ZM 4.96837 1.69727C 5.23197 1.69727 5.45755 1.79101 5.64455 1.9785C 5.83155 2.16599 5.92504 2.39188 5.92504 2.65645C 5.92504 2.92074 5.83155 3.14691 5.64455 3.3344C 5.45755 3.5216 5.23197 3.61535 4.96837 3.61535C 4.70449 3.61535 4.4792 3.5216 4.2922 3.3344C 4.1052 3.14691 4.0117 2.92074 4.0117 2.65645C 4.0117 2.39188 4.1052 2.16599 4.2922 1.9785C 4.4792 1.79101 4.70449 1.69727 4.96837 1.69727ZM 6.75639 2.10895C 6.72964 2.02199 6.6995 1.93841 6.66627 1.85793C 6.51589 1.50301 6.29566 1.17999 6.00502 0.888872C 5.41418 0.296196 4.69942 -3.29538e-08 3.8616 -3.29538e-08L 0.686312 0.0502601C 0.592814 0.241136 0.501005 0.448671 0.410886 0.672866C 0.13715 1.37933 8.71783e-08 2.04034 8.71783e-08 2.65645C 8.71783e-08 3.19209 0.13715 3.74439 0.410886 4.31334C 0.56775 4.63806 0.734752 4.90941 0.91161 5.12682C 0.888235 5.33125 0.876689 5.49192 0.876689 5.6091C 0.876689 5.93692 0.960049 6.29185 1.12705 6.6736C 4.43921 6.0877 6.30045 5.23073 6.71133 4.10242C 6.73133 4.04228 6.75132 3.98044 6.77132 3.91663C 6.80145 3.81978 6.82483 3.71926 6.84144 3.61535C 6.87157 3.45468 6.88819 3.28753 6.89157 3.11331L 6.89157 3.03792C 6.89157 2.70982 6.84651 2.40035 6.75639 2.10895Z"/>
<path id="path11_fill" fill-rule="evenodd" d="M 0.626045 4.55979e-07C 0.452284 4.55979e-07 0.30387 0.0601431 0.180238 0.180711C 0.059985 0.304668 4.41009e-07 0.453471 4.41009e-07 0.627688C 4.41009e-07 0.801622 0.059985 0.949014 0.180238 1.06958C 0.30387 1.19354 0.452284 1.25538 0.626045 1.25538C 0.799806 1.25538 0.946531 1.19354 1.06678 1.06958C 1.19042 0.949014 1.25209 0.801622 1.25209 0.627688C 1.25209 0.453471 1.19042 0.304668 1.06678 0.180711C 0.946531 0.0601431 0.799806 4.55979e-07 0.626045 4.55979e-07Z"/>
<path id="path12_fill" fill-rule="evenodd" d="M 0.620976 0.627688C 0.714474 0.533944 0.826278 0.487072 0.956668 0.487072C 1.08678 0.487072 1.19689 0.533944 1.28701 0.627688C 1.38051 0.718044 1.42726 0.828446 1.42726 0.959179C 1.42726 1.08963 1.38051 1.20173 1.28701 1.29547C 1.19689 1.38583 1.08678 1.431 0.956668 1.431C 0.826278 1.431 0.714474 1.38583 0.620976 1.29547C 0.530857 1.20173 0.485798 1.08963 0.485798 0.959179C 0.485798 0.828446 0.530857 0.718044 0.620976 0.627688ZM 1.63256 0.281231C 1.44556 0.0937438 1.22027 -2.8175e-07 0.956668 -2.8175e-07C 0.692789 -2.8175e-07 0.467492 0.0937438 0.280496 0.281231C 0.0934986 0.468719 4.69861e-07 0.694607 4.69861e-07 0.959179C 4.69861e-07 1.22347 0.0934986 1.44964 0.280496 1.63713C 0.467492 1.82433 0.692789 1.91808 0.956668 1.91808C 1.22027 1.91808 1.44556 1.82433 1.63256 1.63713C 1.81956 1.44964 1.91306 1.22347 1.91306 0.959179C 1.91306 0.694607 1.81956 0.468719 1.63256 0.281231Z"/>
<path id="path13_fill" fill-rule="evenodd" d="M 0.00663188 1.13186C 0.077319 0.439508 0.694354 -0.0642232 1.38461 0.00664937C 2.07515 0.0775219 2.57784 0.695893 2.50715 1.38824C 2.43647 2.08059 1.81943 2.58432 1.1289 2.51345C 0.438359 2.44286 -0.0640552 1.82421 0.00663188 1.13186Z"/>
<path id="path14_fill" fill-rule="evenodd" d="M 0.00463983 0.795545C 0.0542053 0.309037 0.487903 -0.045043 0.973138 0.00465245C 1.45837 0.054348 1.81181 0.489184 1.76196 0.975692C 1.7124 1.46248 1.2787 1.81656 0.793463 1.76658C 0.308228 1.71689 -0.0449257 1.28205 0.00463983 0.795545Z"/>
<path id="path15_fill" fill-rule="evenodd" d="M 0.00250405 0.42977C 0.0292581 0.166892 0.263568 -0.0245488 0.525758 0.00255781C 0.787948 0.0293821 0.978888 0.264306 0.951853 0.527184C 0.925099 0.790062 0.690789 0.98122 0.428599 0.954396C 0.166409 0.927572 -0.0242501 0.692647 0.00250405 0.42977Z"/>
<path id="path16_fill" fill-rule="evenodd" d="M 0.648857 0.464766C 0.390328 0.279255 0.174042 0.124239 1.81266e-07 3.5204e-08C 0.0154893 1.21556 0.101947 2.35065 0.259374 3.40499C 0.561272 5.46001 0.989902 7.02005 1.5447 8.0854C 2.16004 9.26623 2.8855 10.0043 3.72079 10.2994C 4.4285 10.5445 5.1703 10.464 5.9456 10.058C 6.5463 9.74342 6.88256 9.24619 6.95409 8.56654C 7.02534 7.9366 6.86763 7.25046 6.48125 6.5087C 6.14274 5.85899 5.54964 5.04212 4.70196 4.05837C 3.89201 3.11162 3.17388 2.3868 2.54671 1.88419C 2.04824 1.47675 1.41543 1.00379 0.648857 0.464766Z"/>
</defs>
</svg>
