<svg width="58" height="40" viewBox="0 0 58 40" version="1.1" xmlns="http://www.w3.org/2000/svg" xmlns:xlink="http://www.w3.org/1999/xlink">
<title>Group</title>
<desc>Created using Figma</desc>
<g id="Canvas" transform="translate(-4915 -288)">
<g id="Group">
<g id="Mask Group">
<g id="Path">
<use xlink:href="#path0_fill" transform="translate(4920.63 294.953)" fill="#885D5D"/>
</g>
<g id="Path">
<use xlink:href="#path1_fill" transform="translate(4921.79 296.123)" fill="#AD7F68"/>
</g>
</g>
<g id="Group">
<g id="Group">
<g id="0 Layer0 0 MEMBER 1 MEMBER 1 MEMBER 0 FILL 2">
<g id="Vector">
<use xlink:href="#path2_fill" transform="matrix(1.07692 0.221559 -0.213567 1.07854 4940.68 297.13)" fill="#D93D4B"/>
</g>
</g>
</g>
</g>
<g id="Group">
<g id="Group">
<g id="0 Layer0 0 MEMBER 1 MEMBER 1 MEMBER 1 FILL 2">
<g id="Vector">
<use xlink:href="#path3_fill" transform="matrix(0.242124 0.0499191 0.0481185 -0.242488 4950 301.68)" fill="#D93D4B"/>
</g>
</g>
</g>
</g>
<g id="Group">
<g id="Group">
<g id="0 Layer0 0 MEMBER 1 MEMBER 2 MEMBER 0 FILL 2">
<g id="Vector">
<use xlink:href="#path4_fill" transform="matrix(-0.700029 -0.713557 -0.700044 0.713542 4954.51 299.201)" fill="#54B8AC"/>
</g>
</g>
</g>
</g>
<g id="Group">
<g id="Group">
<g id="0 Layer0 0 MEMBER 1 MEMBER 2 MEMBER 1 FILL 2">
<g id="Vector">
<use xlink:href="#path5_fill" transform="matrix(-0.700029 -0.713557 -0.700044 0.713542 4958.29 301.246)" fill="#54B8AC"/>
</g>
</g>
</g>
</g>
<g id="Group">
<g id="Group">
<g id="0 Layer0 0 MEMBER 1 MEMBER 3 MEMBER 1 MEMBER 0 MEMBER 0 FILL 2">
<g id="Vector">
<use xlink:href="#path6_fill" transform="matrix(-0.249878 -0.000668794 -0.000643702 0.249878 4928.75 297.462)" fill="#3A2058"/>
</g>
</g>
</g>
</g>
<g id="Group">
<g id="Group">
<g id="0 Layer0 0 MEMBER 1 MEMBER 3 MEMBER 2 FILL 2">
<g id="Vector">
<use xlink:href="#path7_fill" transform="matrix(-0.249725 -0.00088654 -0.00085328 0.249725 4942.84 296.839)" fill="#F55361"/>
</g>
</g>
</g>
</g>
<g id="Group">
<g id="Group">
<g id="0 Layer0 0 MEMBER 1 MEMBER 3 MEMBER 4 FILL 2">
<g id="Vector">
<use xlink:href="#path8_fill" transform="matrix(-0.249725 -0.00088654 -0.00085328 0.249725 4942.84 305.993)" fill="#F78F9F"/>
</g>
</g>
</g>
</g>
<g id="Group">
<g id="Group">
<g id="0 Layer0 0 MEMBER 1 MEMBER 3 MEMBER 6 MEMBER 0 MEMBER 0 FILL 2">
<g id="Vector">
<use xlink:href="#path9_fill" transform="matrix(-0.321106 -0.00113539 -0.000643702 0.281845 4938.69 304.622)" fill="#F55260"/>
</g>
</g>
</g>
</g>
<g id="Group">
<g id="Group">
<g id="0 Layer0 0 MEMBER 1 MEMBER 3 MEMBER 6 MEMBER 1 MEMBER 0 FILL 2">
<g id="Vector">
<use xlink:href="#path10_fill" transform="matrix(-0.321106 -0.00113539 -0.000643702 0.281845 4938.11 305.166)" fill="#3A2058"/>
</g>
</g>
</g>
</g>
<g id="Group">
<g id="Group">
<g id="0 Layer0 0 MEMBER 1 MEMBER 3 MEMBER 7 MEMBER 0 FILL 2">
<g id="Vector">
<use xlink:href="#path11_fill" transform="matrix(-0.249878 -0.000668794 -0.000643702 0.249878 4938.66 308.653)" fill="#FFFFFF"/>
</g>
</g>
</g>
</g>
<g id="Group">
<g id="Group">
<g id="0 Layer0 0 MEMBER 1 MEMBER 3 MEMBER 8 MEMBER 0 FILL 2">
<g id="Vector">
<use xlink:href="#path12_fill" transform="matrix(-0.24501 -0.000668794 -0.000643702 0.24501 4947.38 295.376)" fill="#F55361"/>
</g>
</g>
</g>
</g>
<g id="Group">
<g id="Group">
<g id="0 Layer0 0 MEMBER 1 MEMBER 3 MEMBER 9 FILL 2">
<g id="Vector">
<use xlink:href="#path13_fill" transform="matrix(-0.259293 -0.000917647 -0.000883219 0.259293 4930.49 293.83)" fill="#FFFFFF"/>
</g>
</g>
</g>
</g>
<g id="Group">
<g id="Group">
<g id="0 Layer0 0 MEMBER 1 MEMBER 3 MEMBER 10 FILL 2">
<g id="Vector">
<use xlink:href="#path14_fill" transform="matrix(-0.259293 -0.000917647 -0.000883219 0.259293 4936.37 292.1)" fill="#FFFFFF"/>
</g>
</g>
</g>
</g>
<g id="Group">
<g id="Group">
<g id="0 Layer0 0 MEMBER 1 MEMBER 3 MEMBER 11 MEMBER 0 MEMBER 0 FILL 2">
<g id="Vector">
<use xlink:href="#path15_fill" transform="matrix(-0.238631 -0.0663543 -0.0640343 0.239264 4934.15 288.581)" fill="#3A2058"/>
</g>
</g>
</g>
</g>
<g id="Group">
<g id="Group">
<g id="0 Layer0 0 MEMBER 1 MEMBER 3 MEMBER 12 MEMBER 0 MEMBER 0 FILL 2">
<g id="Vector">
<use xlink:href="#path16_fill" transform="matrix(-0.238986 0.0641697 0.0619157 0.23958 4926.37 289.653)" fill="#3A2058"/>
</g>
</g>
</g>
</g>
<g id="Group">
<g id="Group">
<g id="0 Layer0 0 MEMBER 1 MEMBER 3 MEMBER 13 FILL 2">
<g id="Vector">
<use xlink:href="#path17_fill" transform="matrix(-0.247726 -0.00107318 -0.00103292 0.247727 4937.81 289.44)" fill="#6E5690"/>
</g>
</g>
</g>
</g>
<g id="Group">
<g id="Group">
<g id="0 Layer0 0 MEMBER 1 MEMBER 3 MEMBER 14 FILL 2">
<g id="Vector">
<use xlink:href="#path18_fill" transform="matrix(-0.980133 0 0 0.980133 4935.62 293.399)" fill="#4A3569"/>
</g>
</g>
</g>
</g>
<g id="Group">
<g id="Group">
<g id="0 Layer0 0 MEMBER 1 MEMBER 3 MEMBER 15 FILL 2">
<g id="Vector">
<use xlink:href="#path19_fill" transform="matrix(-0.999786 0 0 0.999786 4929.52 295.406)" fill="#4A3569"/>
</g>
</g>
</g>
</g>
<g id="Group">
<g id="Group">
<g id="0 Layer0 0 MEMBER 1 MEMBER 3 MEMBER 16 FILL 2">
<g id="Vector">
<use xlink:href="#path20_fill" transform="matrix(-0.246306 0.0250516 0.0241208 0.246399 4945.33 293.095)" fill="#F55361"/>
</g>
</g>
</g>
</g>
<g id="Group">
<g id="Group">
<g id="0 Layer0 0 MEMBER 1 MEMBER 3 MEMBER 17 MEMBER 0 MEMBER 0 FILL 2">
<g id="Vector">
<use xlink:href="#path21_fill" transform="matrix(-0.246291 0.0250205 0.0240909 0.246383 4944.8 294.798)" fill="#3A2058"/>
</g>
</g>
</g>
</g>
<g id="Group">
<g id="Group">
<g id="0 Layer0 0 MEMBER 1 MEMBER 3 MEMBER 18 MEMBER 0 MEMBER 0 FILL 2">
<g id="Vector">
<use xlink:href="#path22_fill" transform="matrix(-0.246291 0.0250205 0.0240909 0.246383 4942.18 294.284)" fill="#3A2058"/>
</g>
</g>
</g>
</g>
<g id="Mask Group">
<mask id="mask0_alpha" mask-type="alpha">
<g id="Path">
<use xlink:href="#path1_fill" transform="translate(4921.79 296.122)" fill="#DADADA"/>
</g>
</mask>
<g id="Group" mask="url(#mask0_alpha)">
<g id="Group">
<g id="0 Layer0 0 MEMBER 1 MEMBER 4 MEMBER 0 FILL 2">
<g id="Vector">
<use xlink:href="#path23_fill" transform="matrix(-0.999786 0 0 0.999786 4947 309.876)" fill="#F9F6EF"/>
</g>
</g>
</g>
</g>
</g>
<g id="Group">
<g id="Group">
<g id="0 Layer0 0 MEMBER 1 MEMBER 4 MEMBER 1 MEMBER 0 FILL 2">
<g id="Vector">
<use xlink:href="#path24_fill" transform="matrix(-0.999753 0.0125515 0.0120807 0.999759 4946.6 311.541)" fill="#F55361"/>
</g>
</g>
</g>
</g>
<g id="Group">
<g id="Group">
<g id="0 Layer0 0 MEMBER 1 MEMBER 4 MEMBER 1 MEMBER 1 FILL 2">
<g id="Vector">
<use xlink:href="#path25_fill" transform="matrix(0.202916 0.141867 0.138225 -0.205414 4943.95 311.415)" fill="#F55361"/>
</g>
</g>
</g>
</g>
<g id="Group">
<g id="Group">
<g id="0 Layer0 0 MEMBER 1 MEMBER 4 MEMBER 3 FILL 2">
<g id="Vector">
<use xlink:href="#path26_fill" transform="matrix(-1 0 0 1 4928.47 302.174)" fill="#54B8AC"/>
</g>
</g>
</g>
</g>
<g id="Group">
<g id="Group">
<g id="0 Layer0 0 MEMBER 1 MEMBER 4 MEMBER 3 MEMBER 0 FILL 2">
<g id="Vector">
<use xlink:href="#path27_fill" transform="matrix(-0.756449 -0.286084 -0.194848 0.921847 4928.46 308.292)" fill="#FFF3CB"/>
</g>
</g>
</g>
</g>
<g id="Group">
<g id="Group">
<g id="0 Layer0 0 MEMBER 1 MEMBER 4 MEMBER 3 MEMBER 1 FILL 2">
<g id="Vector">
<use xlink:href="#path28_fill" transform="matrix(-0.999786 0 0 0.999786 4928.43 301.876)" fill="#FFF3CB"/>
</g>
</g>
</g>
</g>
<g id="Group">
<g id="Group">
<g id="0 Layer0 0 MEMBER 1 MEMBER 4 MEMBER 4 FILL 2">
<g id="Vector">
<use xlink:href="#path29_fill" transform="matrix(-1 0 0 1 4928.4 305.811)" fill="#54B8AC"/>
</g>
</g>
</g>
</g>
<g id="Group">
<g id="Group">
<g id="0 Layer0 0 MEMBER 1 MEMBER 4 MEMBER 4 MEMBER 0 FILL 2">
<g id="Vector">
<use xlink:href="#path30_fill" transform="matrix(-0.976284 0.120987 0.118709 0.976564 4926.08 308.514)" fill="#FFF3CB"/>
</g>
</g>
</g>
</g>
<g id="Group">
<g id="Group">
<g id="0 Layer0 0 MEMBER 1 MEMBER 4 MEMBER 4 MEMBER 1 FILL 2">
<g id="Vector">
<use xlink:href="#path31_fill" transform="matrix(-0.976284 0.120987 0.118709 0.976564 4927.08 304.604)" fill="#FFF3CB"/>
</g>
</g>
</g>
</g>
<g id="Group">
<g id="Group">
<g id="0 Layer0 0 MEMBER 1 MEMBER 5 FILL 2">
<g id="Vector">
<use xlink:href="#path32_fill" transform="matrix(0.0852867 -0.213294 -0.134606 -0.0559302 4953.4 304.865)" fill="#D93D4B"/>
</g>
</g>
</g>
</g>
<g id="Group">
<g id="Group">
<g id="0 Layer0 0 MEMBER 1 MEMBER 6 FILL 2">
<g id="Vector">
<use xlink:href="#path33_fill" transform="matrix(-1 0 0 1 4973 296.684)" fill="#B78C77"/>
<use xlink:href="#path34_fill" transform="matrix(-1 0 0 1 4973 296.684)" fill="#B78C77"/>
<use xlink:href="#path35_fill" transform="matrix(-1 0 0 1 4973 296.684)" fill="#B78C77"/>
<use xlink:href="#path36_fill" transform="matrix(-1 0 0 1 4973 296.684)" fill="#B78C77"/>
<use xlink:href="#path37_fill" transform="matrix(-1 0 0 1 4973 296.684)" fill="#B78C77"/>
<use xlink:href="#path38_fill" transform="matrix(-1 0 0 1 4973 296.684)" fill="#B78C77"/>
<use xlink:href="#path39_fill" transform="matrix(-1 0 0 1 4973 296.684)" fill="#B78C77"/>
</g>
<g id="Vector">
<use xlink:href="#path40_fill" transform="matrix(-1 0 0 1 4956.69 299.709)" fill="#8C5642"/>
</g>
</g>
</g>
</g>
<g id="Group">
<g id="Group">
<g id="0 Layer0 0 MEMBER 1 MEMBER 6 MEMBER 0 FILL 2">
<g id="Vector">
<use xlink:href="#path41_fill" transform="matrix(-0.881424 0 0 0.881424 4965.03 300.249)" fill="#A06C5C"/>
</g>
<g id="Vector">
<use xlink:href="#path42_fill" transform="matrix(-0.881424 0 0 0.881424 4963.3 297.145)" fill="#AA7C6A"/>
</g>
<g id="Vector">
<use xlink:href="#path43_fill" transform="matrix(-0.881424 0 0 0.881424 4959.33 298.202)" fill="#98634F"/>
</g>
</g>
</g>
</g>
<g id="Vector">
<use xlink:href="#path44_fill" transform="matrix(-1 0 0 1 4966.9 312.542)" fill="#AD7F68"/>
</g>
<g id="Vector">
<use xlink:href="#path45_fill" transform="matrix(-1 0 0 1 4956.45 314.304)" fill="#AA7C6A"/>
</g>
<g id="Vector">
<use xlink:href="#path46_fill" transform="matrix(-1 0 0 1 4950.08 293.95)" fill="#AA7C6A"/>
</g>
</g>
</g>
<defs>
<path id="path0_fill" fill-rule="evenodd" d="M 16.1775 0C 7.2574 0 0 7.2833 0 16.2352C 0 25.1871 7.2574 32.4705 16.1775 32.4705C 25.0976 32.4705 32.355 25.1871 32.355 16.2352C 32.355 7.2833 25.0976 0 16.1775 0Z"/>
<path id="path1_fill" fill-rule="evenodd" d="M 15.012 30.1311C 6.7209 30.1311 0 23.3862 0 15.0656C 0 6.74566 6.7209 0 15.012 0C 23.3031 0 30.024 6.74566 30.024 15.0656C 30.024 23.3862 23.3031 30.1311 15.012 30.1311Z"/>
<path id="path2_fill" d="M 10.2759 0.292283L 10.184 0.572881C 9.72449 1.60173 8.66768 2.86441 7.10542 4.36091C 5.54315 5.81065 3.29165 7.30715 0.350926 8.75689L 0.350926 9.13101C -0.20046 11.0016 -0.108557 12.0305 0.672574 12.2176C 1.45371 12.4514 2.83216 11.7031 4.85391 9.97281C 6.87566 8.24247 8.48387 6.4186 9.67854 4.5012C 10.8732 2.58381 11.4706 1.32114 11.4706 0.666418L 11.4246 0.292283C 11.3327 0.0584544 11.1489 -0.03508 10.9192 0.0116857C 10.5975 -0.03508 10.4137 0.10522 10.2759 0.292283Z"/>
<path id="path3_fill" d="M 9.58241 1.14174e-05L 5.53888 1.14174e-05C 4.528 0.607965 3.56306 1.4965 2.59813 2.61888C 0.66827 4.86363 -0.158802 7.20191 0.0249945 9.63372L 5.30913 7.95017L 5.63075 9.86755C 6.04429 11.3641 6.77949 12.58 7.88226 13.6088L 9.16886 12.0188C 10.0419 10.6626 10.4554 9.30636 10.4554 7.90339L 15.4179 10.6158C 15.5558 9.49341 15.4638 8.18398 15.0503 6.73425C 14.2232 3.88154 12.4313 1.59004 9.58241 1.14174e-05Z"/>
<path id="path4_fill" d="M 4.79614 0.519757C 4.79614 0.519757 4.73619 0.519757 4.79614 0.519757C 3.53715 -0.139712 2.15826 -0.139711 0.599517 0.339902C 0.419662 0.699613 0.239805 1.05932 0.119902 1.35908C 0.0599499 1.53894 0 1.71879 0 1.8387C 1.6187 1.05932 3.05754 0.99937 4.25658 1.59889C 4.25658 1.59889 4.25657 1.59889 4.31652 1.59889C 4.85609 1.83869 5.21581 2.19841 5.45561 2.61807C 5.63547 2.97778 5.75537 3.33749 5.81532 3.6972C 5.87527 4.17681 5.87527 4.71638 5.87527 5.19599C 5.81532 5.79551 5.69541 6.39503 5.51556 6.93459C 5.27575 7.59406 5.03594 8.25353 4.73618 8.85305C 4.31652 9.63242 3.77696 10.5916 3.05754 11.6108C 3.11749 11.8506 3.23739 12.0904 3.29735 12.3302C 3.3573 12.63 3.41725 12.8698 3.4772 13.1696C 4.49638 11.7307 5.27575 10.4717 5.81532 9.45256L 5.81532 9.39261C 6.17503 8.73314 6.41484 8.01372 6.65465 7.35425L 6.65465 7.2943C 6.8345 6.63483 6.9544 5.97536 7.01435 5.3159C 7.0743 4.71638 7.07431 4.11686 6.95441 3.51734L 6.89445 3.45739C 6.8345 2.97778 6.65464 2.49816 6.41483 2.0785C 6.11508 1.35908 5.51556 0.879467 4.79614 0.519757Z"/>
<path id="path5_fill" d="M 10.4706 11.6361C 10.4706 11.4043 10.4242 11.1262 10.3778 10.8944C 10.3315 10.709 10.2851 10.4772 10.2388 10.2454C 10.1924 10.0599 10.146 9.87449 10.0533 9.68906C 9.91424 9.08639 9.68245 8.48372 9.4043 7.88105C 9.1725 7.32474 8.98706 6.81479 8.75526 6.39756C 8.24531 5.14586 7.87444 4.26504 7.73537 3.75509C 7.54993 3.2915 7.54993 2.73519 7.689 2.17888C 7.73536 2.0398 7.78173 1.94708 7.78173 1.80801C 7.87445 1.57621 7.96716 1.29806 8.15259 1.0199C 8.19895 0.927182 8.24531 0.834464 8.29167 0.741746C 8.29167 0.231796 8.05988 -7.07384e-07 7.54993 -7.07384e-07L 1.43052 -7.07384e-07C 0.920573 -7.07384e-07 0.688779 0.231796 0.688779 0.741746C 2.35771 1.48349 3.00673 2.50339 2.72858 3.80145C 2.54314 4.3114 2.21863 5.19222 1.66232 6.44392C 1.47688 6.86115 1.29145 7.3711 1.05965 7.92741C 0.50334 9.31818 0.132468 10.5699 0.03975 11.6825C -0.0993274 12.9342 0.132466 14.2323 0.642417 15.4839C 1.15237 16.6429 1.66232 17.8946 3.00674 18.4509C 4.8611 19.1927 7.73537 18.1728 7.73537 18.1728C 8.61619 17.5238 9.31158 16.6429 9.82153 15.4376C 10.4242 14.1859 10.6096 12.9342 10.4706 11.6361Z"/>
<path id="path6_fill" d="M 11.2489 5.71291e-06L 5.05053 1.9656L 2.80236e-06 50.4506L 6.70343 46.0046C 7.62171 45.3962 8.17267 44.5537 8.44815 43.4773C 8.67772 42.4009 8.49406 41.3713 7.9431 40.4353L 5.09644 35.9425L 20.9826 25.9741C 21.7632 25.5061 22.2682 24.8041 22.4978 23.8681C 22.7274 22.9789 22.6355 22.0897 22.2223 21.2941L 11.2489 5.71291e-06Z"/>
<path id="path7_fill" d="M 63.9687 14.4035C 64.382 11.5487 63.9228 9.25548 62.4995 7.52388C 62.0404 6.96228 61.5353 6.54107 60.9384 6.11987L 60.2038 5.74546C 55.7501 4.20106 50.6996 2.84385 44.9604 1.72065C 33.5279 -0.525761 24.6665 -0.572555 18.2844 1.58025C 15.8051 2.42265 14.3818 3.92026 13.9226 6.02627C 13.7849 6.68147 13.693 7.80467 13.6012 9.34908C 13.5094 11.0339 13.4176 12.3911 13.2339 13.3271C 13.0503 14.4503 12.0861 18.1943 10.2954 24.5591C 8.09157 32.4684 6.39275 38.9736 5.15307 43.9812C 0.6076 62.748 -0.907561 76.2733 0.515769 84.6505C 1.57179 90.8281 3.45426 95.7421 6.11727 99.299C 8.36705 102.247 11.8106 105.102 16.5397 107.77C 20.8556 109.642 25.7684 110.905 31.2321 111.514C 39.864 112.497 46.3837 111.046 50.8374 107.161C 54.0973 104.353 56.2552 99.9542 57.3571 94.0573C 57.6785 92.1853 57.9081 90.3133 57.9999 88.3477L 58.0459 86.0077C 57.954 84.9313 57.9081 83.6677 57.9081 82.2637C 57.8622 67.2409 58.0918 57.4596 58.505 52.92C 58.8264 48.8484 60.6629 35.9784 63.9687 14.4035Z"/>
<path id="path8_fill" d="M 12.3429 0.0238411C 10.7818 -0.0697592 9.54216 0.117441 8.71571 0.491843C 6.87916 1.47465 5.36399 4.89107 4.21615 10.8347C 4.0784 11.8175 3.89476 12.5663 3.71111 13.0811C 3.48154 13.6427 3.34379 14.2979 3.20605 15.0467C 1.64498 25.1555 0.818526 30.9119 0.634871 32.3159C -0.0538373 38.3532 -0.191573 43.6884 0.267565 48.2748L 0.818523 50.8956C 1.4154 53.0016 2.28777 55.014 3.34379 56.8392C 6.87915 62.736 12.297 66.0589 19.6432 66.9013C 26.9894 67.7437 32.6828 67.0417 36.7691 64.842C 38.8352 63.7656 40.1208 62.5956 40.6718 61.332C 35.8508 53.5164 33.7847 43.4544 34.4734 31.0524C 34.703 27.1679 35.1621 23.3303 35.9426 19.4459L 36.9987 14.8127C 36.9527 14.0171 37.0446 12.6131 37.2282 10.6007C 37.4119 8.77549 37.4119 7.41829 37.2741 6.48228C 36.815 3.58068 34.4275 1.98945 30.0657 1.66185C 27.6322 1.47465 25.2447 1.28745 22.8572 1.05345C 20.286 0.772649 18.4954 0.63226 17.5312 0.53866C 15.0518 0.257859 13.3071 0.117441 12.3429 0.0238411Z"/>
<path id="path9_fill" d="M 2.55427 0L 1.40642 4.77362C 0.625885 8.61123 0.166747 12.1681 0.0290049 15.3973C -0.338306 25.8337 2.78383 31.4029 9.34952 32.1049C 14.3541 32.6665 18.6241 29.0629 22.2054 21.2941C 23.3073 18.8605 24.2715 16.146 25.098 13.1508L 26.0163 9.40682L 2.55427 0Z"/>
<path id="path10_fill" d="M 1.6529 -1.14258e-05L 0.826455 4.07161C 0.275489 7.34762 0.0459111 10.3896 -2.80236e-06 13.1976C -2.80236e-06 22.1365 2.61709 27.0505 7.89719 27.8461C 12.0294 28.5013 15.5189 25.4593 18.2737 18.8137C 19.1461 16.7077 19.8807 14.4145 20.5235 11.8405L 21.2122 8.61123L 1.6529 -1.14258e-05Z"/>
<path id="path11_fill" d="M 19.192 4.02481L 22.5896 5.71291e-06L 2.80236e-06 2.19962L 0.0918221 3.74402L 3.07622 7.44121C 3.53536 8.00282 4.13225 8.33042 4.82096 8.37722C 5.55558 8.42402 6.15246 8.19001 6.70343 7.67521L 9.596 4.8672L 13.0855 7.72203C 13.6823 8.19003 14.371 8.42404 15.1516 8.28364C 15.9321 8.19004 16.529 7.81563 16.9881 7.16042L 19.192 4.02481Z"/>
<path id="path12_fill" d="M 34.0845 0.724567C 29.3095 -0.071036 25.3609 -0.211434 22.1469 0.303368C 18.7952 0.86497 15.9026 2.22218 13.5151 4.32818C 11.1735 6.48099 9.06147 9.5698 7.179 13.6882C 4.1946 20.3806 1.85299 29.2259 0.200095 40.1303C -0.304958 43.4531 0.154182 46.5419 1.48568 49.3499C 2.81719 52.1111 4.60782 53.8895 6.94943 54.5915C 12.7805 56.4167 18.2442 57.7272 23.2489 58.5228C 31.6511 59.9268 38.63 60.2544 44.0938 59.5056C 53.001 58.2887 60.2554 54.3575 65.8569 47.8055L 81.4676 13.6882C 67.0507 9.5698 56.6741 6.52779 50.2921 4.70258C 43.6346 2.73697 38.2168 1.42657 34.0845 0.724567Z"/>
<path id="path13_fill" d="M 20.1086 5.41539C 18.5934 2.79458 16.3896 1.10977 13.497 0.360968C 10.6044 -0.387835 7.8955 0.0333697 5.32433 1.57777C 2.75315 3.12218 1.10024 5.36858 0.365622 8.31699C -0.369 11.2654 -0.00168864 14.0266 1.51347 16.6474C 3.02863 19.2682 5.2325 20.953 8.12508 21.7018C 11.0177 22.4506 13.7266 22.0762 16.2977 20.5318C 18.8689 18.9874 20.5218 16.741 21.2564 13.7926C 22.037 10.8442 21.6237 8.0362 20.1086 5.41539Z"/>
<path id="path14_fill" d="M 5.32433 1.56349C 2.75315 3.10789 1.10026 5.3543 0.365633 8.30271C -0.368988 11.2511 -0.00167737 14.0123 1.51348 16.6331C 3.02864 19.254 5.2325 20.9388 8.12507 21.7344C 11.0176 22.53 13.7266 22.1088 16.2977 20.5176C 18.8689 18.9731 20.5218 16.7267 21.2564 13.7783C 21.9911 10.8299 21.6238 8.0687 20.1086 5.4479C 18.5934 2.82709 16.3896 1.14229 13.497 0.393485C 10.6503 -0.402118 7.8955 0.0190839 5.32433 1.56349Z"/>
<path id="path15_fill" d="M 8.83589 0.985907C 7.82442 0.284818 6.62904 -0.0423604 5.24977 0.00437896C 4.00842 0.0511183 2.81306 0.331563 1.66366 0.845695C 1.20391 1.07939 0.790121 1.35982 0.468291 1.73374C 0.100484 2.15439 -0.0374431 2.57505 0.00853271 2.94896C 0.0545085 3.36962 0.238412 3.79026 0.69817 4.16417C 1.11195 4.53809 1.52573 4.72505 1.98549 4.72505C 2.26134 4.72505 3.13489 4.72505 4.60611 4.72505C 5.98539 4.72505 6.9049 4.81853 7.31868 5.00549C 7.87039 5.23919 8.46808 5.33267 9.06577 5.23919C 9.75541 5.14571 10.2152 4.81853 10.445 4.3044C 10.6749 3.79027 10.6749 3.2294 10.3531 2.66853C 10.0772 2.06091 9.5715 1.54678 8.83589 0.985907Z"/>
<path id="path16_fill" d="M 6.67087 0.966577C 5.42963 0.218687 4.23435 -0.108515 3.03908 0.031714C 2.16562 0.1252 1.43007 0.312167 0.878411 0.639369C 0.326748 1.01331 0.0509199 1.48075 0.00494805 2.04166C -0.0410238 2.60258 0.234799 3.07002 0.786462 3.53745C 1.29215 3.95814 1.79784 4.19185 2.39548 4.2386C 2.8552 4.28534 3.68269 4.65928 4.92393 5.36043C 4.9699 5.36043 5.70546 5.82787 7.13059 6.71599C 7.49837 6.94971 7.95808 6.99645 8.50975 6.85622C 9.06141 6.76273 9.42917 6.52902 9.70501 6.15507C 9.93486 5.82787 9.98085 5.40719 9.8889 4.84627C 9.79696 4.37884 9.61307 3.91139 9.33724 3.4907C 8.60169 2.46236 7.68225 1.62098 6.67087 0.966577Z"/>
<path id="path17_fill" d="M 45.1947 12.7764C 42.9449 12.168 40.6951 12.0744 38.4453 12.402C 36.2874 12.7296 34.2212 13.4784 32.3388 14.6485C 31.3287 12.2616 29.8594 10.2024 27.931 8.51763C 25.9567 6.73922 23.661 5.52241 21.0899 4.86721C 18.5187 4.16521 15.9016 4.11841 13.2845 4.72681L 6.85657 -2.85645e-06L 5.98421 8.37722L 5.66282 8.65802L 0.841861 7.06682L 1.98971 13.4316C 1.39283 14.6484 0.887772 15.8653 0.566375 17.1757C -0.581472 21.7621 0.0154053 26.1145 2.35701 30.1861C 4.74453 34.2577 8.18808 36.8785 12.6876 38.0485C 14.8915 38.6569 17.1413 38.7505 19.437 38.4229C 21.5949 38.0953 23.6611 37.3465 25.5435 36.1765C 26.5536 38.5633 28.0229 40.6225 29.9513 42.3073C 31.9256 44.0389 34.2212 45.2557 36.7924 45.9577C 41.292 47.1278 45.562 46.5194 49.5565 44.1325C 53.551 41.7457 56.1222 38.2357 57.27 33.6493L 57.5455 32.3857L 62.2746 29.1097L 57.5914 26.6293L 57.5914 26.4889L 63.0092 19.7497L 53.7806 18.1585C 51.4849 15.4909 48.6382 13.6656 45.1947 12.7764ZM 43.7254 18.6733C 46.618 19.4221 48.8219 21.1069 50.337 23.7745C 51.8522 26.3953 52.2654 29.2033 51.4849 32.1517C 50.7502 35.1001 49.0514 37.3465 46.4802 38.8909C 43.9091 40.4353 41.2002 40.8097 38.2617 40.0609C 35.3232 39.3121 33.1652 37.6273 31.6501 35.0065C 30.1349 32.3857 29.7217 29.5777 30.5022 26.6293C 31.2827 23.6809 32.8897 21.4345 35.5068 19.8901C 38.078 18.3457 40.8328 17.9244 43.7254 18.6733ZM 6.44334 18.7201C 7.17797 15.7716 8.83087 13.5252 11.4021 11.9808C 13.9732 10.4364 16.7281 10.0152 19.6206 10.8108C 22.5132 11.5596 24.7171 13.2912 26.2322 15.912C 27.7474 18.5329 28.1606 21.2941 27.3801 24.2425C 26.6455 27.1909 24.9926 29.4373 22.3755 30.9817C 19.8043 32.5261 17.0495 32.9473 14.1569 32.1517C 11.2643 31.4029 9.06043 29.6713 7.54527 27.0505C 6.07603 24.4297 5.70872 21.6685 6.44334 18.7201Z"/>
<path id="path18_fill" d="M 0.0459142 1.3572C 0.183656 1.9188 0.505053 2.29321 0.964191 2.52721C 1.42333 2.80801 1.92838 2.90161 2.43344 2.76121C 2.75483 2.66761 2.9844 2.52721 3.16806 2.34001C 3.25988 2.24641 3.3058 2.15281 3.3058 2.01241C 3.3058 1.87201 3.25988 1.77841 3.21397 1.63801C 3.12214 1.54441 3.03032 1.4976 2.89257 1.4976C 2.75483 1.4976 2.663 1.5444 2.52526 1.5912C 2.43343 1.6848 2.29569 1.7784 2.11204 1.8252L 2.11204 1.77841C 1.88247 1.87201 1.60698 1.82521 1.37742 1.68481L 1.37742 1.63801C 1.14785 1.49761 0.96419 1.3104 0.918276 1.0296L 0.918276 1.07641C 0.872363 0.889205 0.872363 0.748801 0.918276 0.561601C 0.96419 0.4212 0.918277 0.327598 0.872363 0.187198C 0.780536 0.0935975 0.688709 1.33014e-14 0.596881 1.33014e-14C 0.459139 1.33014e-14 0.36731 -1.42962e-06 0.229569 0.0935989C 0.137741 0.187199 0.0459132 0.280802 -7.0059e-07 0.374403C -7.0059e-07 0.748804 3.48927e-07 1.0764 0.0459142 1.3572Z"/>
<path id="path19_fill" d="M 2.42196 2.76121C 2.46787 2.76121 2.46787 2.76121 2.42196 2.76121C 2.74335 2.66761 2.97292 2.52721 3.15658 2.34001C 3.24841 2.24641 3.29432 2.15281 3.34023 2.01241C 3.34023 1.87201 3.29432 1.77841 3.24841 1.63801C 3.15658 1.54441 3.06475 1.4976 2.92701 1.4976C 2.78927 1.4976 2.69744 1.5444 2.5597 1.5912C 2.46787 1.6848 2.33013 1.7784 2.14647 1.8252L 2.19239 1.77841C 1.96282 1.87201 1.68733 1.82521 1.45776 1.68481L 1.45776 1.63801C 1.2282 1.49761 1.04454 1.3104 0.952713 1.0296L 0.952713 1.07641C 0.906799 0.889205 0.906799 0.748801 0.952713 0.561601C 0.998627 0.4212 0.952713 0.327598 0.906799 0.187198C 0.814971 0.0935975 0.723144 1.33014e-14 0.585402 1.33014e-14C 0.447661 1.33014e-14 0.355832 -1.42962e-06 0.21809 0.0935989C 0.126262 0.187199 0.0344357 0.280802 0.0344357 0.374403C -0.0114781 0.655204 -0.0114781 0.936002 0.0344357 1.2636C 0.172177 1.7784 0.493574 2.15281 0.952713 2.43361L 0.906799 2.43361C 1.45777 2.85481 1.96282 2.90161 2.42196 2.76121Z"/>
<path id="path20_fill" d="M 9.45579 5.87162C 8.58326 4.65504 7.61889 3.76599 6.47082 3.2045C 5.32275 2.643 4.2206 2.50263 3.16438 2.78338C 1.74078 3.15771 0.822328 4.18712 0.317179 5.87162C -0.187971 7.55611 -0.0961267 9.33419 0.638636 11.2994C 1.3734 13.2647 2.47555 14.8088 3.94507 15.885L 21.1661 8.67911C 21.2579 6.43312 20.7528 4.46787 19.6965 2.78338C 18.5944 1.09888 17.2167 0.163054 15.5635 0.0226795C 14.1399 -0.117695 12.8541 0.397014 11.706 1.47322C 10.5579 2.64301 9.82318 4.09354 9.45579 5.87162Z"/>
<path id="path21_fill" d="M 4.18624 2.19754C 3.86478 1.40208 3.35962 0.840589 2.71671 0.419465C 2.11971 -0.00165886 1.52272 -0.0952476 1.01757 0.0919185C 0.512421 0.325876 0.190967 0.793791 0.0531989 1.49566C -0.0845691 2.19754 0.0531975 2.9462 0.374656 3.74165C 0.696115 4.53711 1.20126 5.14541 1.84418 5.56653C 2.44117 5.98766 3.03817 6.08123 3.58924 5.84727C 4.14031 5.61331 4.46177 5.1454 4.59954 4.44352C 4.64546 3.74165 4.55362 2.99299 4.18624 2.19754Z"/>
<path id="path22_fill" d="M 4.47791 3.38653C 4.43199 2.35712 4.15644 1.51488 3.65129 0.859794C 3.14614 0.204713 2.59508 -0.0760305 1.95216 0.0175525C 1.35517 0.111136 0.850013 0.532251 0.482632 1.28092C 0.115251 2.02958 -0.06844 2.91862 0.0234053 3.90124C 0.115251 4.88387 0.390781 5.72611 0.850008 6.38119C 1.30923 7.03627 1.86031 7.31703 2.50323 7.27024C 3.10022 7.22345 3.60538 6.80232 4.01868 6.00686C 4.38606 5.2582 4.56975 4.36916 4.47791 3.38653Z"/>
<path id="path23_fill" d="M 4.91986 0C 4.55543 2.65787 4.05433 5.13244 3.46213 7.37788C 2.00439 9.53167 0.865531 11.5022 0 13.2894C 0.546651 14.9849 1.54884 15.5806 3.09769 15.1682C 3.91767 16.5888 5.10208 17.047 6.60537 16.4971C 6.65093 15.5885 6.74203 15.5426 6.78759 15.5426C 7.92645 16.7341 9.0653 17.5969 10.2042 16.4971C 10.5686 16.9096 10.9786 16.2759 11.4341 16.3675C 11.8897 16.4592 12.2997 17.2303 12.6185 16.9096C 12.983 16.6346 13.1652 16.4055 13.1652 16.268C 14.5774 17.1387 15.8529 16.8637 17.0373 15.3973C 18.495 15.5806 19.4972 15.6644 20.1805 13.9689C 21.9572 13.6481 22.9138 11.7313 23.0049 9.9441C 22.5949 9.11925 21.2283 7.69866 18.9961 5.63651C 19.0872 4.85748 18.7283 4.31026 18.7283 3.6687C 11.3941 4.40191 7.06091 3.0703 4.91986 0Z"/>
<path id="path24_fill" d="M 7.00592e-07 0.720431L 0.137741 1.09483C 0.459139 1.70323 1.60699 2.54563 3.67312 3.66883C 5.73925 4.74523 8.12678 5.49404 10.7898 5.96204C 12.0754 6.19604 13.0855 6.28964 13.7742 6.24284C 14.968 6.14924 15.6108 5.54084 15.7026 4.32404C 15.7485 3.10724 15.1975 2.49883 14.0038 2.40523C 10.7439 2.63924 8.03495 2.49883 5.92291 2.03083C 3.76495 1.56283 2.20387 1.00123 1.28559 0.252431L 1.05602 0.0652335C 0.872364 -0.0283666 0.642795 -0.0283637 0.367311 0.112036C 0.0918266 0.252436 7.00592e-07 0.439631 7.00592e-07 0.720431Z"/>
<path id="path25_fill" d="M 9.63458 0L 5.56902 0C 4.55264 0.60474 3.5825 1.48858 2.61231 2.60502C 0.671943 4.83791 -0.159689 7.16383 0.0251081 9.58279L 5.33802 7.90813L 5.66145 9.81538C 6.07725 11.304 6.81645 12.5134 7.92523 13.5369L 9.21877 11.9552C 10.0966 10.6062 10.5124 9.25718 10.5124 7.86163L 15.5019 10.5597C 15.6405 9.44325 15.5481 8.14074 15.1323 6.69867C 14.3469 3.81452 12.4989 1.58163 9.63458 0Z"/>
<path id="path26_fill" d="M 7.74231 5.27602C 7.87814 4.45314 7.94605 3.56169 7.94605 2.60166C 7.94605 1.50448 7.81022 0.681599 7.40273 0.270159L 7.33482 0.270159C 6.65567 -0.141282 5.97652 -0.0727081 5.22946 0.407306C 4.55031 0.88732 3.87115 1.57306 3.32783 2.39594C 2.85243 3.08167 2.44494 3.76741 2.10536 4.52171C 1.56204 5.61889 1.22247 6.78464 0.882896 7.88181C 0.611236 8.91042 0.407489 9.80187 0.339574 10.4876L 0.27166 10.5562C 0.203745 11.1048 0.135832 11.5162 0.135832 11.8591C 0.135832 11.9962 0.0679129 12.0648 0.0679129 12.2019C 0.0679129 12.2705 0.067917 12.3391 0.135832 12.3391C 0.135832 12.4077 0.135828 12.4077 0.0679129 12.3391C 0.0679129 12.3391 0.0679139 12.2705 -1.0363e-06 12.2705L 0.0679129 12.3391L 0.27166 12.6134C 0.27166 12.6134 0.271659 12.682 0.339574 12.682C 0.747064 13.0934 1.22247 13.5734 1.83371 13.9849C 2.51286 14.4649 3.32784 14.8077 4.21073 15.2192L 4.27864 15.2192C 5.29737 15.4935 5.97652 15.2877 6.24818 14.3963C 6.51984 13.5734 6.24818 12.682 5.50111 11.7905C 5.36528 11.6534 5.22945 11.5162 5.09362 11.3791C 5.97652 9.93902 6.51984 8.84184 6.7915 8.15611C 7.19899 7.1275 7.53856 6.16748 7.74231 5.27602ZM 4.82196 11.6534C 4.75405 11.7219 4.75405 11.7219 4.75405 11.7905C 4.82196 11.7219 4.82196 11.6534 4.82196 11.6534Z"/>
<path id="path27_fill" d="M 4.62375 4.18124C 4.55575 4.11269 4.41976 4.1127 4.35177 4.1127C 2.92384 4.45542 1.49592 5.14087 0.0679943 6.1005C 0.135991 6.1005 0.135989 6.1005 0.203985 6.1005C 1.63191 5.55214 3.05984 5.14087 4.55576 4.79815C 4.62375 4.7296 4.69175 4.66105 4.69175 4.66105C 4.75974 4.5925 4.75975 4.45542 4.75975 4.38687C 4.75975 4.31833 4.69174 4.24978 4.62375 4.18124ZM 4.41977 1.09672C 3.46782 1.85071 2.51587 2.7418 1.49592 3.90706C 0.475977 5.07233 4.15017e-06 5.62068 4.15017e-06 5.68922C 4.15017e-06 5.75777 0.0679943 5.82632 0.0679943 5.82632C 2.58386 3.49579 4.62375 1.78217 6.18766 0.616904C 6.25566 0.548359 6.32366 0.479812 6.32366 0.411267C 6.32366 0.274178 6.32366 0.205637 6.25567 0.137092C 6.18767 0.068547 6.11967 -1.04591e-06 6.05167 -1.04591e-06C 5.91568 -1.04591e-06 5.37172 0.342722 4.41977 1.09672Z"/>
<path id="path28_fill" d="M 0.27166 10.5562C 0.27166 10.6247 0.27166 10.6247 0.27166 10.5562C 0.203745 11.1733 0.13583 11.5848 0.0679155 11.9276C 0.0679155 12.0648 0.0679155 12.1334 0.0679155 12.2705C 0.0679155 12.3391 0.0679155 12.4077 0.0679155 12.4077C 0.0679155 12.4762 0.0679155 12.4762 0.0679155 12.4077C 0.0679155 12.4077 0.0679152 12.3391 2.59075e-07 12.3391L 0.0679155 12.4077L 0.27166 12.682C 0.27166 12.682 0.27166 12.682 0.339575 12.7505L 0.339575 12.682C 0.747065 13.162 1.22247 13.5734 1.8337 14.0534C 2.51285 14.5334 3.32783 14.8763 4.21073 15.2877C 5.22945 15.562 5.9086 15.2878 6.24818 14.4649C 6.51984 13.642 6.24818 12.7505 5.50111 11.8591C 5.36528 11.7219 5.22945 11.5848 5.02571 11.4476C 5.9086 10.0076 6.45192 8.91041 6.7915 8.22468C 7.19899 7.1275 7.53856 6.16748 7.67439 5.3446C 7.81022 4.52172 7.87814 3.63025 7.87814 2.67023C 7.87814 1.57305 7.67439 0.750174 7.2669 0.338733L 7.19899 0.270156C 6.51984 -0.141285 5.84069 -0.0727034 5.09362 0.407311L 5.09362 0.338733C 4.41447 0.818747 3.73532 1.50448 3.192 2.32736C 2.7166 3.01309 2.30911 3.69883 1.96953 4.45314C 1.42621 5.55032 1.01873 6.71606 0.747065 7.81324C 0.54332 8.97898 0.339575 9.87044 0.27166 10.5562ZM 0.611235 10.899C 0.611235 10.7619 0.67915 10.6933 0.67915 10.5562C 1.08664 8.91041 1.56204 7.26465 2.17328 5.75603C 2.51285 4.93315 2.98826 4.17885 3.46366 3.42454C 3.93907 2.67023 4.5503 2.12164 5.16154 1.64162C 5.70486 1.29876 6.18026 1.23019 6.65567 1.50448C 6.92733 1.84735 7.06316 2.46451 7.06316 3.28739C 6.99524 4.17885 6.92733 5.00172 6.85941 5.75603L 6.85941 5.68746C 6.72358 6.44177 6.45192 7.33322 6.04443 8.36182C 5.97652 8.56755 5.9086 8.77327 5.84069 8.97899C 5.56903 9.66473 5.22945 10.2133 4.82196 10.7619C 4.82196 10.7619 4.75405 10.899 4.5503 11.2419L 4.5503 11.7219C 4.61822 11.7905 4.61822 11.7905 4.68613 11.8591C 4.75405 11.7905 4.75405 11.7219 4.75405 11.7219L 4.75405 11.7905C 4.75405 11.8591 4.68613 11.8591 4.68613 11.9276C 4.82196 12.0648 4.95779 12.2705 5.09362 12.5448C 5.36528 13.0248 5.50111 13.5048 5.36528 14.0534C 5.29737 14.3277 5.16154 14.5334 4.88988 14.602C 4.68613 14.6706 4.48239 14.6706 4.21073 14.6706L 4.21073 14.602C 3.46366 14.4649 2.7166 14.1906 2.03745 13.7106C 1.42622 13.2991 0.81498 12.8191 0.339575 12.4077C 0.339575 12.3391 0.339575 12.2019 0.40749 12.0648C 0.40749 11.9962 0.407489 11.8591 0.475404 11.7905C 0.543319 11.2419 0.611235 10.9676 0.611235 10.899Z"/>
<path id="path29_fill" d="M 0.067917 8.76669C 0.067917 8.69811 0.067917 8.69811 0.067917 8.76669L 0.067917 8.76669ZM 10.3231 0.0578578C 9.30435 0.0578578 8.35354 0.400726 7.33482 0.88074C 6.58775 1.22361 5.84069 1.70362 5.16154 2.25221C 4.14282 3.00652 3.25992 3.89797 2.51286 4.78943C 1.76579 5.68088 1.22247 6.43519 0.882895 7.05235C 0.475405 7.66951 0.203747 8.2181 0.067917 8.56097C 0.067917 8.62954 -2.0726e-06 8.69812 -2.0726e-06 8.69812L -2.0726e-06 8.76669L 0.135831 9.17813C 0.407491 9.93244 0.950809 10.8239 1.62996 11.7839C 2.44494 12.8125 3.32783 13.7726 4.41447 14.664L 4.41447 14.7326L 4.48239 14.7326C 5.77278 15.6926 6.85941 15.8298 7.60648 15.0754C 8.35354 14.3211 8.42146 13.1554 7.74231 11.7153C 7.47065 11.0982 7.06316 10.5496 6.51984 10.1382C 7.53857 9.65814 8.42146 9.04098 9.23644 8.35525C 10.1193 7.53237 10.7985 6.77806 11.3418 6.09232C 11.8172 5.33802 12.2247 4.51513 12.6322 3.62368C 13.0397 2.59508 13.1076 1.70362 12.768 1.15503L 12.7001 1.08646C 12.2247 0.195005 11.4097 -0.147863 10.3231 0.0578578Z"/>
<path id="path30_fill" d="M 4.41511 1.09702C 3.46416 1.85122 2.51322 2.74255 1.49434 3.90813C 0.475472 5.07372 1.93054e-14 5.62222 1.93054e-14 5.69078C 1.93054e-14 5.75935 0.0679289 5.82792 0.0679289 5.82792C 2.58115 3.49675 4.61889 1.78266 6.18116 0.617074C 6.24909 0.54851 6.31701 0.479944 6.31701 0.41138C 6.31701 0.274253 6.317 0.205693 6.24908 0.13713C 6.18115 0.0685658 6.11323 4.1848e-06 6.0453 4.1848e-06C 5.84153 0.0685679 5.36606 0.41138 4.41511 1.09702ZM 4.55096 4.18239C 4.48303 4.11382 4.34719 4.11383 4.27926 4.11383C 2.85284 4.45665 1.42642 5.14228 1.93054e-14 6.10217C 0.0679248 6.10217 0.0679227 6.10217 0.135848 6.10217C 1.56227 5.55366 2.9887 5.14228 4.48304 4.79947C 4.55097 4.7309 4.61889 4.66233 4.61889 4.66233C 4.68681 4.59377 4.68681 4.45664 4.68681 4.38808C 4.68681 4.31951 4.61888 4.25095 4.55096 4.18239Z"/>
<path id="path31_fill" d="M 2.10566 5.73976C 1.49434 6.76821 1.01887 7.59099 0.67925 8.27663C 0.407551 8.96226 0.135845 9.51077 0.0679207 9.92215C 0.0679207 9.99071 0.0679207 9.99071 0.0679207 10.0593C 0.0679207 10.1278 0.0679269 10.1278 2.0729e-06 10.0593C 2.0729e-06 10.0593 2.0729e-06 10.0593 2.0729e-06 9.99072L 2.0729e-06 10.0593L 0.203779 10.4707C 0.611327 11.2249 1.29057 12.0476 2.17359 12.9389C 3.05662 13.8303 4.07549 14.6531 5.23021 15.4758L 5.29814 15.4758C 5.29814 15.4758 5.29814 15.4758 5.29814 15.5444C 6.72456 16.3671 7.81135 16.3671 8.4906 15.4758C 9.16985 14.5845 9.10192 13.4875 8.15098 12.0476C 7.81135 11.4991 7.33588 11.0192 6.79248 10.6078C 7.74343 9.99071 8.62645 9.23651 9.3057 8.48231C 10.1208 7.59098 10.7321 6.69965 11.1397 5.94545C 11.5472 5.19125 11.8868 4.29993 12.1585 3.27147C 12.4982 2.17445 12.4302 1.35168 12.0227 0.803173C 12.0227 0.803173 12.0227 0.803179 12.0227 0.734615C 11.3434 0.0489782 10.4604 -0.156719 9.37363 0.117536L 9.44154 0.117536C 8.42267 0.323227 7.47173 0.734611 6.58871 1.35168C 5.84153 1.83163 5.23021 2.4487 4.55096 2.99721C 3.46416 3.81997 2.71699 4.77987 2.10566 5.73976ZM 4.41511 4.23136C 5.09436 3.54572 5.77361 2.86008 6.58871 2.31157C 7.4038 1.76306 8.2189 1.42025 9.10192 1.21456C 9.84909 1.00887 10.4604 1.14599 11.0038 1.62594C 11.2755 2.03732 11.2755 2.72296 11.0717 3.54572C 10.8 4.43705 10.5283 5.25982 10.1208 6.01402L 10.1208 5.94545C 9.71324 6.63109 9.16985 7.45386 8.42267 8.27663C 8.28682 8.41375 8.15098 8.61944 8.01513 8.75657C 7.47173 9.30508 6.92833 9.78502 6.31701 10.1964C 6.31701 10.1964 6.18116 10.265 5.97739 10.4021C 6.18116 10.6078 6.24908 10.7449 6.31701 10.6764C 6.72456 11.0877 7.06418 11.6362 7.33588 12.3904L 7.33588 12.459C 7.60758 13.1446 7.60757 13.8303 7.20002 14.4474C 6.99625 14.7216 6.72456 14.8587 6.45286 14.8587C 6.18116 14.8587 5.84153 14.7902 5.43399 14.5845C 4.41511 14.1045 3.46417 13.3503 2.58115 12.459C 1.76605 11.6362 1.0868 10.8135 0.475474 10.0593C 0.611323 9.64789 0.815093 9.23652 1.08679 8.75657C 2.10566 7.04248 3.19247 5.53407 4.41511 4.23136Z"/>
<path id="path32_fill" d="M 9.73379 0.448901C 8.28686 -0.149634 6.93327 -0.149634 5.62637 0.448901C 4.59952 1.04744 3.61934 1.92222 2.63916 3.02721C 0.678816 5.23719 -0.161322 7.53924 0.025378 9.97943L 5.393 8.32195L 5.71975 10.2096C 6.13983 11.683 6.88658 12.88 8.00678 13.8929L 9.3137 12.3275C 10.2005 10.9923 10.6206 9.65714 10.6206 8.2759L 15.6615 10.9463C 15.8015 9.8413 15.7082 8.55215 15.2881 7.12487C 14.4946 4.22428 12.6276 2.0143 9.73379 0.448901Z"/>
<path id="path33_fill" d="M 2.32569 24.1037C 2.48981 24.1037 2.62111 24.1568 2.7524 24.263C 2.8837 24.3426 2.91653 24.4754 2.91653 24.6346C 2.91653 24.7939 2.8837 24.9001 2.7524 25.0063C 2.62111 25.1125 2.48981 25.1656 2.32569 25.1656C 2.16157 25.1656 1.99744 25.1125 1.86615 25.0063C 1.73485 24.9001 1.6692 24.7939 1.6692 24.6346C 1.6692 24.4754 1.73485 24.3692 1.86615 24.263C 1.99744 24.1568 2.16157 24.1037 2.32569 24.1037Z"/>
<path id="path34_fill" d="M 5.73942 23.9444C 5.80507 23.9975 5.8379 24.0772 5.8379 24.1834C 5.8379 24.2895 5.80507 24.3692 5.73942 24.4223C 5.67377 24.5019 5.5753 24.5284 5.444 24.5284C 5.31271 24.5284 5.21423 24.5019 5.11576 24.4223C 5.05011 24.3426 5.01729 24.263 5.01729 24.1834C 5.01729 24.1037 5.05011 24.0241 5.11576 23.9444C 5.21423 23.8648 5.31271 23.8383 5.444 23.8383C 5.54248 23.8383 5.64095 23.8648 5.73942 23.9444Z"/>
<path id="path35_fill" d="M 8.62797 25.2186C 8.43102 25.2452 8.29973 25.2717 8.23408 25.2717C 8.03713 25.2717 7.84019 25.1921 7.57759 25.0328C 7.34782 24.847 7.24935 24.6877 7.24935 24.5019C 7.24935 24.2099 7.38064 24.0772 7.67606 24.0772C 7.77454 24.0772 7.90583 24.2364 8.03713 24.555C 8.16843 24.9001 8.36537 25.1125 8.62797 25.2186Z"/>
<path id="path36_fill" d="M 6.46156 21.6873C 6.46156 21.5545 6.49438 21.4484 6.59286 21.3687C 6.72415 21.2891 6.85545 21.236 6.95393 21.236C 7.11805 21.236 7.24935 21.2891 7.34782 21.3687C 7.44629 21.4749 7.51194 21.5545 7.51194 21.6873C 7.51194 21.82 7.44629 21.9262 7.34782 22.0058C 7.24935 22.0855 7.11805 22.112 6.95393 22.112C 6.82263 22.112 6.69133 22.0855 6.59286 22.0058C 6.49438 21.8996 6.46156 21.7935 6.46156 21.6873Z"/>
<path id="path37_fill" d="M 12.2715 5.57465C 12.2715 5.46846 12.3043 5.41537 12.3371 5.36228C 12.3371 5.33573 12.37 5.33573 12.4028 5.30919C 12.5012 5.203 12.5669 5.12337 12.5997 5.09682C 12.6325 5.09682 12.6325 5.07027 12.6654 5.04373C 12.7638 5.22955 12.8295 5.36228 12.8295 5.44192L 12.8295 5.49501C 12.8295 5.68083 12.731 5.78701 12.5341 5.78701C 12.37 5.78701 12.2715 5.70738 12.2715 5.57465Z"/>
<path id="path38_fill" d="M 17.8516 0.318552C 17.6547 0.371643 17.4577 0.477827 17.228 0.584011C 17.0638 0.663649 16.9325 0.71674 16.7684 0.690194C 16.7356 0.690194 16.6699 0.663648 16.6371 0.663648C 16.5386 0.663648 16.473 0.610557 16.473 0.557465C 16.473 0.451281 16.5386 0.345097 16.6371 0.265459C 16.7028 0.212368 16.8012 0.159276 16.8997 0.13273C 17.1295 0.0530919 17.3921 0 17.6875 0C 17.786 0 17.9173 0.0265461 18.0486 0.0530921L 18.147 0.0530921C 18.3768 0.106184 18.5738 0.159276 18.7051 0.185822C 18.5081 0.185822 18.2783 0.212368 18.0486 0.265459C 17.9829 0.292005 17.9173 0.318552 17.8516 0.318552Z"/>
<path id="path39_fill" d="M 13.1577 5.14991C 12.928 5.01718 12.8295 4.77827 12.928 4.40663C 13.0264 4.03498 13.1577 3.76952 13.2234 3.63679L 13.2234 3.63678C 13.4532 3.34478 13.6829 3.05278 13.9783 2.81387C 14.2081 2.6015 14.5035 2.38913 14.799 2.17677C 15.16 1.93785 15.4883 1.69894 15.8165 1.51312L 15.915 1.46003L 15.915 1.46002C 16.1119 1.35384 16.3089 1.24766 16.5058 1.16802C 16.8997 1.00875 17.3264 0.876016 17.786 0.769833C 17.786 0.769833 17.8188 0.743287 17.8844 0.743287C 17.9829 0.716741 18.1142 0.716741 18.2783 0.716741L 18.7509 0.584011L 17.8217 1.46003C 17.7232 1.53966 17.3264 1.91483 17.228 1.99447C 17.1951 2.02102 17.0967 2.13923 17.0638 2.16578C 16.9982 2.24541 16.8341 2.35839 16.7684 2.43803C 16.6699 2.51766 16.6043 2.52186 16.5058 2.62805C 16.4074 2.73423 16.3089 2.86696 16.2104 3.02624C 15.8822 3.47752 15.6196 4.08808 15.3898 4.83136C 15.357 4.85791 15.357 4.88445 15.357 4.93755C 15.3241 4.99064 15.3241 5.07027 15.2913 5.12337C 15.2913 5.17646 15.357 5.2309 15.2585 5.2561C 15.2585 5.36228 15.2913 5.33573 15.2913 5.44192L 15.2913 5.99565C 15.2585 6.20802 15.16 6.74267 15.16 7.03467C 15.1928 7.56559 15.16 7.99033 15.0944 8.25579C 14.9631 8.70707 14.7661 9.26453 14.5035 9.98127C 14.4379 10.1671 14.3722 10.3795 14.3394 10.5918C 14.2738 10.8042 14.2409 11.0697 14.2409 11.3617C 14.2081 11.6802 14.2081 11.9191 14.2081 12.1315C 14.2081 12.3173 14.2409 12.5562 14.3394 12.7686C 14.3394 12.7951 14.3722 12.7951 14.3722 12.8217C 14.4707 13.0606 14.5035 13.2995 14.5035 13.4853C 14.5035 13.7243 14.4707 13.8835 14.4051 14.0163C 14.3066 14.149 14.2081 14.2021 14.1096 14.2286C 14.0112 14.2552 13.9127 14.2286 13.8799 14.1755C 13.8142 14.1224 13.7814 14.0693 13.7814 14.0428C 13.7486 14.0163 13.7486 13.9897 13.7486 13.9632L 13.7486 14.0163C 13.7814 14.1224 13.847 14.3614 14.0112 14.7064C 14.1425 15.0515 14.2081 15.2905 14.2081 15.4232C 14.2081 15.5559 14.2081 15.6621 14.1753 15.7683C 14.1096 15.8745 13.9783 15.9541 13.8142 15.9541C 13.8799 16.0868 13.9127 16.2461 13.9455 16.4054C 14.0112 16.6708 14.044 16.9894 14.0768 17.3079L 14.0768 17.308C 14.1096 17.361 14.1096 17.4407 14.1096 17.4938C 14.1096 17.6265 14.1425 17.7327 14.1425 17.8654L 14.1425 18.0247C 14.1425 18.5291 14.1096 19.0334 14.0112 19.5378C 13.9127 20.0953 13.8142 20.5731 13.7486 20.9447C 13.6501 21.3164 13.5845 21.8739 13.5516 22.6171C 13.5516 22.803 13.5188 23.0419 13.5188 23.3073C 13.5188 23.7321 13.6173 24.0506 13.7814 24.2364C 13.9455 24.3957 14.1753 24.4754 14.4707 24.4754C 14.6348 24.4754 14.8646 24.2895 15.1929 23.8913C 15.4554 23.5197 15.7837 23.3073 16.1448 23.3073C 16.3417 23.3073 16.5058 23.387 16.5715 23.4932C 16.6043 23.5462 16.6371 23.6259 16.6371 23.7055C 16.6371 23.7852 16.6043 23.8383 16.5715 23.8913C 16.5058 23.9975 16.3417 24.1037 16.1119 24.2099C 15.7509 24.3426 15.5867 24.4754 15.6196 24.6081C 15.6196 24.7408 15.7509 24.7674 16.0135 24.6877C 16.1448 24.6612 16.3417 24.6346 16.5386 24.6081L 17.0967 24.6081C 17.5562 24.6081 17.7532 24.7408 17.7532 25.0063C 17.7203 25.2717 17.589 25.3779 17.3264 25.3248C 17.031 25.2717 16.7684 25.1921 16.5386 25.0859L 16.5058 25.0859C 16.2761 25.0063 16.0791 25.0063 15.9806 25.1125L 16.7028 25.4576C 17.5234 25.8557 17.8516 26.0947 17.7532 26.1478L 17.5562 26.2008C 17.6547 26.4398 18.6394 27.9715 20.0323 28.1918L 0 28.1918C 0.0328244 28.1918 3.76996 27.7936 3.86843 27.7671C 3.96691 27.7405 4.2295 27.6874 4.68904 27.5812C 5.14858 27.475 5.60813 27.3423 6.10049 27.1299C 6.59286 26.9176 7.0524 26.7052 7.54477 26.4928C 6.98675 26.4398 6.65851 26.3867 6.49439 26.3336C 6.16614 26.2274 6.00202 26.0947 6.00202 25.9088C 6.00202 25.8027 6.06767 25.6699 6.19896 25.5372C 6.33026 25.3779 6.46156 25.2983 6.62568 25.2983C 6.75698 25.2983 6.88828 25.3514 7.08522 25.4576C 7.1837 25.4576 7.24935 25.5106 7.34782 25.5637C 7.38064 25.5637 7.38064 25.5637 7.41347 25.5903C 7.54477 25.6965 7.70889 25.7496 7.84018 25.8027L 7.90583 25.8027C 8.23408 25.8027 8.5295 25.723 8.75927 25.5637C 8.98904 25.4045 9.12034 25.2186 9.15316 25.0063C 9.05469 24.555 9.02186 24.1568 9.02186 23.7852C 9.02186 23.6259 9.02186 23.4932 9.05469 23.3339C 9.05469 23.2277 9.05469 23.1215 9.08751 23.0153C 9.18598 22.4048 9.35011 21.7411 9.6127 21.0509C 10.0066 20.0422 10.2035 19.1927 10.2035 18.5556C 10.2035 18.2636 10.1707 17.892 10.1051 17.3876C 10.1051 17.3345 10.0722 17.2549 10.0722 17.2018C 10.0394 17.0159 10.0066 16.8036 9.97377 16.5647C 9.90812 16.2461 9.84247 15.9807 9.80965 15.7152L 9.80965 15.5825C 9.744 15.1312 9.71117 14.7861 9.71117 14.5206C 9.71117 13.9101 9.77682 13.2995 9.97377 12.689C 10.2035 11.866 10.6303 11.0962 11.1883 10.3529C 11.7463 9.60963 12.1074 9.07871 12.2715 8.76016C 12.3371 8.62743 12.4028 8.46815 12.4684 8.33543C 12.5669 8.12306 12.6654 7.91069 12.731 7.67178C 12.8295 7.32668 12.8951 6.95504 12.928 6.55685C 12.9936 6.05247 13.0593 5.60119 13.1906 5.14991L 13.1577 5.14991Z"/>
<path id="path40_fill" d="M -5.0086e-07 0.84947C -5.0086e-07 0.9822 2.49452e-07 1.06184 0.0328246 1.11493C 0.065649 1.16802 0.164122 1.19457 0.29542 1.19457L 0.328243 1.19457C 0.426717 1.16802 0.459541 1.03529 0.459541 0.796378C 0.459541 0.584011 0.426717 0.371643 0.328243 0.159275C 0.328243 0.132729 0.29542 0.106184 0.29542 0.0796378L 0.29542 2.02529e-07C 0.0984732 0.292006 -5.0086e-07 0.584011 -5.0086e-07 0.84947Z"/>
<path id="path41_fill" d="M 8.28798 2.98476C 8.15668 3.58545 7.97633 4.15027 7.68091 4.77827C 7.09007 5.92505 6.79465 6.77149 6.79465 7.26297C 6.79465 7.4268 6.82748 7.69984 6.89312 8.0548C 6.95877 8.40975 6.9916 8.7101 6.9916 8.95584C 6.9916 9.55654 6.79465 9.99341 6.40076 10.2665C 6.23664 10.3757 6.13816 10.4576 6.03969 10.5668C 5.87557 10.7306 5.80992 10.8671 5.80992 11.0037C 5.80992 11.0856 5.84274 11.2767 5.90839 11.5225C 5.97404 11.7955 6.00686 11.9593 6.00686 12.0412C 6.00686 12.2051 5.97404 12.3962 5.87557 12.5873C 5.77709 12.8331 5.61297 12.9696 5.41603 12.9696C 5.3832 12.9696 5.31755 12.9423 5.21908 12.8877C 5.1206 12.8331 5.08778 12.8058 5.05496 12.8058C 4.82518 12.8058 4.69389 12.8877 4.62824 13.0242C 4.59542 13.1334 4.56259 13.3245 4.56259 13.6522C 4.56259 14.2529 4.75954 14.9628 5.12061 15.8092C 5.12061 15.8366 5.15343 15.8639 5.15343 15.9185C 5.54732 16.7922 5.74427 17.3383 5.74427 17.5294C 5.74427 17.939 5.61297 18.4305 5.35038 19.0312C 5.02213 19.7957 4.62824 20.1779 4.1687 20.1779C 3.84045 20.1779 3.67633 19.9868 3.70916 19.6319C 3.74198 19.3588 3.67633 19.1677 3.57786 19.1131C 3.54503 19.0858 3.51221 19.0858 3.47938 19.0858C 3.31526 19.0858 3.18397 19.1677 3.11832 19.3588C 3.08549 19.4953 3.05267 19.6865 3.05267 19.9868C 3.05267 20.2326 3.08549 20.5602 3.18397 20.9971C 3.28244 21.434 3.31526 21.7616 3.31526 22.0073C 3.31526 22.4715 3.24962 22.8811 3.11832 23.236C 2.9542 23.7002 2.6916 23.946 2.33053 23.946C 2.03511 23.946 1.80534 23.8367 1.60839 23.591C 1.44427 23.3999 1.37862 23.2087 1.3458 22.963C 1.31297 23.1541 1.31298 23.318 1.31298 23.4818C 1.31298 23.9186 1.37863 24.3828 1.4771 24.8743C 1.44427 25.1474 1.28015 25.3385 1.05038 25.5023C 0.787785 25.6934 0.459541 25.7754 0.0656488 25.7754C 0.0328244 25.7754 0.0328254 25.7754 1.00172e-06 25.7754C 0.196947 25.8573 0.361069 25.8846 0.492367 25.8846C 0.722138 25.8846 0.951905 25.83 1.18168 25.748C 1.31297 25.6934 1.44428 25.6115 1.57557 25.5023C 1.6084 25.475 1.64122 25.4477 1.70687 25.3658C 1.77252 25.2839 1.87099 25.1474 1.96946 24.8743C 2.03511 24.6013 2.10076 24.492 2.10076 24.492C 2.13358 24.492 2.19923 24.5193 2.33053 24.6013C 2.46183 24.6832 2.59313 24.7105 2.6916 24.7105C 2.92137 24.7105 3.15114 24.574 3.38091 24.2736C 3.57786 24.0006 3.67633 23.7275 3.70916 23.4545C 3.74198 23.2087 3.9061 23.0449 4.13587 22.963C 4.43129 22.9084 4.66106 22.8265 4.79236 22.7446C 5.15343 22.5261 5.3832 22.1439 5.48167 21.5978C 5.48167 21.4066 5.5145 21.2428 5.5145 21.1063C 5.5145 20.8059 5.54732 20.5056 5.61297 20.2326C 5.61297 20.2053 5.61297 20.2053 5.61297 20.2053C 5.71145 19.823 5.90839 19.468 6.20381 19.1677C 6.729 18.567 7.05724 17.7206 7.18854 16.6284C 7.18854 16.5465 7.18854 16.4919 7.18854 16.4099C 7.18854 16.2734 7.15572 16.1096 7.15572 15.9731C 7.15572 15.8912 7.15572 15.8366 7.15572 15.7546C 7.12289 15.3724 7.05724 15.0174 6.9916 14.6898C 6.95877 14.4986 6.89312 14.3348 6.8603 14.171C 7.05724 14.1437 7.18854 14.0891 7.22137 13.9525C 7.25419 13.816 7.28702 13.6795 7.28702 13.543C 7.28702 13.3792 7.22137 13.1061 7.02442 12.6965C 6.82747 12.3689 6.729 12.0958 6.729 11.9593L 6.729 11.8774C 6.729 11.932 6.729 11.9593 6.76183 12.0139C 6.79465 12.0412 6.82748 12.0958 6.89312 12.1778C 6.95877 12.2324 7.02442 12.2597 7.15572 12.2324C 7.28701 12.2051 7.38549 12.1232 7.45114 11.9866C 7.51679 11.8501 7.58244 11.6317 7.58244 11.3859C 7.58244 11.1675 7.51679 10.8945 7.41831 10.6214C 7.41831 10.5941 7.38549 10.5941 7.38549 10.5668C 7.28702 10.2938 7.25419 10.048 7.25419 9.80228C 7.25419 9.55654 7.25419 9.2835 7.28702 8.92854C 7.28702 8.57358 7.31984 8.27323 7.38549 8.00019C 7.45114 7.72714 7.51679 7.4814 7.58244 7.26297C 7.91068 6.44384 8.10763 5.78853 8.23892 5.26975C 8.30457 4.9421 8.33739 4.47792 8.33739 3.84992C 8.33739 3.52227 8.28798 3.2578 8.28798 2.98476ZM 7.41831 1.33792C 7.64808 0.655306 7.91068 0.191129 8.14045 -1.66653e-06C 7.97633 0.109216 7.74656 0.43687 7.38549 0.982958C 7.09007 1.41983 6.79465 1.63826 6.53205 1.63826C 6.30228 1.63826 6.10534 1.58365 6.00686 1.50174C 5.90839 1.39252 5.80992 1.20139 5.71144 0.92835L 5.71144 0.955652C 5.61297 1.36522 5.67862 1.63826 5.97404 1.80209C 5.84274 2.32087 5.74427 2.86696 5.67862 3.46766C 5.6458 3.90453 5.54732 4.3414 5.44885 4.77827C 5.54732 4.55983 5.67862 4.3414 5.84274 4.12296C 5.97404 3.90453 6.23664 3.57687 6.56488 3.14C 6.92595 2.59392 7.18854 2.02053 7.41831 1.33792Z"/>
<path id="path42_fill" d="M 9.91297 0C 9.71602 0 9.58472 0.0273036 9.45343 0.054608C 9.38778 0.054608 9.35495 0.081914 9.32213 0.081914C 8.79694 0.191132 8.3374 0.327653 7.87786 0.546088C 7.64809 0.655305 7.41831 0.764522 7.22137 0.87374L 7.09007 0.928348C 6.729 1.17409 6.33511 1.41983 5.94122 1.69287C 5.58015 1.93861 5.28473 2.18435 5.02213 2.4574C 4.69389 2.75774 4.43129 3.0854 4.1687 3.44036C 3.97175 3.68609 3.84045 4.04105 3.74198 4.45062C 3.84045 4.72366 3.93893 4.91479 4.0374 5.02401C 4.13587 5.10592 4.33282 5.16053 4.56259 5.16053C 4.82518 5.16053 5.12061 4.9421 5.41603 4.50523C 5.77709 3.95914 6.03969 3.63148 6.17099 3.52227C 5.90839 3.7407 5.67862 4.17757 5.44885 4.86018C 5.21908 5.54279 4.92366 6.14349 4.59542 6.60766C 4.23435 7.07184 4.00458 7.39949 3.87328 7.59062C 3.70916 7.80906 3.57786 8.02749 3.47939 8.24593C 3.41374 8.51897 3.31526 8.76471 3.18397 9.03776C 3.11832 9.20158 3.05267 9.36541 2.9542 9.52923C 2.75725 9.91149 2.33053 10.5395 1.70687 11.3859C 1.05038 12.2597 0.59084 13.1607 0.328245 14.0891C 0.131299 14.799 1.00172e-06 15.5089 1.00172e-06 16.2461C 1.00172e-06 16.5465 0.0328234 16.956 0.131297 17.4748C 0.131297 17.5294 0.131299 17.584 0.164123 17.6386C 0.262596 17.8844 0.36107 18.0482 0.426719 18.1301C 0.558017 18.2939 0.754959 18.3759 1.01755 18.3759C 1.24733 18.3759 1.41145 18.212 1.54275 17.8844C 1.64122 17.6659 1.67404 17.4475 1.67404 17.2564C 1.67404 17.0379 1.6084 16.683 1.4771 16.1369C 1.3458 15.5908 1.28015 15.1539 1.28015 14.8536C 1.28015 14.6078 1.31297 14.3621 1.3458 14.1164C 1.37862 13.8433 1.44427 13.5703 1.54275 13.2972C 1.80534 12.5327 2.19923 12.1505 2.72442 12.1505C 2.85572 12.1505 2.98702 12.2324 3.05267 12.3962C 3.11832 12.56 3.24961 12.6419 3.38091 12.6419C 3.7748 12.6419 4.0374 12.287 4.1687 11.5498C 4.20152 11.304 4.1687 10.9218 4.07022 10.403C 3.93893 9.88419 3.93893 9.36541 4.07022 8.90123C 4.20152 8.40975 4.39847 8.0548 4.69389 7.80906C 4.98931 7.56332 5.2519 7.26297 5.48167 6.90801C 5.71144 6.55306 5.84274 6.25271 5.90839 6.03427C 5.97404 5.81584 6.20381 5.29705 6.56488 4.50523C 6.92595 3.68609 7.25419 3.1127 7.54961 2.70313C 7.64809 2.512 7.77938 2.37548 7.91068 2.21166C 8.00915 2.07514 8.14045 1.96591 8.27175 1.884C 8.3374 1.80209 8.40304 1.72018 8.46869 1.63826C 8.50152 1.58365 8.53434 1.55635 8.56717 1.52905C 8.66564 1.41983 8.79694 1.33792 8.89541 1.2287L 10.4053 0.0273061L 9.91297 0ZM 5.94122 2.86696C 5.21908 3.87722 4.85801 4.3687 4.82519 4.3687C 4.69389 4.3687 4.59541 4.3414 4.56259 4.3141C 4.52977 4.25949 4.49694 4.15027 4.49694 3.95914C 4.49694 3.57688 4.82519 3.0854 5.44885 2.4574C 6.10534 1.80209 6.76183 1.39252 7.41831 1.20139C 6.95877 1.58365 6.46641 2.15705 5.94122 2.86696Z"/>
<path id="path43_fill" d="M 0.328244 3.16731C 0.361068 3.16731 0.754962 2.67583 1.44427 1.66557C 1.96946 0.955654 2.46183 0.38226 2.92137 -1.66653e-06C 2.26488 0.191129 1.6084 0.600697 0.951908 1.256C 0.328244 1.884 0 2.37548 0 2.75774C 0 2.94887 0.0328234 3.05809 0.0656478 3.1127C 0.0984722 3.16731 0.196946 3.16731 0.328244 3.16731Z"/>
<path id="path44_fill" d="M 0.248847 1.50095C 0.435483 1.63147 0.622119 1.76199 0.870967 1.76199C 1.11981 1.76199 1.30645 1.69673 1.49309 1.50095C 1.67972 1.30517 1.74194 1.1094 1.74194 0.848363C 1.74194 0.587328 1.67972 0.391554 1.49309 0.261036C 1.30645 0.0652598 1.11981 0 0.870967 0C 0.622119 0 0.435483 0.0652598 0.248847 0.261036C 0.062211 0.391554 4.7464e-07 0.587328 4.7464e-07 0.848363C 4.7464e-07 1.1094 0.062211 1.30517 0.248847 1.50095Z"/>
<path id="path45_fill" d="M 2.61291 1.35925C 2.61291 0.981678 2.4636 0.679623 2.23963 0.453082C 1.94102 0.151027 1.6424 0 1.26912 0C 0.895853 0 0.597237 0.151027 0.373274 0.453082C 0.0746566 0.679623 2.27827e-06 0.981678 2.27827e-06 1.35925C 2.27827e-06 1.73682 0.149311 2.03887 0.373274 2.26541C 0.597237 2.49195 0.970507 2.64298 1.26912 2.64298C 1.56774 2.64298 1.94102 2.49195 2.23963 2.26541C 2.4636 2.03887 2.61291 1.73682 2.61291 1.35925Z"/>
<path id="path46_fill" d="M 0.946283 0.482915C 0.946283 0.344939 0.912487 0.241458 0.8111 0.137976C 0.709712 0.0344939 0.608325 6.5792e-08 0.473141 6.5792e-08C 0.337958 6.5792e-08 0.236571 0.0344939 0.135183 0.137976C 0.0337956 0.241458 5.15683e-07 0.344939 5.15683e-07 0.482915C 5.15683e-07 0.620891 0.0337956 0.724373 0.135183 0.827855C 0.236571 0.931337 0.337958 0.965831 0.473141 0.965831C 0.608325 0.965831 0.709712 0.931337 0.8111 0.827855C 0.912487 0.724373 0.946283 0.620891 0.946283 0.482915Z"/>
</defs>
</svg>
