<svg width="36" height="40" viewBox="0 0 36 40" version="1.1" xmlns="http://www.w3.org/2000/svg" xmlns:xlink="http://www.w3.org/1999/xlink">
<title>Page 1</title>
<desc>Created using Figma</desc>
<g id="Canvas" transform="translate(-4921 -241)">
<g id="Page 1">
<g id="Group 5">
<g id="Fill 1">
<use xlink:href="#path0_fill" transform="translate(4922.16 250.083)" fill="#FFFFFF"/>
</g>
<g id="Fill 3">
<use xlink:href="#path1_fill" transform="translate(4921 248.931)" fill="#41C1F1"/>
</g>
</g>
<g id="Group 14">
<g id="Group 8">
<mask id="mask0_outline" mask-type="alpha">
<g id="Clip 7">
<use xlink:href="#path2_fill" transform="translate(4942.02 250.492)" fill="#FFFFFF"/>
</g>
</mask>
<g id="Fill 6" mask="url(#mask0_outline)">
<use xlink:href="#path3_fill" transform="translate(4942.02 250.492)" fill="#6E568D"/>
</g>
</g>
<g id="Fill 9">
<use xlink:href="#path4_fill" transform="translate(4925.93 254.765)" fill="#101113"/>
</g>
<g id="Group 13">
<mask id="mask1_outline" mask-type="alpha">
<g id="Clip 12">
<use xlink:href="#path5_fill" transform="translate(4922.99 251.238)" fill="#FFFFFF"/>
</g>
</mask>
<g id="Fill 11" mask="url(#mask1_outline)">
<use xlink:href="#path6_fill" transform="translate(4922.99 251.238)" fill="#FE5767"/>
</g>
</g>
</g>
<g id="Group 17">
<mask id="mask2_outline" mask-type="alpha">
<g id="Clip 16">
<use xlink:href="#path7_fill" transform="translate(4928.81 253.481)" fill="#FFFFFF"/>
</g>
</mask>
<g id="Fill 15" mask="url(#mask2_outline)">
<use xlink:href="#path8_fill" transform="translate(4922.38 253.481)" fill="#FEC401"/>
</g>
</g>
<g id="Group 61">
<g id="Fill 18">
<use xlink:href="#path9_fill" transform="translate(4928.75 249.472)" fill="#FE5767"/>
</g>
<g id="Fill 20">
<use xlink:href="#path10_fill" transform="translate(4943.03 247.588)" fill="#FE5767"/>
</g>
<g id="Fill 22">
<use xlink:href="#path11_fill" transform="translate(4944.33 248.683)" fill="#101113"/>
</g>
<g id="Fill 24">
<use xlink:href="#path12_fill" transform="translate(4945.95 248.383)" fill="#FE5767"/>
</g>
<g id="Fill 26">
<use xlink:href="#path13_fill" transform="translate(4947.13 249.338)" fill="#101113"/>
</g>
<g id="Fill 28">
<use xlink:href="#path14_fill" transform="translate(4925.92 244.298)" fill="#101113"/>
</g>
<g id="Fill 30">
<use xlink:href="#path15_fill" transform="translate(4934.24 241.875)" fill="#101113"/>
</g>
<g id="Fill 32">
<use xlink:href="#path16_fill" transform="translate(4926.22 247.303)" fill="#2EBCB4"/>
</g>
<g id="Fill 34">
<use xlink:href="#path17_fill" transform="translate(4932.33 244.874)" fill="#2EBCB4"/>
</g>
<g id="Fill 36">
<use xlink:href="#path18_fill" transform="translate(4927.79 248.848)" fill="#FFFFFF"/>
</g>
<g id="Fill 38">
<use xlink:href="#path19_fill" transform="translate(4933.9 246.421)" fill="#FFFFFF"/>
</g>
<g id="Fill 40">
<use xlink:href="#path20_fill" transform="translate(4933.6 259.266)" fill="#FFFFFF"/>
</g>
<g id="Fill 42">
<use xlink:href="#path21_fill" transform="translate(4928.74 250.364)" fill="#101113"/>
</g>
<g id="Fill 44">
<use xlink:href="#path22_fill" transform="translate(4935.39 247.637)" fill="#101113"/>
</g>
<g id="Group 57">
<mask id="mask3_outline" mask-type="alpha">
<g id="Clip 56">
<use xlink:href="#path23_fill" transform="translate(4922.27 266.658)" fill="#FFFFFF"/>
</g>
</mask>
<g id="Fill 55" mask="url(#mask3_outline)">
<use xlink:href="#path24_fill" transform="translate(4911.13 266.658)" fill="#268C88"/>
</g>
</g>
<g id="Group 60">
<mask id="mask4_outline" mask-type="alpha">
<g id="Clip 59">
<use xlink:href="#path25_fill" transform="translate(4922.26 266.61)" fill="#FFFFFF"/>
</g>
</mask>
<g id="Fill 58" mask="url(#mask4_outline)">
<use xlink:href="#path26_fill" transform="translate(4911.13 266.611)" fill="#2EBCB4"/>
</g>
</g>
</g>
<g id="Group 70">
<g id="Group 64">
<mask id="mask5_outline" mask-type="alpha">
<g id="Clip 63">
<use xlink:href="#path27_fill" transform="translate(4951.91 246.953)" fill="#FFFFFF"/>
</g>
</mask>
<g id="Fill 62" mask="url(#mask5_outline)">
<use xlink:href="#path28_fill" transform="translate(4951.91 246.953)" fill="#6E568D"/>
</g>
</g>
<g id="Fill 65">
<use xlink:href="#path29_fill" transform="translate(4952.07 247.705)" fill="#533A74"/>
</g>
<g id="Group 69">
<mask id="mask6_outline" mask-type="alpha">
<g id="Clip 68">
<use xlink:href="#path30_fill" transform="translate(4954.92 247.002)" fill="#FFFFFF"/>
</g>
</mask>
<g id="Fill 67" mask="url(#mask6_outline)">
<use xlink:href="#path31_fill" transform="translate(4954.92 246.916)" fill="#533A74"/>
</g>
</g>
</g>
<g id="Group 80">
<g id="Group 73">
<mask id="mask7_outline" mask-type="alpha">
<g id="Clip 72">
<use xlink:href="#path32_fill" transform="translate(4927.13 269.594)" fill="#FFFFFF"/>
</g>
</mask>
<g id="Fill 71" mask="url(#mask7_outline)">
<use xlink:href="#path33_fill" transform="translate(4926.61 269.594)" fill="#6E568D"/>
</g>
</g>
<g id="Group 76">
<mask id="mask8_outline" mask-type="alpha">
<g id="Clip 75">
<use xlink:href="#path34_fill" transform="translate(4929.66 277.741)" fill="#FFFFFF"/>
</g>
</mask>
<g id="Fill 74" mask="url(#mask8_outline)">
<use xlink:href="#path35_fill" transform="translate(4928.61 277.742)" fill="#533A74"/>
</g>
</g>
<g id="Group 79">
<mask id="mask9_outline" mask-type="alpha">
<g id="Clip 78">
<use xlink:href="#path36_fill" transform="translate(4928.81 277.215)" fill="#FFFFFF"/>
</g>
</mask>
<g id="Fill 77" mask="url(#mask9_outline)">
<use xlink:href="#path37_fill" transform="translate(4927.82 277.215)" fill="#533A74"/>
</g>
</g>
</g>
<g id="Group 178">
<g id="Fill 81">
<use xlink:href="#path38_fill" transform="translate(4931.18 270.814)" fill="#634E81"/>
</g>
<g id="Fill 83">
<use xlink:href="#path39_fill" transform="translate(4933.66 270.094)" fill="#634E81"/>
</g>
<g id="Fill 85">
<use xlink:href="#path40_fill" transform="translate(4932.32 270.005)" fill="#634E81"/>
</g>
<g id="Fill 87">
<use xlink:href="#path41_fill" transform="translate(4933.19 271.239)" fill="#634E81"/>
</g>
<g id="Fill 89">
<use xlink:href="#path42_fill" transform="translate(4934.45 271.646)" fill="#634E81"/>
</g>
<g id="Fill 91">
<use xlink:href="#path42_fill" transform="translate(4934.22 273.618)" fill="#634E81"/>
</g>
<g id="Fill 93">
<use xlink:href="#path43_fill" transform="translate(4933.74 272.284)" fill="#634E81"/>
</g>
<g id="Fill 95">
<use xlink:href="#path44_fill" transform="translate(4934.94 272.74)" fill="#634E81"/>
</g>
<g id="Fill 97">
<use xlink:href="#path45_fill" transform="translate(4933.05 273.122)" fill="#634E81"/>
</g>
<g id="Fill 99">
<use xlink:href="#path46_fill" transform="translate(4932.15 271.921)" fill="#634E81"/>
</g>
<g id="Fill 101">
<use xlink:href="#path40_fill" transform="translate(4931.7 273.18)" fill="#634E81"/>
</g>
<g id="Fill 103">
<use xlink:href="#path47_fill" transform="translate(4930.51 272.105)" fill="#634E81"/>
</g>
<g id="Fill 105">
<use xlink:href="#path48_fill" transform="translate(4930.05 275.23)" fill="#634E81"/>
</g>
<g id="Fill 107">
<use xlink:href="#path49_fill" transform="translate(4928.65 276.114)" fill="#634E81"/>
</g>
<g id="Group 111">
<mask id="mask10_outline" mask-type="alpha">
<g id="Clip 110">
<use xlink:href="#path50_fill" transform="translate(4927.41 275.918)" fill="#FFFFFF"/>
</g>
</mask>
<g id="Fill 109" mask="url(#mask10_outline)">
<use xlink:href="#path51_fill" transform="translate(4927.41 275.918)" fill="#634E81"/>
</g>
</g>
<g id="Fill 112">
<use xlink:href="#path52_fill" transform="translate(4928.2 275.483)" fill="#634E81"/>
</g>
<g id="Fill 116">
<use xlink:href="#path53_fill" transform="translate(4927.97 273.983)" fill="#634E81"/>
</g>
<g id="Fill 118">
<use xlink:href="#path54_fill" transform="translate(4929.28 273.833)" fill="#634E81"/>
</g>
<g id="Fill 120">
<use xlink:href="#path49_fill" transform="translate(4929.47 272.603)" fill="#634E81"/>
</g>
<g id="Fill 122">
<use xlink:href="#path55_fill" transform="translate(4931.26 274.459)" fill="#634E81"/>
</g>
<g id="Fill 124">
<use xlink:href="#path56_fill" transform="translate(4930.38 273.864)" fill="#634E81"/>
</g>
<g id="Fill 126">
<use xlink:href="#path57_fill" transform="translate(4929.47 275.172)" fill="#634E81"/>
</g>
<g id="Fill 128">
<use xlink:href="#path58_fill" transform="translate(4946.16 264.871)" fill="#634E81"/>
</g>
<g id="Fill 130">
<use xlink:href="#path59_fill" transform="translate(4946.58 263.138)" fill="#634E81"/>
</g>
<g id="Fill 132">
<use xlink:href="#path60_fill" transform="translate(4947.64 262.758)" fill="#634E81"/>
</g>
<g id="Fill 134">
<use xlink:href="#path61_fill" transform="translate(4946.84 262.002)" fill="#634E81"/>
</g>
<g id="Fill 136">
<use xlink:href="#path62_fill" transform="translate(4945.71 262.344)" fill="#634E81"/>
</g>
<g id="Fill 138">
<use xlink:href="#path63_fill" transform="translate(4945.88 263.647)" fill="#634E81"/>
</g>
<g id="Fill 140">
<use xlink:href="#path62_fill" transform="translate(4946.14 261.491)" fill="#634E81"/>
</g>
<g id="Fill 142">
<use xlink:href="#path64_fill" transform="translate(4951.91 251.713)" fill="#634E81"/>
</g>
<g id="Fill 144">
<use xlink:href="#path65_fill" transform="translate(4951.33 254.551)" fill="#634E81"/>
</g>
<g id="Fill 146">
<use xlink:href="#path66_fill" transform="translate(4947.99 261.599)" fill="#634E81"/>
</g>
<g id="Fill 148">
<use xlink:href="#path67_fill" transform="translate(4946.89 260.596)" fill="#634E81"/>
</g>
<g id="Fill 150">
<use xlink:href="#path68_fill" transform="translate(4948.82 260.642)" fill="#634E81"/>
</g>
<g id="Fill 152">
<use xlink:href="#path69_fill" transform="translate(4949.18 253.527)" fill="#634E81"/>
</g>
<g id="Fill 154">
<use xlink:href="#path70_fill" transform="translate(4950.54 252.451)" fill="#634E81"/>
</g>
<g id="Fill 156">
<use xlink:href="#path71_fill" transform="translate(4950.58 255.752)" fill="#634E81"/>
</g>
<g id="Fill 158">
<use xlink:href="#path71_fill" transform="translate(4952.44 254.115)" fill="#634E81"/>
</g>
<g id="Fill 160">
<use xlink:href="#path72_fill" transform="translate(4950.31 256.64)" fill="#634E81"/>
</g>
<g id="Fill 162">
<use xlink:href="#path73_fill" transform="translate(4950.18 254.551)" fill="#634E81"/>
</g>
<g id="Fill 164">
<use xlink:href="#path74_fill" transform="translate(4950.82 256.889)" fill="#634E81"/>
</g>
<g id="Fill 166">
<use xlink:href="#path75_fill" transform="translate(4946.08 266.258)" fill="#634E81"/>
</g>
<g id="Fill 168">
<use xlink:href="#path70_fill" transform="translate(4949.45 259.675)" fill="#634E81"/>
</g>
<g id="Fill 170">
<use xlink:href="#path76_fill" transform="translate(4951.32 253.131)" fill="#634E81"/>
</g>
<g id="Fill 172">
<use xlink:href="#path77_fill" transform="translate(4947.85 260.26)" fill="#634E81"/>
</g>
<g id="Fill 174">
<use xlink:href="#path78_fill" transform="translate(4952.69 253.131)" fill="#634E81"/>
</g>
<g id="Fill 176">
<use xlink:href="#path79_fill" transform="translate(4934.68 260.753)" fill="#FFFFFF"/>
</g>
</g>
</g>
</g>
<defs>
<path id="path0_fill" fill-rule="evenodd" d="M 14.9959 29.6427C 6.71369 29.6427 0 23.0072 0 14.8214C 0 6.63632 6.71369 0 14.9959 0C 23.2781 0 29.9918 6.63632 29.9918 14.8214C 29.9918 23.0072 23.2781 29.6427 14.9959 29.6427Z"/>
<path id="path1_fill" fill-rule="evenodd" d="M 16.1595 30.7946C 7.87726 30.7946 1.16357 24.159 1.16357 15.9732C 1.16357 7.7882 7.87726 1.15189 16.1595 1.15189C 24.4417 1.15189 31.1553 7.7882 31.1553 15.9732C 31.1553 24.159 24.4417 30.7946 16.1595 30.7946ZM 16.1601 0C 7.24962 0 0 7.16524 0 15.9721C 0 24.7789 7.24962 31.9441 16.1601 31.9441C 25.0707 31.9441 32.3203 24.7789 32.3203 15.9721C 32.3203 7.16524 25.0707 0 16.1601 0Z"/>
<path id="path2_fill" fill-rule="evenodd" d="M 9.54046 18.5687C 9.93001 17.2492 10.1389 15.8535 10.1389 14.4096C 10.1389 12.7397 11.3508 10.5383 12.7852 8.11965L 12.7852 0L 0 0L 0 18.5687L 9.54046 18.5687Z"/>
<path id="path3_fill" fill-rule="evenodd" d="M 3.5813 18.5687L 0 8.8989L 10.1679 0L 12.7852 1.13472L 3.5813 18.5687Z"/>
<path id="path4_fill" fill-rule="evenodd" d="M 6.45805 14.004L 3.40497 12.5344L 4.95499 9.97807L 1.81183 8.2855L 4.04177 5.0503L 0 3.30218L 3.17089 0L 6.45805 14.004Z"/>
<path id="path5_fill" fill-rule="evenodd" d="M 2.7056 0C 3.2509 1.77163 3.41086 3.28282 2.68848 4.13192C 1.52393 5.50035 0.605399 7.07995 0 8.80418L 1.16264e-13 18.5255C 2.03577 24.3238 7.61183 28.4861 14.1708 28.4861C 17.3215 28.4861 20.2453 27.5258 22.6587 25.8852L 22.6587 0L 2.7056 0Z"/>
<path id="path6_fill" fill-rule="evenodd" d="M 22.3987 9.91655C 22.6235 11.7697 22.6643 24.4715 22.6581 28.741C 22.6535 32.7106 21.2067 36.9573 14.9365 37.9793C 9.84215 38.8104 6.41177 39.4162 3.86921 40.2488C 1.79327 40.9284 0.793029 41.4657 0.395705 41.7031C -0.00161811 41.9406 -0.16717 41.5464 0.219374 40.831C 0.624398 40.0791 5.39151 34.4846 8.81419 33.0919C 12.2369 31.7 11.587 30.3012 11.222 27.8978C 10.2187 21.2828 5.80808 3.48191 5.81578 3.51692C 5.81578 3.51692 20.2619 -7.69404 22.3987 9.91655Z"/>
<path id="path7_fill" fill-rule="evenodd" d="M 13.838 0C 15.1333 1.52563 16.132 3.95832 16.5829 7.67422C 16.7692 9.20849 16.8293 18.1789 16.8408 23.644C 14.4276 25.2833 11.5047 26.2437 8.35534 26.2437C 7.36358 26.2437 6.39414 26.1486 5.45627 25.9667C 5.43933 25.8647 5.42316 25.7612 5.40699 25.6562C 4.40444 19.0503 0.00462004 1.28981 0 1.27383C 0.000313433 1.27352 0.75133 0.690886 1.93605 5.33185e-12L 13.838 5.2994e-12L 13.838 0Z"/>
<path id="path8_fill" fill-rule="evenodd" d="M 13.9464 9.02766C 13.9464 9.02766 16.5213 22.5697 16.6891 25.7943C 16.8401 28.7045 15.742 32.5219 12.3039 33.2875C 8.86509 34.0539 6.05995 35.6498 4.59155 36.4877C 2.05592 37.936 0 40.6773 0 40.6773L 19.8392 36.4299L 26.5498 31.3674L 23.5407 9.49571C 23.5407 9.49571 24.1235 -0.76014 17.3406 0.0450461C 12.4248 0.628768 13.623 5.84421 13.9464 9.02766Z"/>
<path id="path9_fill" fill-rule="evenodd" d="M 15.4725 11.8252C 15.4725 11.8252 16.9286 11.3267 18.424 10.8534C 20.1511 10.3062 21.5171 9.62351 21.5956 9.51544C 21.5964 9.51468 21.1352 6.50779 19.3949 2.55035C 17.657 -1.40252 13.7231 -0.14451 7.74858 2.18429C 5.46397 3.07471 0 5.16606 0 5.16606C 0 5.16606 1.88344 7.68436 4.34515 10.1646C 8.24908 14.0962 15.4725 11.826 15.4725 11.8252Z"/>
<path id="path10_fill" fill-rule="evenodd" d="M 1.71153 0.00466705C 2.7033 -0.0767648 3.54646 0.917161 3.5942 2.22464C 3.64271 3.53211 2.87732 4.6577 1.88478 4.73913C 0.893015 4.82056 0.0498577 3.82664 0.00211729 2.51916C -0.0456231 1.21169 0.719764 0.0860989 1.71153 0.00466705Z"/>
<path id="path11_fill" fill-rule="evenodd" d="M 0.765406 0.00337742C 1.13809 0.0498012 1.4022 0.561224 1.35523 1.14723C 1.30826 1.73247 0.967918 2.17007 0.595235 2.12441C 0.222552 2.07799 -0.0415609 1.5658 0.00540957 0.98056C 0.05238 0.394555 0.392723 -0.0430464 0.765406 0.00337742Z"/>
<path id="path12_fill" fill-rule="evenodd" d="M 2.51388 0.0430171C 3.36166 0.275897 3.69584 1.39083 3.26002 2.5324C 2.82496 3.6732 1.78468 4.4099 0.937677 4.17702C 0.0898991 3.94338 -0.244284 2.8292 0.19077 1.68764C 0.626594 0.546068 1.6661 -0.189863 2.51388 0.0430171Z"/>
<path id="path13_fill" fill-rule="evenodd" d="M 1.07369 0.030448C 1.39016 0.155259 1.47486 0.62863 1.26311 1.08754C 1.05136 1.54645 0.623237 1.81738 0.305994 1.69257C -0.0104792 1.56776 -0.09518 1.09363 0.116572 0.634718C 0.328324 0.175808 0.757218 -0.0943635 1.07369 0.030448Z"/>
<path id="path14_fill" fill-rule="evenodd" d="M 1.53645 0.228614C 2.19172 -0.0849363 2.77231 -0.0895026 3.04489 0.299392C 3.31747 0.689047 3.00947 1.2956 2.64988 1.57034C 2.29105 1.84431 1.63809 3.11526 1.46407 3.42729C 1.29081 3.74008 0.752579 3.91131 0.425326 3.77052C 0.0988429 3.63049 -0.0274382 3.14722 0.00490205 2.77051C 0.0834428 1.84431 0.559307 0.695896 1.53645 0.228614Z"/>
<path id="path15_fill" fill-rule="evenodd" d="M 1.06684 0.0943713C 0.366901 0.306703 -0.0619923 0.696358 0.00730828 1.16897C 0.0773789 1.64158 0.725725 1.88207 1.18003 1.84173C 1.63433 1.8014 2.99647 2.29912 3.34144 2.41252C 3.68563 2.52591 4.2 2.28847 4.34322 1.9635C 4.48567 1.63853 4.24312 1.19484 3.95744 0.93761C 3.25674 0.305181 2.10943 -0.221463 1.06684 0.0943713Z"/>
<path id="path16_fill" fill-rule="evenodd" d="M 2.99408 0.225211C 5.28871 -0.533552 7.76967 0.687165 8.53582 2.95204C 9.30198 5.21615 8.06304 7.66671 5.76919 8.42471C 3.47457 9.18348 0.993606 7.96276 0.22668 5.69865C -0.539477 3.43378 0.699464 0.983973 2.99408 0.225211Z"/>
<path id="path17_fill" fill-rule="evenodd" d="M 2.9934 0.22513C 5.28802 -0.533632 7.76898 0.687846 8.5359 2.95272C 9.30206 5.21759 8.06312 7.66815 5.76927 8.42692C 3.47465 9.18568 0.992917 7.9642 0.22676 5.69933C -0.539397 3.43446 0.698774 0.983893 2.9934 0.22513Z"/>
<path id="path18_fill" fill-rule="evenodd" d="M 1.92384 0.144737C 3.3984 -0.343093 4.99385 0.442306 5.48666 1.89819C 5.97869 3.35407 5.18251 4.92943 3.70794 5.41726C 2.23338 5.90509 0.637925 5.11969 0.14589 3.66381C -0.346914 2.20793 0.449273 0.632567 1.92384 0.144737Z"/>
<path id="path19_fill" fill-rule="evenodd" d="M 1.92423 0.144737C 3.39879 -0.343093 4.99425 0.442306 5.48705 1.89819C 5.97909 3.35407 5.1829 4.92943 3.70834 5.41726C 2.23377 5.90509 0.638318 5.11969 0.145514 3.66381C -0.346521 2.20793 0.449666 0.632567 1.92423 0.144737Z"/>
<path id="path20_fill" fill-rule="evenodd" d="M 11.7634 1.64462C 10.3435 2.02438 7.938 2.41099 5.6403 2.28542C 3.83079 2.18725 1.47687 1.73518 0.536695 0.141555C 0.456615 0.00532775 0.280283 -0.040335 0.143222 0.0388137C 0.00539048 0.117962 -0.0408099 0.292242 0.0392708 0.427708C 1.93349 3.6416 8.63717 3.04875 11.8142 2.22301C 11.8027 2.03047 11.7834 1.8364 11.7634 1.64462Z"/>
<path id="path21_fill" fill-rule="evenodd" d="M 0.442676 2.08586C 0.260185 2.08586 0.0930932 1.96713 0.0415028 1.78524C -0.0601382 1.42907 0.0268726 1.03714 0.280975 0.709124C 0.511207 0.412317 0.85925 0.187047 1.26042 0.0751737C 1.6616 -0.0359389 2.07663 -0.0237622 2.43006 0.110943C 2.81969 0.259347 3.10151 0.548544 3.20315 0.904713C 3.26552 1.12389 3.13616 1.35145 2.9144 1.41309C 2.69264 1.4755 2.4624 1.34764 2.39926 1.12846C 2.35922 0.986906 2.21369 0.912324 2.12976 0.88036C 1.9465 0.811105 1.71242 0.806538 1.48681 0.869705C 1.26119 0.932111 1.0633 1.05692 0.943951 1.21141C 0.88928 1.28143 0.80458 1.41994 0.84462 1.5615C 0.906991 1.78068 0.777629 2.00823 0.555867 2.07063C 0.518137 2.08053 0.480407 2.08586 0.442676 2.08586Z"/>
<path id="path22_fill" fill-rule="evenodd" d="M 0.444211 2.08771C 0.261719 2.08771 0.0946278 1.96898 0.0430374 1.78709C -0.160244 1.07551 0.37491 0.324363 1.26196 0.0770229C 2.14824 -0.169556 3.0014 0.194224 3.20469 0.906562C 3.26706 1.12574 3.1377 1.3533 2.91593 1.41494C 2.69417 1.47735 2.46394 1.34949 2.40157 1.13031C 2.33689 0.90504 1.94649 0.743699 1.48834 0.871554C 1.03019 0.998649 0.782244 1.33808 0.846155 1.56334C 0.908525 1.78253 0.779164 2.01008 0.557402 2.07248C 0.519672 2.08238 0.481941 2.08771 0.444211 2.08771Z"/>
<path id="path23_fill" fill-rule="evenodd" d="M 0 1.08151e-14C 0.877964 7.359 7.21097 13.0672 14.892 13.0672C 18.0215 13.0672 20.9272 12.1198 23.3312 10.4992L 23.3312 0L 4.10342e-15 0L 0 1.08151e-14Z"/>
<path id="path24_fill" fill-rule="evenodd" d="M 0 8.40575C 5.61566 8.87379 4.96115 11.9941 7.0317 13.6554C 8.77654 15.055 10.8763 13.3305 14.2906 18.205C 15.7975 15.9508 19.408 12.8754 22.8484 11.1006C 22.8484 11.1006 21.8505 5.71545 21.3099 3.21694C 25.0468 2.05482 30.4792 2.80597 32.7415 4.9057C 33.5238 2.61876 34.4647 2.50688 34.4647 2.50688L 34.4486 0C 33.1965 0.805947 32.7037 2.33108 32.552 3.3311C 31.9299 2.54417 30.935 1.89272 30.105 1.53198C 27.8812 0.564696 25.2709 0.284631 22.9531 1.0061C 20.6362 1.72833 18.6896 3.62562 16.6121 4.87069C 14.6301 6.05944 12.6481 7.24744 10.6661 8.43619C 10.5183 8.52447 10.3651 8.61503 10.1941 8.63939C 10.0062 8.66602 9.81836 8.60971 9.63664 8.55719C 6.72755 7.71776 3.60055 7.62872 0.647576 8.29996"/>
<path id="path25_fill" fill-rule="evenodd" d="M 0 1.62227e-14C 0.74417 6.413 5.62978 11.5813 11.9465 12.8273L 17.8487 12.8273C 19.104 12.5796 20.3028 12.1771 21.4238 11.6408L 21.4238 0L 6.83904e-15 0L 0 1.62227e-14Z"/>
<path id="path26_fill" fill-rule="evenodd" d="M 32.552 3.37812C 32.3757 3.16046 32.2417 2.90094 32.0485 2.70764C 23.5792 -5.79781 0 8.45277 0 8.45277C 6.45035 6.90252 10.4713 12.8273 10.4713 12.8273C 24.5594 -6.59614 32.552 3.37812 32.552 3.37812Z"/>
<path id="path27_fill" fill-rule="evenodd" d="M 0 2.82233C 0.00254279 2.33947 0.100691 1.85196 0.27387 1.43761C 0.648863 0.538059 1.54823 0 2.51228 0C 2.84184 0 3.17988 0.0631668 3.50636 0.19635C 4.48221 0.593731 5.08065 1.50169 5.08844 2.44535L 5.08844 2.48265C 5.08609 2.7666 5.03011 3.05321 4.9147 3.32957C 4.41035 4.53811 2.46531 5.52138 1.18402 4.99931C 0.353173 4.66097 0.00481558 3.77289 6.56547e-14 2.86077L 7.1126e-14 2.82233L 0 2.82233Z"/>
<path id="path28_fill" fill-rule="evenodd" d="M 4.91463 3.32977C 5.41898 2.12199 4.78834 0.718623 3.50628 0.196546C 2.22499 -0.326293 0.777378 0.230032 0.273023 1.43781C -0.230562 2.64635 -0.0981204 4.47667 1.18394 4.9995C 2.46523 5.52158 4.41027 4.53755 4.91463 3.32977Z"/>
<path id="path29_fill" fill-rule="evenodd" d="M 0.973725 2.33534C 0.935994 2.33534 0.898264 2.32164 0.869004 2.29348C 0.808173 2.2364 0.805863 2.14127 0.864384 2.08191C 1.48501 1.44111 2.11179 1.07809 2.42057 0.922074C 2.14722 0.637443 1.32023 0.0202353 0.205258 0.438049C 0.126717 0.46773 0.0397063 0.428917 0.009676 0.35129C -0.0195843 0.273663 0.0196861 0.186904 0.0982268 0.157985C 1.49502 -0.366376 2.62385 0.552206 2.79171 0.915225C 2.80865 0.951755 2.81019 0.993612 2.79556 1.03166C 2.78093 1.06896 2.75167 1.0994 2.71471 1.11538C 2.57303 1.17626 1.82766 1.52178 1.08307 2.28891C 1.05381 2.32011 1.01377 2.33534 0.973725 2.33534Z"/>
<path id="path30_fill" fill-rule="evenodd" d="M 2.0548 2.76435C 2.22234 1.69732 1.60164 0.597582 0.499735 0.148866C 0.335235 0.0817608 0.167803 0.032431 5.47123e-15 0L 0 2.76435L 2.0548 2.76435Z"/>
<path id="path31_fill" fill-rule="evenodd" d="M 2.15217 2.84869C 1.79335 2.84869 0.853168 2.63712 0.486644 2.41261C 0.448914 2.38978 0.423504 2.35249 0.416574 2.30987C 0.409644 2.26725 0.421194 2.22387 0.448914 2.19038C 0.667596 1.9263 0.913998 1.7193 1.16887 1.53817C 0.843158 1.54121 0.445834 1.49631 0.0847008 1.32051C 0.0331103 1.29539 0 1.24364 0 1.18656C 0 0.844855 0.340343 0.267982 0.619086 0.0351024C 0.682996 -0.0181708 0.779247 -0.00979927 0.833148 0.0533675C 0.887048 0.116534 0.879348 0.210904 0.815437 0.264177C 0.609076 0.436934 0.369603 0.844855 0.314933 1.09448C 0.769237 1.27713 1.33596 1.26115 1.73175 1.17895C 1.80336 1.16449 1.87574 1.20255 1.90346 1.26952C 1.93118 1.33649 1.90654 1.41336 1.84494 1.45217C 1.48765 1.67896 1.11959 1.9126 0.809277 2.23909C 1.19736 2.40271 1.88498 2.54884 2.15217 2.54884C 2.2361 2.54884 2.30386 2.61581 2.30386 2.69876C 2.30386 2.78172 2.2361 2.84869 2.15217 2.84869Z"/>
<path id="path32_fill" fill-rule="evenodd" d="M 5.40468 0.235163C 4.73477 0.532732 4.04639 0.992403 3.28023 1.57536C 1.35521 3.03885 0.420424 4.78774 0 6.33038C 1.31055 7.4963 2.83055 8.43695 4.49684 9.09069C 4.18191 8.45065 3.55435 7.97576 2.79898 7.83877C 3.08927 7.12643 3.77072 6.11272 5.79738 5.908C 6.00528 5.88745 6.20626 5.88364 6.39722 5.86462C 10.3774 5.46583 9.2447 0.000761045 6.4388 0C 6.11386 0 5.76812 0.0730604 5.40468 0.235163Z"/>
<path id="path33_fill" fill-rule="evenodd" d="M 5.9252 0.234853C 5.25607 0.533183 4.56691 0.992854 3.80152 1.57505C 1.02411 3.68695 0.307233 6.39247 0.224072 8.21441C 0.182492 9.14137 0 10.047 0 10.047C 0 11.4017 1.55926 12.2609 2.86828 12.2609C 4.17652 12.2609 5.23759 11.2616 5.23759 10.0295C 5.23759 8.94197 4.41214 8.03709 3.3195 7.83846C 3.60979 7.12688 4.29202 6.11317 6.31868 5.90845C 6.52658 5.8879 6.72755 5.88333 6.91851 5.86431C 11.3584 5.41986 9.43644 -1.32986 5.9252 0.234853Z"/>
<path id="path34_fill" fill-rule="evenodd" d="M 1.16455e-11 4.18166e-11C 0.614525 0.351431 1.25661 0.660972 1.92221 0.924674L 1.92221 0.853682C 1.73001 0.504978 1.44294 0.210373 1.09322 0L 0 3.51491e-11L 1.16455e-11 4.18166e-11Z"/>
<path id="path35_fill" fill-rule="evenodd" d="M 0.323257 3.16133C 0.260886 3.16133 0.203136 3.12328 0.180806 3.0624C -0.014776 2.52586 -0.0170861 1.984 0.0160242 1.62478C 0.0198743 1.58521 0.0391244 1.54868 0.0699247 1.5228C 0.101495 1.49769 0.141535 1.48551 0.181576 1.48932C 0.70518 1.53802 1.1333 1.61946 1.5237 1.83255C 1.45517 1.49997 1.45517 1.24578 1.45517 0.843951C 1.45517 0.799811 1.47442 0.757953 1.5083 0.729795C 1.54218 0.700875 1.58684 0.688698 1.63073 0.695548C 2.01958 0.75567 2.33991 0.878959 2.6302 1.0852C 2.62481 1.03193 2.62019 0.979417 2.61557 0.927666C 2.58785 0.630098 2.56475 0.372864 2.50623 0.196302C 2.48005 0.117914 2.52317 0.033438 2.60248 0.00756246C 2.68256 -0.0183131 2.76803 0.0243055 2.79421 0.103454C 2.86351 0.311981 2.88892 0.584435 2.91741 0.900269C 2.93281 1.06922 2.94898 1.24426 2.97285 1.42463C 2.98132 1.4878 2.94821 1.5502 2.89046 1.57836C 2.83194 1.60728 2.76187 1.59586 2.71567 1.55096C 2.43154 1.27242 2.13816 1.10956 1.75932 1.02432C 1.76086 1.44746 1.77703 1.67806 1.91563 2.13697C 1.93411 2.20013 1.90947 2.26787 1.85403 2.3044C 1.79859 2.34093 1.72544 2.33712 1.67385 2.29526C 1.285 1.98019 0.856102 1.86527 0.307857 1.80363C 0.292457 2.12327 0.314787 2.54489 0.465708 2.96042C 0.494199 3.03805 0.453388 3.12404 0.374847 3.1522C 0.357907 3.15829 0.340197 3.16133 0.323257 3.16133Z"/>
<path id="path36_fill" fill-rule="evenodd" d="M 3.13228e-12 2.08732e-12C 0.619464 0.411364 1.27169 0.778239 1.95193 1.096L 1.95193 0.529772C 1.70382 0.379573 1.42396 0.271857 1.12393 0.217447C 1.15243 0.147519 1.1847 0.0746864 1.22163 1.62227e-14L 0 0L 3.13228e-12 2.08732e-12Z"/>
<path id="path37_fill" fill-rule="evenodd" d="M 0.151882 1.62523C 0.133402 1.62523 0.114922 1.62218 0.0964419 1.61457C 0.0186712 1.58489 -0.0198291 1.49813 0.0102011 1.42051C 0.237353 0.845918 0.702437 0.399946 1.31998 0.164783C 1.86746 -0.0437437 2.47037 -0.0551594 2.85615 0.135102C 2.93084 0.172393 2.96087 0.262197 2.92391 0.336779C 2.88618 0.4106 2.79532 0.440281 2.71986 0.403751C 2.41185 0.251542 1.89364 0.267524 1.42932 0.444847C 0.891859 0.648808 0.488375 1.03466 0.293564 1.52934C 0.269693 1.5887 0.212713 1.62523 0.151882 1.62523Z"/>
<path id="path38_fill" fill-rule="evenodd" d="M 0.692029 0.0880766C 0.879911 0.231153 0.915331 0.49828 0.77057 0.684736C 0.625809 0.871192 0.356306 0.905439 0.167654 0.762363C -0.0202272 0.619286 -0.0556476 0.352159 0.0891137 0.165703C 0.233875 -0.0199918 0.504148 -0.0549999 0.692029 0.0880766Z"/>
<path id="path39_fill" fill-rule="evenodd" d="M 0.71308 0.04923C 0.917902 0.167192 0.967953 0.460956 0.824731 0.70449C 0.68151 0.948025 0.398917 1.05 0.193326 0.931282C -0.0114962 0.81332 -0.0615467 0.519556 0.0816746 0.276022C 0.225666 0.032487 0.508258 -0.0687321 0.71308 0.04923Z"/>
<path id="path40_fill" fill-rule="evenodd" d="M 0.553638 0.0707261C 0.70379 0.185644 0.73228 0.398737 0.616779 0.547902C 0.500508 0.697066 0.284906 0.725225 0.133985 0.610307C -0.0161668 0.495389 -0.044657 0.282297 0.071614 0.133132C 0.187115 -0.0160331 0.403487 -0.0441917 0.553638 0.0707261Z"/>
<path id="path41_fill" fill-rule="evenodd" d="M 0.276628 0.0352009C 0.352088 0.0922793 0.365948 0.199587 0.308198 0.274169C 0.250447 0.347991 0.141876 0.36245 0.0671857 0.304611C -0.00827496 0.247533 -0.0221351 0.140986 0.0356154 0.0664038C 0.093366 -0.00817865 0.201167 -0.0218775 0.276628 0.0352009Z"/>
<path id="path42_fill" fill-rule="evenodd" d="M 0.415019 0.0528757C 0.52821 0.138874 0.549 0.299454 0.461989 0.410567C 0.375748 0.522441 0.213277 0.54375 0.100856 0.457752C -0.0123353 0.371754 -0.0331255 0.211173 0.0531153 0.0992995C 0.140126 -0.0118131 0.301828 -0.0331224 0.415019 0.0528757Z"/>
<path id="path43_fill" fill-rule="evenodd" d="M 0.415019 0.0528757C 0.52821 0.138874 0.549 0.299454 0.461989 0.410567C 0.374978 0.522441 0.213277 0.54375 0.100856 0.457752C -0.0123353 0.371754 -0.0331255 0.211173 0.0531153 0.0992995C 0.140126 -0.0118131 0.301828 -0.0331224 0.415019 0.0528757Z"/>
<path id="path44_fill" fill-rule="evenodd" d="M 0.622873 0.0792392C 0.792275 0.207856 0.823845 0.448346 0.693714 0.615776C 0.563583 0.783967 0.320261 0.81517 0.150859 0.686553C -0.0185423 0.557176 -0.0501126 0.316685 0.0807886 0.149255C 0.21092 -0.0181746 0.453472 -0.0493774 0.622873 0.0792392Z"/>
<path id="path45_fill" fill-rule="evenodd" d="M 0.699501 0.0849139C 0.866593 0.212009 0.873523 0.624495 0.763412 0.777465C 0.57938 1.03394 0.237497 1.02176 0.0704058 0.893905C -0.0966857 0.766811 0.0711758 0.272892 0.186677 0.124488C 0.302948 -0.0246766 0.53241 -0.0421806 0.699501 0.0849139Z"/>
<path id="path46_fill" fill-rule="evenodd" d="M 0.670299 0.0442209C 0.78349 0.130219 0.73883 0.312109 0.570968 0.45138C 0.403107 0.590652 0.175185 0.63327 0.0619936 0.547272C -0.0504274 0.461274 -0.005767 0.279384 0.162095 0.140113C 0.329956 0.0016024 0.557108 -0.0417772 0.670299 0.0442209Z"/>
<path id="path47_fill" fill-rule="evenodd" d="M 0.710703 0.146369C 0.826974 0.294773 0.756134 0.64257 0.635243 0.743028C 0.432731 0.912741 0.148598 0.81685 0.0315571 0.668446C -0.0847139 0.520042 0.148598 0.147891 0.273339 0.0512381C 0.39885 -0.0446537 0.594432 -0.00203512 0.710703 0.146369Z"/>
<path id="path48_fill" fill-rule="evenodd" d="M 0.690833 0.087739C 0.877945 0.230816 0.913365 0.497181 0.768604 0.683638C 0.623842 0.869333 0.35434 0.905102 0.166458 0.762025C -0.0206534 0.61971 -0.0553037 0.352583 0.0894576 0.166888C 0.234219 -0.0195684 0.503721 -0.0553375 0.690833 0.087739Z"/>
<path id="path49_fill" fill-rule="evenodd" d="M 0.552596 0.0701179C 0.702747 0.184275 0.730468 0.397367 0.614196 0.546532C 0.498695 0.695697 0.283093 0.723856 0.132942 0.609699C -0.0164392 0.495542 -0.0441595 0.28245 0.0713416 0.133285C 0.186843 -0.0158802 0.402445 -0.0440389 0.552596 0.0701179Z"/>
<path id="path50_fill" fill-rule="evenodd" d="M 0 0.247175C 0.20905 0.42413 0.423084 0.595499 0.641865 0.761045L 0.770007 0.761045L 0.770007 0L 9.34486e-12 0L 9.34486e-12 0.247175L 0 0.247175Z"/>
<path id="path51_fill" fill-rule="evenodd" d="M 0.483539 0.0613345C 0.61444 0.161031 0.63908 0.348249 0.537439 0.478387C 0.436568 0.608526 0.247917 0.633641 0.117015 0.533183C -0.0146558 0.433486 -0.0385261 0.24703 0.0623448 0.11613C 0.163986 -0.014009 0.352637 -0.0383624 0.483539 0.0613345Z"/>
<path id="path52_fill" fill-rule="evenodd" d="M 0.276474 0.0349713C 0.351165 0.0920498 0.365025 0.198596 0.307275 0.273179C 0.249524 0.347761 0.141723 0.362221 0.0670326 0.304381C -0.00842813 0.247303 -0.0222883 0.140757 0.0362323 0.0661742C 0.0939828 -0.00764719 0.201784 -0.0221071 0.276474 0.0349713Z"/>
<path id="path53_fill" fill-rule="evenodd" d="M 0.110243 0.880865C -0.0399081 0.766709 -0.0252779 0.370204 0.0856031 0.217995C 0.270405 -0.0377164 0.589188 -0.0430438 0.739339 0.0718741C 0.88949 0.186031 0.706999 0.668534 0.591498 0.817699C 0.475997 0.966864 0.260395 0.995022 0.110243 0.880865Z"/>
<path id="path54_fill" fill-rule="evenodd" d="M 0.0619936 0.547483C -0.0504274 0.461485 -0.005767 0.279595 0.162095 0.140324C 0.329956 0.0018136 0.557108 -0.041566 0.669529 0.0436711C 0.78195 0.129669 0.73729 0.311559 0.569428 0.45083C 0.401567 0.590102 0.174415 0.633481 0.0619936 0.547483Z"/>
<path id="path55_fill" fill-rule="evenodd" d="M 0.940669 0.192987C 1.02229 0.361939 0.828248 0.709737 0.659617 0.796496C 0.377794 0.941855 0.0921214 0.802584 0.0112707 0.633632C -0.07035 0.46468 0.312343 0.114599 0.483285 0.0331672C 0.654997 -0.0475036 0.859048 0.0240346 0.940669 0.192987Z"/>
<path id="path56_fill" fill-rule="evenodd" d="M 0.0587739 0.686439C -0.0574971 0.538035 0.0148835 0.190998 0.135775 0.0897793C 0.337516 -0.0791728 0.620879 0.0159578 0.73715 0.164362C 0.853421 0.312005 0.620109 0.684156 0.494598 0.780047C 0.369857 0.8767 0.175045 0.834843 0.0587739 0.686439Z"/>
<path id="path57_fill" fill-rule="evenodd" d="M 0.275913 0.0349177C 0.350604 0.0919961 0.364464 0.198543 0.305943 0.272364C 0.248193 0.346946 0.141162 0.361406 0.0664711 0.304328C -0.00821961 0.24801 -0.0220797 0.141464 0.0356708 0.0668816C 0.0934213 -0.0077008 0.201222 -0.0221607 0.275913 0.0349177Z"/>
<path id="path58_fill" fill-rule="evenodd" d="M 0.310935 0.834289C 0.0830131 0.768839 -0.0486581 0.533676 0.0167925 0.307645C 0.082243 0.0816147 0.320175 -0.0485241 0.548867 0.0169258C 0.776789 0.0823757 0.90846 0.317539 0.84301 0.543569C 0.777559 0.7696 0.538857 0.899738 0.310935 0.834289Z"/>
<path id="path59_fill" fill-rule="evenodd" d="M 0.35371 1.01334C 0.118858 0.977569 -0.0359132 0.722619 0.0072072 0.444076C 0.0503276 0.165533 0.27517 -0.0315774 0.510022 0.00419177C 0.744874 0.0399609 0.899645 0.294911 0.856525 0.573454C 0.813405 0.851996 0.588562 1.04911 0.35371 1.01334Z"/>
<path id="path60_fill" fill-rule="evenodd" d="M 0.249043 0.667336C 0.0665513 0.615584 -0.0389396 0.426845 0.0134208 0.245716C 0.0657813 0.0653486 0.256743 -0.0389146 0.439235 0.0135975C 0.621726 0.0653486 0.727217 0.254088 0.674857 0.434456C 0.622496 0.615584 0.431535 0.719087 0.249043 0.667336Z"/>
<path id="path61_fill" fill-rule="evenodd" d="M 0.12455 0.333854C 0.0329195 0.307978 -0.019441 0.213608 0.00673928 0.123044C 0.0329195 0.0332406 0.1284 -0.0192715 0.219261 0.006604C 0.310892 0.0332406 0.363253 0.12761 0.337072 0.217414C 0.310892 0.307978 0.216181 0.359729 0.12455 0.333854Z"/>
<path id="path62_fill" fill-rule="evenodd" d="M 0.186443 0.500378C 0.0493813 0.461565 -0.0291594 0.320011 0.010111 0.184545C 0.0493813 0.0490786 0.191833 -0.0293091 0.328894 0.0102652C 0.465955 0.0490786 0.545266 0.190633 0.505995 0.326099C 0.465955 0.461565 0.323504 0.539192 0.186443 0.500378Z"/>
<path id="path63_fill" fill-rule="evenodd" d="M 0.186443 0.500378C 0.0493813 0.461565 -0.0291594 0.320011 0.010111 0.184545C 0.0493813 0.0490786 0.191833 -0.0293091 0.328894 0.0102652C 0.465955 0.0490786 0.545266 0.190633 0.505225 0.326099C 0.465955 0.461565 0.323504 0.539192 0.186443 0.500378Z"/>
<path id="path64_fill" fill-rule="evenodd" d="M 0.280155 0.751026C 0.0745632 0.692425 -0.0440178 0.480094 0.0152727 0.276895C 0.0745632 0.0736954 0.288625 -0.0435056 0.494217 0.0150949C 0.699039 0.0736954 0.81762 0.286027 0.759099 0.489226C 0.699809 0.692425 0.485747 0.809626 0.280155 0.751026Z"/>
<path id="path65_fill" fill-rule="evenodd" d="M 0.324267 0.995657C 0.121755 0.937817 -0.0376364 0.556534 0.00779396 0.373883C 0.0840247 0.0687036 0.406658 -0.0431701 0.609169 0.0146694C 0.812451 0.0725088 0.839402 0.593064 0.786271 0.773432C 0.733911 0.953799 0.526779 1.0535 0.324267 0.995657Z"/>
<path id="path66_fill" fill-rule="evenodd" d="M 0.122697 0.695921C -0.0143642 0.657108 -0.0405444 0.471413 0.0641765 0.281151C 0.168897 0.0908899 0.365249 -0.0316384 0.50154 0.00717495C 0.638602 0.0467493 0.664782 0.232444 0.560061 0.422706C 0.45534 0.612206 0.259758 0.734734 0.122697 0.695921Z"/>
<path id="path67_fill" fill-rule="evenodd" d="M 0.249043 0.667336C 0.0665513 0.615584 -0.0389396 0.426845 0.0134208 0.245716C 0.0657813 0.0653486 0.256743 -0.0389146 0.439235 0.0135975C 0.621726 0.0653486 0.727217 0.254088 0.674857 0.434456C 0.621726 0.615584 0.431535 0.719087 0.249043 0.667336Z"/>
<path id="path68_fill" fill-rule="evenodd" d="M 0.182223 0.78736C 0.0189812 0.691469 -0.0433893 0.342149 0.0313014 0.204399C 0.156812 -0.0261973 0.457115 -0.0398961 0.620357 0.0559956C 0.783598 0.151887 0.705057 0.582639 0.624207 0.717344C 0.543356 0.852049 0.345464 0.883252 0.182223 0.78736Z"/>
<path id="path69_fill" fill-rule="evenodd" d="M 0.309736 0.833956C 0.082584 0.769267 -0.0490872 0.533343 0.0171334 0.308073C 0.082584 0.0820429 0.319746 -0.0480958 0.547668 0.016593C 0.77482 0.0812819 0.905721 0.317206 0.840271 0.542475C 0.77482 0.768506 0.536888 0.898645 0.309736 0.833956Z"/>
<path id="path70_fill" fill-rule="evenodd" d="M 0.247569 0.667003C 0.0658472 0.615252 -0.0388738 0.426512 0.0134867 0.246145C 0.0658472 0.0657768 0.256039 -0.0384864 0.437761 0.0132646C 0.619482 0.0650157 0.724203 0.253755 0.671843 0.434123C 0.619482 0.614491 0.42929 0.718754 0.247569 0.667003Z"/>
<path id="path71_fill" fill-rule="evenodd" d="M 0.216789 0.583798C 0.057398 0.538135 -0.0342328 0.373749 0.0119676 0.215452C 0.057398 0.0571543 0.223719 -0.0334101 0.383111 0.0114916C 0.542502 0.0571543 0.634133 0.222301 0.587933 0.379838C 0.542502 0.538135 0.376181 0.62946 0.216789 0.583798Z"/>
<path id="path72_fill" fill-rule="evenodd" d="M 0.123784 0.333854C 0.0329236 0.307978 -0.0194369 0.213608 0.00674336 0.123044C 0.0329236 0.0332406 0.127634 -0.0192715 0.218495 0.006604C 0.310126 0.0332406 0.362487 0.126849 0.336306 0.217414C 0.310126 0.307978 0.214645 0.359729 0.123784 0.333854Z"/>
<path id="path73_fill" fill-rule="evenodd" d="M 0.240795 0.00016235C 0.382476 -0.00592601 0.504907 0.159982 0.514917 0.370791C 0.524157 0.582362 0.416356 0.758164 0.274675 0.765013C 0.132994 0.771101 0.0105624 0.605193 0.000552336 0.393623C -0.00868775 0.182813 0.0991132 0.00625071 0.240795 0.00016235Z"/>
<path id="path74_fill" fill-rule="evenodd" d="M 0.451975 0.0132646C 0.633697 0.0650157 0.767678 0.438689 0.721477 0.62134C 0.643707 0.926519 0.348794 1.046 0.167072 0.994252C -0.0154193 0.942501 -0.0246593 0.426512 0.0277011 0.246145C 0.0800616 0.0657768 0.270253 -0.0384864 0.451975 0.0132646Z"/>
<path id="path75_fill" fill-rule="evenodd" d="M 0.500496 0.00717495C 0.636788 0.0459883 0.662968 0.231683 0.558247 0.421945C 0.453526 0.612206 0.258714 0.734734 0.121653 0.695921C -0.0146383 0.657108 -0.0400485 0.471413 0.0639024 0.281151C 0.168623 0.0908899 0.364205 -0.0316384 0.500496 0.00717495Z"/>
<path id="path76_fill" fill-rule="evenodd" d="M 0.0826609 0.842585C -0.0559404 0.714729 -0.00434993 0.321269 0.120391 0.179715C 0.328293 -0.0577317 0.646306 -0.0318561 0.784137 0.0959995C 0.922738 0.223855 0.696356 0.688093 0.566995 0.825842C 0.437634 0.96283 0.221262 0.970441 0.0826609 0.842585Z"/>
<path id="path77_fill" fill-rule="evenodd" d="M 0.532567 0.0553426C 0.695039 0.151234 0.757409 0.499793 0.681949 0.638303C 0.556437 0.8689 0.257675 0.882599 0.0952033 0.786707C -0.0680382 0.691576 0.0112726 0.260825 0.0921233 0.12612C 0.172204 -0.00858526 0.370096 -0.0405492 0.532567 0.0553426Z"/>
<path id="path78_fill" fill-rule="evenodd" d="M 0.123077 0.33385C 0.0322162 0.307974 -0.0193743 0.213604 0.00680598 0.123801C 0.0329862 0.0332367 0.127697 -0.0192755 0.217788 0.00660007C 0.308649 0.0324756 0.361009 0.126845 0.334829 0.21741C 0.308649 0.307213 0.213938 0.359725 0.123077 0.33385Z"/>
<path id="path79_fill" fill-rule="evenodd" d="M 0 0L 0.776937 2.33869L 3.04307 1.20397L 4.51147 2.95438L 6.58279 1.35923L 8.49703 2.67507L 9.94618 0.853893L 9.99469 0.679614L 7.29274 0.916299L 5.06973 0.993164L 2.66884 0.901078L 0 0Z"/>
</defs>
</svg>
