<svg width="30" height="17" viewBox="0 0 30 22" xmlns="http://www.w3.org/2000/svg" xmlns:xlink="http://www.w3.org/1999/xlink"><title>round_world</title><desc>Created using Figma</desc><g transform="translate(-4622 -238)"><mask id="b"><use xlink:href="#a" transform="translate(4622 238.875)" fill="#FFF"/></mask><g mask="url(#b)"><use xlink:href="#c" transform="translate(4622 238.875)" fill="#C6E0F2"/></g></g><use xlink:href="#d" transform="translate(14.02 1.572)" fill="#33471E"/><use xlink:href="#e" transform="translate(6.5 12.793)" fill="#ECC64A"/><use xlink:href="#f" transform="translate(9.06 11.885)" fill="#33471E"/><use xlink:href="#g" transform="translate(5.56 7.897)" fill="#43632E"/><use xlink:href="#h" transform="translate(5.74 8.721)" fill="#384E23"/><use xlink:href="#i" transform="translate(9.16 8.746)" fill="#687E36"/><use xlink:href="#j" transform="translate(22.83 10.789)" fill="#ECC64A"/><use xlink:href="#k" transform="translate(22.84 11.794)" fill="#CDAA34"/><use xlink:href="#l" transform="translate(16.07 8.68)" fill="#8BA73D"/><use xlink:href="#m" transform="translate(19.65 12.196)" fill="#A2C03D"/><use xlink:href="#n" transform="translate(20.09 10.377)" fill="#FFF"/><use xlink:href="#o" transform="translate(19.65 9.9)" fill="#FFF"/><use xlink:href="#p" transform="translate(20.39 10.363)" fill="#2F2E2C"/><use xlink:href="#q" transform="translate(20.19 10.377)" fill="#FFF"/><use xlink:href="#r" transform="translate(9.89 3.013)" fill="#43632E"/><defs><path id="a" d="M30 16.008V0H0v16.008h30z"/><path id="c" fill-rule="evenodd" d="M26.631 9.684c-.037 0-.073.004-.11.005-.488-2.305-2.575-4.065-5.13-4.228C20.257 2.287 17.066 0 13.304 0 9.2 0 5.775 2.722 4.96 6.347 2.205 6.442 0 8.563 0 11.174c0 2.67 2.306 4.834 5.151 4.834h21.48c1.86 0 3.37-1.415 3.37-3.162 0-1.746-1.51-3.162-3.37-3.162z"/><path id="d" fill-rule="evenodd" d="M5.926.799L5.886 0a25.189 25.189 0 0 0-2.5 2.32C1.968 3.834 1.016 5.14.528 6.24c-.54 1.217-.666 2.245-.377 3.085.248.708.772 1.24 1.571 1.597.62.277 1.217.232 1.792-.134.537-.336.975-.886 1.314-1.65.298-.67.567-1.644.809-2.921.237-1.225.356-2.24.359-3.045A33.73 33.73 0 0 0 5.926.8z"/><path id="e" fill-rule="evenodd" d="M2.67.337A.413.413 0 0 1 2.583.17.493.493 0 0 1 2.564 0L.796.472.04.136l.426.452L0 .934l.526.03-.12.518.48-.669L2.67.337zm-.632 1.782l1.783-.477a.5.5 0 0 1-.105-.337l-1.768.473-.756-.337.426.452-.466.347.526.03-.12.517.48-.668z"/><path id="f" fill-rule="evenodd" d="M.02 1.08a.412.412 0 0 0 .086.165c.14.154.414.213.821.176.17-.013.366-.042.586-.085L1.153 0C.418.271.034.574 0 .909a.5.5 0 0 0 .02.17zm2.06 1.646a4.94 4.94 0 0 0 .585-.085l-.36-1.336c-.735.272-1.119.575-1.152.91a.5.5 0 0 0 .105.336c.14.154.414.212.821.175z"/><path id="g" fill-rule="evenodd" d="M3.796 2.998a4.948 4.948 0 0 1-.125-.538H1.05L.63 3.57l3.165-.572zm-.18-.944a4.685 4.685 0 0 1-.015-.372c0-.033.002-.065.005-.095L0 0l.356.824 3.26 1.23z"/><path id="h" fill-rule="evenodd" d="M3.801 2.717a6.437 6.437 0 0 1-.18-.543l-3.165.573L0 3.952l3.801-1.235zm-.305-1.08a5.85 5.85 0 0 1-.055-.407L.18 0l.695 1.637h2.62z"/><path id="i" fill-rule="evenodd" d="M.195 2.149a7.434 7.434 0 0 0 .581 1.436c.568 1.091 1.278 1.907 2.129 2.446.952.602 2.092.904 3.42.904.779 0 1.426-.145 1.944-.433.497-.28.978-.746 1.442-1.395L7.593 0C4.574.107 2.045.353.005.738A.853.853 0 0 0 0 .834c0 .12.005.244.015.371a4.947 4.947 0 0 0 .18.944z"/><path id="j" fill-rule="evenodd" d="M.135.929v.075h3.731C3.853.733 2.564.398 0 0c.09.291.135.6.135.929z"/><path id="k" fill-rule="evenodd" d="M.12 0A3.038 3.038 0 0 1 0 .803L3.851 0H.121z"/><path id="l" fill-rule="evenodd" d="M3.761 3.696a.615.615 0 0 1 .446-.18c.174 0 .32.06.44.18a.61.61 0 0 1 .186.447.595.595 0 0 1-.185.442.592.592 0 0 1-.44.185.608.608 0 0 1-.447-.185.602.602 0 0 1-.18-.442.62.62 0 0 1 .18-.447zm1.207-1.999a.92.92 0 0 1 .677.281c.187.188.28.414.28.678 0 .265-.093.49-.28.678a.922.922 0 0 1-.677.281.921.921 0 0 1-.676-.28.925.925 0 0 1-.28-.679c0-.264.093-.49.28-.678a.92.92 0 0 1 .676-.28zm1.788.412a2.862 2.862 0 0 0-.09-.251 3.05 3.05 0 0 0-.661-.97A2.916 2.916 0 0 0 3.862 0L.686.05a9.86 9.86 0 0 0-.275.623C.137 1.379 0 2.04 0 2.656c0 .536.137 1.088.41 1.657.158.325.325.596.502.814a4.498 4.498 0 0 0-.035.482c0 .328.083.683.25 1.065C4.439 6.088 6.3 5.23 6.711 4.102l.06-.185c.03-.097.054-.198.07-.302.03-.16.047-.327.05-.502v-.075c0-.328-.044-.638-.135-.929z"/><path id="m" fill-rule="evenodd" d="M.626 0A.615.615 0 0 0 0 .628c0 .174.06.321.18.442a.607.607 0 0 0 .446.185.59.59 0 0 0 .44-.185.594.594 0 0 0 .186-.442.61.61 0 0 0-.185-.447A.598.598 0 0 0 .626 0z"/><path id="n" fill-rule="evenodd" d="M.621.628a.457.457 0 0 1 .336-.14c.13 0 .24.046.33.14.094.09.14.2.14.331a.46.46 0 0 1-.14.336.45.45 0 0 1-.33.136.466.466 0 0 1-.471-.472C.486.83.53.718.62.628zM1.633.28A.92.92 0 0 0 .957 0 .92.92 0 0 0 .28.281.925.925 0 0 0 0 .96c0 .264.093.49.28.678a.921.921 0 0 0 .677.281.92.92 0 0 0 .676-.28.925.925 0 0 0 .28-.679.925.925 0 0 0-.28-.678z"/><path id="o" fill-rule="evenodd" d="M.007 1.132a1.257 1.257 0 1 1 2.5.256 1.258 1.258 0 1 1-2.5-.256z"/><path id="p" fill-rule="evenodd" d="M.005.796a.884.884 0 1 1 1.757.18.883.883 0 1 1-1.757-.18z"/><path id="q" fill-rule="evenodd" d="M.003.43a.477.477 0 1 1 .95.095.477.477 0 0 1-.95-.095z"/><path id="r" fill-rule="evenodd" d="M.649.465L0 0a25.28 25.28 0 0 0 .26 3.405c.3 2.055.73 3.615 1.284 4.68.615 1.181 1.34 1.92 2.176 2.214.707.245 1.45.165 2.225-.241.6-.315.937-.812 1.008-1.491.071-.63-.086-1.317-.473-2.058-.338-.65-.931-1.467-1.779-2.45-.81-.947-1.528-1.672-2.155-2.175A33.634 33.634 0 0 0 .649.464z"/></defs></svg>