<svg width="58" height="40" viewBox="0 0 58 40" xmlns="http://www.w3.org/2000/svg" xmlns:xlink="http://www.w3.org/1999/xlink"><title>Group</title><desc>Created using Figma</desc><use xlink:href="#a" transform="translate(5.63 6.953)" fill="#885D5D"/><use xlink:href="#b" transform="translate(6.79 8.123)" fill="#AD7F68"/><use xlink:href="#c" transform="matrix(1.07692 .22156 -.21357 1.07854 25.68 9.13)" fill="#D93D4B"/><use xlink:href="#d" transform="matrix(.24212 .04992 .04812 -.24249 35 13.68)" fill="#D93D4B"/><use xlink:href="#e" transform="matrix(-.70003 -.71356 -.70004 .71354 39.51 11.201)" fill="#54B8AC"/><use xlink:href="#f" transform="matrix(-.70003 -.71356 -.70004 .71354 43.29 13.246)" fill="#54B8AC"/><use xlink:href="#g" transform="matrix(-.24988 -.00067 -.00064 .24988 13.75 9.462)" fill="#3A2058"/><use xlink:href="#h" transform="matrix(-.24973 -.00089 -.00085 .24973 27.84 8.839)" fill="#F55361"/><use xlink:href="#i" transform="matrix(-.24973 -.00089 -.00085 .24973 27.84 17.993)" fill="#F78F9F"/><use xlink:href="#j" transform="matrix(-.3211 -.00114 -.00064 .28185 23.69 16.622)" fill="#F55260"/><use xlink:href="#k" transform="matrix(-.3211 -.00114 -.00064 .28185 23.11 17.166)" fill="#3A2058"/><use xlink:href="#l" transform="matrix(-.24988 -.00067 -.00064 .24988 23.66 20.653)" fill="#FFF"/><use xlink:href="#m" transform="matrix(-.24501 -.00067 -.00064 .24501 32.38 7.376)" fill="#F55361"/><use xlink:href="#n" transform="matrix(-.2593 -.00092 -.00088 .2593 15.49 5.83)" fill="#FFF"/><use xlink:href="#o" transform="matrix(-.2593 -.00092 -.00088 .2593 21.37 4.1)" fill="#FFF"/><use xlink:href="#p" transform="matrix(-.23863 -.06635 -.06403 .23926 19.15 .581)" fill="#3A2058"/><use xlink:href="#q" transform="matrix(-.23899 .06417 .06192 .23958 11.37 1.653)" fill="#3A2058"/><use xlink:href="#r" transform="matrix(-.24773 -.00107 -.00103 .24773 22.81 1.44)" fill="#6E5690"/><use xlink:href="#s" transform="matrix(-.98013 0 0 .98013 20.62 5.399)" fill="#4A3569"/><use xlink:href="#t" transform="matrix(-.99979 0 0 .99979 14.52 7.406)" fill="#4A3569"/><use xlink:href="#u" transform="matrix(-.2463 .02505 .02412 .2464 30.33 5.095)" fill="#F55361"/><use xlink:href="#v" transform="matrix(-.2463 .02502 .0241 .24638 29.8 6.798)" fill="#3A2058"/><use xlink:href="#w" transform="matrix(-.2463 .02502 .0241 .24638 27.18 6.284)" fill="#3A2058"/><g transform="translate(-4915 -288)"><mask id="x"><use xlink:href="#b" transform="translate(4921.79 296.122)" fill="#DADADA"/></mask><g mask="url(#x)"><use xlink:href="#y" transform="matrix(-.99979 0 0 .99979 4947 309.876)" fill="#F9F6EF"/></g></g><use xlink:href="#z" transform="matrix(-.99975 .01255 .01208 .99976 31.6 23.541)" fill="#F55361"/><use xlink:href="#A" transform="matrix(.20292 .14187 .13822 -.20541 28.95 23.415)" fill="#F55361"/><use xlink:href="#B" transform="matrix(-1 0 0 1 13.47 14.174)" fill="#54B8AC"/><use xlink:href="#C" transform="matrix(-.75645 -.28608 -.19485 .92185 13.46 20.292)" fill="#FFF3CB"/><use xlink:href="#D" transform="matrix(-.99979 0 0 .99979 13.43 13.876)" fill="#FFF3CB"/><use xlink:href="#E" transform="matrix(-1 0 0 1 13.4 17.811)" fill="#54B8AC"/><use xlink:href="#F" transform="matrix(-.97628 .12099 .1187 .97656 11.08 20.514)" fill="#FFF3CB"/><use xlink:href="#G" transform="matrix(-.97628 .12099 .1187 .97656 12.08 16.604)" fill="#FFF3CB"/><use xlink:href="#H" transform="matrix(.08529 -.2133 -.1346 -.05593 38.4 16.865)" fill="#D93D4B"/><g transform="matrix(-1 0 0 1 58 8.684)" fill="#B78C77"><use xlink:href="#I"/><use xlink:href="#J"/><use xlink:href="#K"/><use xlink:href="#L"/><use xlink:href="#M"/><use xlink:href="#N"/><use xlink:href="#O"/></g><use xlink:href="#P" transform="matrix(-1 0 0 1 41.69 11.709)" fill="#8C5642"/><use xlink:href="#Q" transform="matrix(-.88142 0 0 .88142 50.03 12.249)" fill="#A06C5C"/><use xlink:href="#R" transform="matrix(-.88142 0 0 .88142 48.3 9.145)" fill="#AA7C6A"/><use xlink:href="#S" transform="matrix(-.88142 0 0 .88142 44.33 10.202)" fill="#98634F"/><use xlink:href="#T" transform="matrix(-1 0 0 1 51.9 24.542)" fill="#AD7F68"/><use xlink:href="#U" transform="matrix(-1 0 0 1 41.45 26.304)" fill="#AA7C6A"/><use xlink:href="#V" transform="matrix(-1 0 0 1 35.08 5.95)" fill="#AA7C6A"/><defs><path id="a" fill-rule="evenodd" d="M16.177 0C7.257 0 0 7.283 0 16.235c0 8.952 7.257 16.236 16.177 16.236s16.178-7.284 16.178-16.236C32.355 7.283 25.098 0 16.178 0z"/><path id="b" fill-rule="evenodd" d="M15.012 30.131C6.721 30.131 0 23.386 0 15.066S6.72 0 15.012 0c8.291 0 15.012 6.746 15.012 15.066S23.304 30.13 15.012 30.13z"/><path id="c" d="M10.276.292l-.092.28c-.46 1.03-1.516 2.292-3.079 3.789C5.543 5.81 3.292 7.307.351 8.757v.374c-.551 1.87-.46 2.9.322 3.087.78.233 2.16-.515 4.18-2.245C6.877 8.243 8.484 6.419 9.68 4.5c1.194-1.917 1.792-3.18 1.792-3.835l-.046-.374c-.092-.234-.276-.327-.506-.28-.322-.047-.505.093-.643.28z"/><path id="d" d="M9.582 0H5.54C4.529.608 3.564 1.496 2.6 2.619.668 4.864-.16 7.202.024 9.634L5.309 7.95l.322 1.918c.413 1.496 1.148 2.712 2.251 3.74l1.287-1.59c.873-1.355 1.286-2.712 1.286-4.115l4.963 2.713c.138-1.123.046-2.432-.368-3.882C14.223 3.882 12.431 1.59 9.582 0z"/><path id="e" d="M4.796.52s-.06 0 0 0C3.537-.14 2.158-.14.6.34.42.7.24 1.06.12 1.36c-.06.179-.12.359-.12.479 1.619-.78 3.058-.84 4.257-.24h.06c.54.24.899.6 1.139 1.02.18.359.3.718.36 1.078.06.48.06 1.02.06 1.499a8.13 8.13 0 0 1-.36 1.739c-.24.66-.48 1.319-.78 1.918-.42.78-.959 1.739-1.678 2.758.06.24.18.48.24.72.06.299.12.539.18.839 1.018-1.44 1.798-2.698 2.337-3.717v-.06c.36-.66.6-1.38.84-2.039v-.06c.18-.66.3-1.319.36-1.978.06-.6.06-1.2-.06-1.799l-.06-.06a3.77 3.77 0 0 0-.48-1.378c-.3-.72-.9-1.2-1.619-1.56z"/><path id="f" d="M10.47 11.636c0-.232-.046-.51-.092-.742a15.073 15.073 0 0 1-.14-.649 2.616 2.616 0 0 0-.185-.556c-.139-.603-.37-1.205-.649-1.808-.232-.556-.417-1.066-.649-1.483-.51-1.252-.88-2.133-1.02-2.643-.185-.463-.185-1.02-.046-1.576.046-.14.093-.232.093-.371.092-.232.185-.51.37-.788l.14-.278C8.292.232 8.06 0 7.55 0H1.43C.92 0 .69.232.69.742c1.669.741 2.318 1.761 2.04 3.06-.186.51-.51 1.39-1.067 2.642-.185.417-.37.927-.602 1.483C.503 9.318.132 10.57.04 11.682c-.14 1.252.092 2.55.602 3.802.51 1.159 1.02 2.41 2.365 2.967 1.854.742 4.728-.278 4.728-.278.881-.65 1.577-1.53 2.087-2.735a6.846 6.846 0 0 0 .649-3.802z"/><path id="g" d="M11.249 0L5.05 1.966 0 50.45l6.703-4.446c.919-.609 1.47-1.451 1.745-2.528.23-1.076.046-2.106-.505-3.042l-2.847-4.492 15.887-9.969c.78-.468 1.285-1.17 1.515-2.106.23-.89.137-1.778-.276-2.574L11.25 0z"/><path id="h" d="M63.969 14.403c.413-2.854-.046-5.148-1.47-6.88-.459-.56-.964-.982-1.56-1.403l-.735-.375C55.75 4.201 50.7 2.844 44.96 1.721 33.528-.526 24.666-.573 18.284 1.58c-2.479.842-3.902 2.34-4.361 4.445-.138.655-.23 1.779-.322 3.323-.092 1.685-.183 3.042-.367 3.978-.184 1.123-1.148 4.867-2.939 11.232-2.203 7.91-3.902 14.415-5.142 19.422C.608 62.748-.907 76.273.516 84.651c1.056 6.177 2.938 11.091 5.601 14.648 2.25 2.948 5.694 5.803 10.423 8.471 4.316 1.872 9.228 3.135 14.692 3.744 8.632.983 15.152-.468 19.605-4.353 3.26-2.808 5.418-7.207 6.52-13.104.322-1.872.551-3.744.643-5.71l.046-2.34a44.868 44.868 0 0 1-.138-3.743c-.046-15.023.184-24.804.597-29.344.321-4.072 2.158-16.942 5.464-38.517z"/><path id="i" d="M12.343.024c-1.561-.094-2.8.093-3.627.468-1.837.983-3.352 4.4-4.5 10.343-.138.982-.321 1.731-.505 2.246-.23.562-.367 1.217-.505 1.966C1.645 25.155.819 30.912.635 32.316c-.689 6.037-.827 11.372-.367 15.959l.55 2.62a26.209 26.209 0 0 0 2.526 5.944c3.535 5.897 8.953 9.22 16.3 10.062 7.345.843 13.039.14 17.125-2.059 2.066-1.076 3.352-2.246 3.903-3.51-4.821-7.816-6.887-17.878-6.199-30.28.23-3.884.69-7.722 1.47-11.606l1.056-4.633c-.046-.796.046-2.2.23-4.212.183-1.826.183-3.183.045-4.119-.459-2.901-2.846-4.493-7.208-4.82a345.413 345.413 0 0 1-7.209-.609c-2.571-.28-4.362-.42-5.326-.514-2.48-.281-4.224-.422-5.188-.515z"/><path id="j" d="M2.554 0L1.406 4.774C.626 8.61.166 12.168.03 15.397c-.367 10.437 2.755 16.006 9.32 16.708 5.005.562 9.275-3.042 12.856-10.81 1.102-2.435 2.067-5.149 2.893-8.144l.918-3.744L2.554 0z"/><path id="k" d="M1.653 0L.826 4.072A60.722 60.722 0 0 0 0 13.198c0 8.939 2.617 13.852 7.897 14.648 4.132.655 7.622-2.387 10.377-9.032.872-2.106 1.607-4.4 2.25-6.973l.688-3.23L1.652 0z"/><path id="l" d="M19.192 4.025L22.59 0 0 2.2l.092 1.544 2.984 3.697c.46.562 1.056.89 1.745.936.735.047 1.331-.187 1.882-.702l2.893-2.808 3.49 2.855c.596.468 1.285.702 2.066.562.78-.094 1.377-.468 1.836-1.124l2.204-3.135z"/><path id="m" d="M34.084.725C29.31-.071 25.361-.211 22.148.303c-3.352.562-6.244 1.92-8.632 4.025-2.341 2.153-4.454 5.242-6.336 9.36C4.195 20.381 1.853 29.226.2 40.13c-.505 3.323-.046 6.412 1.286 9.22 1.331 2.761 3.122 4.54 5.463 5.242 5.832 1.825 11.295 3.135 16.3 3.93 8.402 1.405 15.381 1.732 20.845.984 8.907-1.217 16.161-5.148 21.763-11.7l15.61-34.118C67.052 9.57 56.675 6.528 50.293 4.703 43.635 2.737 38.217 1.427 34.084.725z"/><path id="n" d="M20.109 5.415c-1.516-2.62-3.72-4.305-6.612-5.054-2.893-.749-5.601-.328-8.173 1.217C2.754 3.122 1.1 5.368.366 8.317c-.735 2.948-.368 5.71 1.147 8.33 1.516 2.621 3.72 4.306 6.612 5.055 2.893.749 5.602.374 8.173-1.17 2.57-1.545 4.224-3.791 4.958-6.74.781-2.948.368-5.756-1.147-8.377z"/><path id="o" d="M5.324 1.563C2.754 3.108 1.1 5.354.366 8.303c-.735 2.948-.368 5.71 1.147 8.33 1.516 2.621 3.72 4.306 6.612 5.101 2.893.796 5.602.375 8.173-1.216 2.57-1.545 4.224-3.791 4.958-6.74.735-2.948.368-5.71-1.147-8.33-1.516-2.62-3.72-4.306-6.612-5.055C10.65-.402 7.896.02 5.324 1.563z"/><path id="p" d="M8.836.986C7.824.285 6.629-.042 5.25.004a9.59 9.59 0 0 0-3.586.842c-.46.233-.874.514-1.196.888-.368.42-.505.841-.46 1.215.047.42.23.841.69 1.215.414.374.828.561 1.287.561h2.621c1.38 0 2.299.094 2.713.28.551.234 1.15.328 1.747.234.69-.093 1.15-.42 1.379-.935.23-.514.23-1.075-.092-1.635-.276-.608-.781-1.122-1.517-1.683z"/><path id="q" d="M6.67.967C5.43.219 4.235-.11 3.04.032 2.165.125 1.43.312.877.639c-.551.374-.827.842-.873 1.403-.046.56.23 1.028.781 1.495.506.421 1.012.655 1.61.702.46.046 1.287.42 2.528 1.121.046 0 .781.468 2.207 1.356.367.234.827.28 1.379.14.551-.093.92-.327 1.195-.7.23-.328.276-.749.184-1.31a3.833 3.833 0 0 0-.552-1.355A9.829 9.829 0 0 0 6.671.967z"/><path id="r" d="M45.195 12.776c-2.25-.608-4.5-.702-6.75-.374a16.097 16.097 0 0 0-6.106 2.247c-1.01-2.387-2.48-4.447-4.408-6.131a15.996 15.996 0 0 0-6.841-3.65 15.741 15.741 0 0 0-7.806-.141L6.857 0l-.873 8.377-.321.281L.842 7.067l1.148 6.365C1.393 14.648.888 15.865.566 17.176c-1.147 4.586-.55 8.939 1.791 13.01 2.388 4.072 5.831 6.693 10.33 7.862 2.205.609 4.454.703 6.75.375a16.099 16.099 0 0 0 6.107-2.247c1.01 2.387 2.479 4.447 4.407 6.131 1.975 1.732 4.27 2.949 6.841 3.65 4.5 1.17 8.77.562 12.764-1.825 3.995-2.386 6.566-5.896 7.714-10.483l.275-1.263 4.73-3.276-4.684-2.48v-.141l5.418-6.74-9.228-1.59c-2.296-2.668-5.143-4.493-8.586-5.383zm-1.47 5.897c2.893.75 5.097 2.434 6.612 5.102 1.515 2.62 1.928 5.428 1.148 8.377-.735 2.948-2.434 5.194-5.005 6.739-2.57 1.544-5.28 1.919-8.218 1.17-2.939-.749-5.097-2.434-6.612-5.054-1.515-2.621-1.928-5.43-1.148-8.378.78-2.948 2.388-5.195 5.005-6.739 2.571-1.544 5.326-1.966 8.218-1.217zm-37.282.047c.735-2.948 2.388-5.195 4.96-6.74 2.57-1.544 5.325-1.965 8.218-1.17 2.892.75 5.096 2.481 6.611 5.102 1.515 2.62 1.929 5.382 1.148 8.33-.735 2.949-2.387 5.195-5.005 6.74-2.57 1.544-5.326 1.965-8.218 1.17-2.893-.75-5.097-2.48-6.612-5.102-1.469-2.62-1.836-5.381-1.102-8.33z"/><path id="s" d="M.046 1.357c.138.562.46.936.918 1.17.46.281.964.375 1.47.234.32-.093.55-.234.734-.421a.429.429 0 0 0 .138-.328c0-.14-.046-.234-.092-.374a.413.413 0 0 0-.321-.14c-.138 0-.23.046-.368.093a.884.884 0 0 1-.413.234v-.047c-.23.094-.505.047-.735-.093v-.047c-.23-.14-.413-.328-.459-.608v.046a.98.98 0 0 1 0-.514C.964.422.918.328.872.187.781.094.69 0 .597 0 .459 0 .367 0 .23.094a1.236 1.236 0 0 0-.23.28c0 .375 0 .702.046.983z"/><path id="t" d="M2.422 2.761c.046 0 .046 0 0 0 .321-.093.55-.234.735-.421a.758.758 0 0 0 .183-.328c0-.14-.046-.234-.092-.374a.413.413 0 0 0-.321-.14c-.138 0-.23.046-.367.093a.884.884 0 0 1-.414.234l.046-.047c-.23.094-.505.047-.734-.093v-.047a1.1 1.1 0 0 1-.505-.608v.046a.98.98 0 0 1 0-.514C.999.422.953.328.907.187.815.094.723 0 .585 0c-.137 0-.23 0-.367.094C.126.187.034.28.034.374a2.946 2.946 0 0 0 0 .89c.138.514.46.889.919 1.17H.907c.55.42 1.056.468 1.515.327z"/><path id="u" d="M9.456 5.872C8.583 4.655 7.619 3.766 6.47 3.205c-1.148-.562-2.25-.702-3.307-.422C1.741 3.158.822 4.187.317 5.872c-.505 1.684-.413 3.462.322 5.427.734 1.966 1.837 3.51 3.306 4.586l17.221-7.206c.092-2.246-.413-4.211-1.47-5.896-1.102-1.684-2.48-2.62-4.133-2.76-1.423-.14-2.709.374-3.857 1.45-1.148 1.17-1.883 2.62-2.25 4.399z"/><path id="v" d="M4.186 2.198A3.736 3.736 0 0 0 2.716.419C2.12 0 1.524-.095 1.019.092.512.326.19.794.053 1.496s0 1.45.322 2.246c.321.795.826 1.403 1.47 1.825.596.42 1.193.514 1.744.28.551-.234.873-.702 1.01-1.403a4.523 4.523 0 0 0-.413-2.246z"/><path id="w" d="M4.478 3.387C4.432 2.357 4.156 1.515 3.65.86 3.146.205 2.595-.076 1.952.018 1.355.11.85.532.482 1.28A4.872 4.872 0 0 0 .024 3.9c.092.983.368 1.825.827 2.48.46.655 1.01.936 1.653.89.597-.048 1.102-.469 1.516-1.264a4.872 4.872 0 0 0 .459-2.62z"/><path id="y" d="M4.92 0a62.116 62.116 0 0 1-1.458 7.378C2.004 9.532.866 11.502 0 13.289c.547 1.696 1.549 2.292 3.098 1.88.82 1.42 2.004 1.878 3.507 1.328.046-.909.137-.954.183-.954 1.138 1.191 2.277 2.054 3.416.954.365.413.775-.221 1.23-.13.456.092.866.863 1.184.543.365-.275.547-.505.547-.642 1.412.87 2.688.596 3.872-.87 1.458.183 2.46.266 3.143-1.43 1.777-.32 2.734-2.237 2.825-4.024-.41-.825-1.777-2.245-4.009-4.307.091-.78-.268-1.327-.268-1.968C11.394 4.402 7.061 3.07 4.92 0z"/><path id="z" d="M0 .72l.138.375c.321.608 1.469 1.45 3.535 2.574C5.74 4.745 8.127 5.494 10.79 5.962c1.285.234 2.296.328 2.984.28 1.194-.093 1.837-.701 1.929-1.918.046-1.217-.505-1.825-1.7-1.919-3.26.234-5.968.094-8.08-.374C3.765 1.563 2.203 1 1.286.252l-.23-.187C.872-.028.643-.028.367.112.092.252 0 .44 0 .72z"/><path id="A" d="M9.635 0H5.569C4.553.605 3.583 1.489 2.612 2.605.672 4.838-.16 7.164.025 9.583l5.313-1.675.323 1.907c.416 1.489 1.155 2.698 2.264 3.722l1.294-1.582c.878-1.349 1.293-2.698 1.293-4.093l4.99 2.698c.138-1.117.046-2.42-.37-3.861C14.347 3.815 12.5 1.582 9.635 0z"/><path id="B" d="M7.742 5.276c.136-.823.204-1.714.204-2.674 0-1.098-.136-1.92-.543-2.332h-.068c-.68-.411-1.358-.343-2.106.137a7.58 7.58 0 0 0-1.901 1.989 13.222 13.222 0 0 0-1.223 2.126c-.543 1.097-.883 2.263-1.222 3.36C.61 8.91.407 9.802.34 10.488l-.068.068c-.068.549-.136.96-.136 1.303 0 .137-.068.206-.068.343 0 .069 0 .137.068.137 0 .069 0 .069-.068 0 0 0 0-.069-.068-.069l.068.07.204.273s0 .069.068.069c.407.411.882.891 1.494 1.303.679.48 1.494.823 2.377 1.234h.068c1.018.274 1.698.069 1.97-.823.27-.823 0-1.714-.748-2.606l-.407-.41C5.977 9.938 6.52 8.841 6.79 8.155c.408-1.029.748-1.989.951-2.88zm-2.92 6.377c-.068.069-.068.069-.068.137.068-.068.068-.137.068-.137z"/><path id="C" d="M4.624 4.181c-.068-.068-.204-.068-.272-.068C2.924 4.455 1.496 5.14.068 6.1h.136a31.81 31.81 0 0 1 4.352-1.302l.136-.137c.068-.068.068-.206.068-.274 0-.069-.068-.137-.136-.206zM4.42 1.097a21.946 21.946 0 0 0-2.924 2.81C.476 5.072 0 5.621 0 5.69c0 .069.068.137.068.137 2.516-2.33 4.556-4.044 6.12-5.21.068-.068.136-.136.136-.205 0-.137 0-.205-.068-.274C6.188.07 6.12 0 6.052 0c-.136 0-.68.343-1.632 1.097z"/><path id="D" d="M.272 10.556c0 .069 0 .069 0 0a15.561 15.561 0 0 1-.204 1.372v.48c0 .068 0 .068 0 0 0 0 0-.069-.068-.069l.068.069.204.274.068.069v-.069c.407.48.882.891 1.494 1.371.679.48 1.494.823 2.377 1.235 1.018.274 1.698 0 2.037-.823.272-.823 0-1.714-.747-2.606a2.962 2.962 0 0 0-.475-.411c.883-1.44 1.426-2.538 1.766-3.223.407-1.097.747-2.058.882-2.88.136-.823.204-1.715.204-2.675 0-1.097-.204-1.92-.611-2.331L7.199.27c-.68-.411-1.358-.343-2.105.137V.34a7.58 7.58 0 0 0-1.902 1.988A13.222 13.222 0 0 0 1.97 4.453a16.735 16.735 0 0 0-1.223 3.36C.543 8.98.34 9.87.272 10.556zm.34.343c0-.137.067-.206.067-.343.408-1.646.883-3.291 1.494-4.8.34-.823.815-1.577 1.29-2.331.476-.755 1.087-1.303 1.699-1.783.543-.343 1.018-.412 1.494-.138.271.343.407.96.407 1.783-.068.892-.136 1.715-.204 2.469v-.069c-.135.755-.407 1.646-.815 2.675l-.203.617c-.272.686-.612 1.234-1.019 1.783 0 0-.068.137-.272.48v.48l.136.137c.068-.069.068-.137.068-.137v.069c0 .068-.068.068-.068.137.136.137.272.342.408.617.271.48.407.96.271 1.508-.068.275-.203.48-.475.549-.204.069-.408.069-.68.069v-.069a5.424 5.424 0 0 1-2.173-.891A18.471 18.471 0 0 1 .34 12.408c0-.069 0-.206.067-.343 0-.069 0-.206.068-.274.068-.55.136-.823.136-.892z"/><path id="E" d="M.068 8.767c0-.069 0-.069 0 0zM10.323.057c-1.019 0-1.97.344-2.988.824-.747.343-1.494.823-2.173 1.371-1.02.755-1.902 1.646-2.65 2.537-.746.892-1.29 1.646-1.63 2.263a8.805 8.805 0 0 0-.814 1.509c0 .069-.068.137-.068.137v.069l.136.411c.271.754.815 1.646 1.494 2.606.815 1.028 1.698 1.989 2.784 2.88v.069h.068c1.29.96 2.377 1.097 3.124.342.748-.754.815-1.92.136-3.36a3.96 3.96 0 0 0-1.222-1.577c1.019-.48 1.901-1.097 2.716-1.783a20.416 20.416 0 0 0 2.106-2.263c.475-.754.883-1.577 1.29-2.468.408-1.029.476-1.92.136-2.469l-.068-.069C12.225.195 11.41-.148 10.323.058z"/><path id="F" d="M4.415 1.097a21.936 21.936 0 0 0-2.92 2.811C.474 5.074 0 5.622 0 5.691c0 .068.068.137.068.137C2.58 3.497 4.618 1.783 6.18.618c.068-.07.136-.138.136-.207 0-.137 0-.205-.068-.274C6.181.07 6.113 0 6.045 0c-.203.069-.679.411-1.63 1.097zm.136 3.085c-.068-.068-.204-.068-.272-.068C2.853 4.457 1.426 5.142 0 6.102h.136A31.744 31.744 0 0 1 4.483 4.8l.136-.137c.068-.068.068-.205.068-.274 0-.068-.068-.137-.136-.206z"/><path id="G" d="M2.106 5.74C1.494 6.768 1.019 7.59.679 8.277.408 8.962.136 9.51.068 9.922v.137c0 .069 0 .069-.068 0v-.068.068l.204.412c.407.754 1.087 1.577 1.97 2.468s1.901 1.714 3.056 2.537h.068v.068c1.427.823 2.513.823 3.193-.068.679-.892.61-1.989-.34-3.428-.34-.549-.815-1.029-1.359-1.44a12.934 12.934 0 0 0 2.514-2.126 13.027 13.027 0 0 0 1.834-2.537c.407-.754.747-1.645 1.018-2.674.34-1.097.272-1.92-.135-2.468V.735c-.68-.686-1.563-.892-2.65-.617h.069a7.544 7.544 0 0 0-2.853 1.234c-.747.48-1.359 1.097-2.038 1.645C3.464 3.82 2.717 4.78 2.106 5.74zm2.31-1.509c.678-.685 1.358-1.37 2.173-1.92a7.404 7.404 0 0 1 2.513-1.096c.747-.206 1.358-.069 1.902.41.271.412.271 1.098.068 1.92-.272.892-.544 1.715-.951 2.469v-.069a14.285 14.285 0 0 1-1.698 2.332c-.136.137-.272.342-.408.48-.543.548-1.087 1.028-1.698 1.44 0 0-.136.068-.34.205.204.206.272.343.34.274.408.412.747.96 1.019 1.714v.069c.272.686.272 1.371-.136 1.988-.204.275-.475.412-.747.412s-.611-.069-1.019-.274c-1.019-.48-1.97-1.235-2.853-2.126-.815-.823-1.494-1.646-2.106-2.4.136-.411.34-.822.612-1.302C2.106 7.042 3.192 5.534 4.415 4.23z"/><path id="H" d="M9.734.449c-1.447-.599-2.8-.599-4.108 0C4.6 1.047 3.62 1.922 2.64 3.027.68 5.237-.16 7.54.025 9.98l5.368-1.657.327 1.888a7.637 7.637 0 0 0 2.287 3.683l1.307-1.566c.886-1.335 1.307-2.67 1.307-4.051l5.04 2.67c.14-1.105.047-2.394-.373-3.821-.793-2.9-2.66-5.11-5.554-6.676z"/><path id="I" d="M2.326 24.104c.164 0 .295.053.426.159.132.08.165.212.165.372 0 .159-.033.265-.165.371a.644.644 0 0 1-.426.16.73.73 0 0 1-.46-.16c-.131-.106-.197-.212-.197-.371 0-.16.066-.266.197-.372a.73.73 0 0 1 .46-.16z"/><path id="J" d="M5.74 23.944c.065.053.098.133.098.24 0 .105-.033.185-.099.238-.065.08-.164.106-.295.106a.478.478 0 0 1-.328-.106.376.376 0 0 1-.099-.239c0-.08.033-.159.099-.239a.478.478 0 0 1 .328-.106.45.45 0 0 1 .295.106z"/><path id="K" d="M8.628 25.219c-.197.026-.328.053-.394.053-.197 0-.394-.08-.656-.24-.23-.185-.329-.344-.329-.53 0-.292.132-.425.427-.425.099 0 .23.16.361.478.131.345.328.558.591.664z"/><path id="L" d="M6.462 21.687c0-.133.032-.239.13-.318.132-.08.263-.133.362-.133.164 0 .295.053.394.133.098.106.164.186.164.318a.404.404 0 0 1-.164.319c-.099.08-.23.106-.394.106a.567.567 0 0 1-.361-.106.449.449 0 0 1-.131-.319z"/><path id="M" d="M12.271 5.575c0-.107.033-.16.066-.213 0-.026.033-.026.066-.053.098-.106.164-.186.197-.212.033 0 .033-.027.065-.053.099.186.165.318.165.398v.053c0 .186-.099.292-.296.292-.164 0-.263-.08-.263-.212z"/><path id="N" d="M17.852.319c-.197.053-.394.159-.624.265-.164.08-.296.133-.46.106-.032 0-.098-.026-.13-.026-.1 0-.165-.053-.165-.107 0-.106.066-.212.164-.292A.756.756 0 0 1 16.9.133c.23-.08.492-.133.788-.133.098 0 .23.027.36.053h.099c.23.053.427.106.558.133-.197 0-.427.026-.656.08-.066.026-.132.053-.197.053z"/><path id="O" d="M13.158 5.15c-.23-.133-.329-.372-.23-.743a3.94 3.94 0 0 1 .295-.77c.23-.292.46-.584.755-.823.23-.212.526-.425.821-.637.361-.24.69-.478 1.018-.664l.098-.053c.197-.106.394-.212.59-.292.395-.16.821-.292 1.281-.398 0 0 .033-.027.098-.027.099-.026.23-.026.394-.026l.473-.133-.93.876c-.098.08-.495.455-.593.534-.033.027-.131.145-.164.172-.066.08-.23.192-.296.272-.098.08-.164.084-.262.19a2.592 2.592 0 0 0-.296.398c-.328.452-.59 1.062-.82 1.805-.033.027-.033.053-.033.107-.033.053-.033.132-.066.185 0 .053.066.108-.033.133 0 .106.033.08.033.186v.554c-.033.212-.131.747-.131 1.039.033.53 0 .955-.066 1.22a28.6 28.6 0 0 1-.59 1.726 3.462 3.462 0 0 0-.165.61 2.673 2.673 0 0 0-.098.77c-.033.32-.033.558-.033.77 0 .186.033.425.131.638 0 .026.033.026.033.053.099.239.132.478.132.663 0 .24-.033.399-.099.531a.52.52 0 0 1-.295.213c-.099.026-.197 0-.23-.053-.066-.054-.099-.107-.099-.133-.032-.027-.032-.053-.032-.08v.053c.032.106.098.345.262.69.132.346.197.585.197.717 0 .133 0 .24-.033.345a.419.419 0 0 1-.36.186c.065.133.098.292.13.451.066.266.099.584.132.903.033.053.033.133.033.186 0 .133.033.239.033.371v.16c0 .504-.033 1.008-.132 1.513-.098.557-.197 1.035-.262 1.407-.099.371-.165.929-.197 1.672 0 .186-.033.425-.033.69 0 .425.098.744.262.93.164.159.394.238.69.238.164 0 .394-.186.722-.584.262-.371.59-.584.952-.584.197 0 .36.08.427.186a.426.426 0 0 1 .065.213c0 .08-.033.132-.066.185-.065.107-.23.213-.46.319-.36.133-.524.265-.491.398 0 .133.13.16.394.08.13-.027.328-.053.525-.08h.558c.46 0 .656.133.656.398-.033.266-.164.372-.427.319a3.241 3.241 0 0 1-.787-.24h-.033c-.23-.079-.427-.079-.525.027l.722.346c.82.398 1.149.637 1.05.69l-.197.053c.099.239 1.083 1.77 2.476 1.99H0c.033 0 3.77-.397 3.868-.424.099-.026.361-.08.821-.186A8 8 0 0 0 6.1 27.13c.493-.212.952-.425 1.445-.637-.558-.053-.886-.106-1.05-.16-.329-.106-.493-.238-.493-.424 0-.106.066-.24.197-.372.131-.16.263-.239.427-.239.131 0 .262.053.46.16.098 0 .163.053.262.106.033 0 .033 0 .065.026.132.107.296.16.427.213h.066c.328 0 .624-.08.853-.24.23-.159.361-.344.394-.557a5.625 5.625 0 0 1-.131-1.22c0-.16 0-.293.033-.452 0-.106 0-.212.033-.319.098-.61.262-1.274.525-1.964.394-1.009.59-1.858.59-2.495 0-.292-.032-.664-.098-1.168 0-.054-.033-.133-.033-.186a17.12 17.12 0 0 1-.098-.637c-.066-.319-.132-.584-.164-.85v-.133a7.73 7.73 0 0 1-.099-1.061c0-.61.066-1.222.263-1.832.23-.823.656-1.593 1.214-2.336.558-.743.92-1.274 1.083-1.593.066-.133.132-.292.197-.425a4.18 4.18 0 0 0 .263-.663c.098-.345.164-.717.197-1.115.066-.505.131-.956.263-1.407h-.033z"/><path id="P" d="M0 .85c0 .132 0 .212.033.265.033.053.131.08.262.08h.033c.099-.027.132-.16.132-.399A1.48 1.48 0 0 0 .328.16C.328.133.295.106.295.08V0C.098.292 0 .584 0 .85z"/><path id="Q" d="M8.288 2.985a8.166 8.166 0 0 1-.607 1.793c-.59 1.147-.886 1.993-.886 2.485 0 .164.032.437.098.792.066.355.099.655.099.9 0 .602-.197 1.038-.591 1.312-.164.109-.263.19-.361.3-.164.164-.23.3-.23.437 0 .082.033.273.098.519.066.273.099.436.099.518 0 .164-.033.355-.131.546-.099.246-.263.383-.46.383a.558.558 0 0 1-.197-.082c-.098-.055-.131-.082-.164-.082-.23 0-.361.082-.427.218-.033.11-.065.3-.065.628 0 .6.197 1.31.558 2.157 0 .028.032.055.032.11.394.873.591 1.42.591 1.61 0 .41-.131.901-.394 1.502-.328.765-.722 1.147-1.181 1.147-.329 0-.493-.191-.46-.546.033-.273-.033-.464-.131-.519-.033-.027-.066-.027-.099-.027-.164 0-.295.082-.36.273a2.589 2.589 0 0 0-.066.628c0 .246.032.573.131 1.01.098.437.131.765.131 1.01 0 .464-.065.874-.197 1.229-.164.464-.426.71-.787.71a.867.867 0 0 1-.723-.355c-.164-.191-.23-.382-.262-.628-.033.191-.033.355-.033.519 0 .437.066.9.164 1.392-.033.273-.197.465-.427.628-.262.191-.59.273-.984.273H0c.197.082.361.11.492.11.23 0 .46-.055.69-.137.131-.055.262-.137.394-.246a.794.794 0 0 0 .13-.136c.067-.082.165-.219.263-.492.066-.273.132-.382.132-.382.033 0 .098.027.23.11.13.081.262.108.36.108.23 0 .46-.136.69-.436.197-.273.295-.547.328-.82.033-.245.197-.41.427-.491.295-.055.525-.137.656-.218.361-.219.591-.601.69-1.147 0-.191.032-.355.032-.492 0-.3.033-.6.099-.873v-.028a2.28 2.28 0 0 1 .59-1.037c.526-.601.854-1.447.986-2.54v-.218c0-.137-.033-.3-.033-.437v-.218a9.493 9.493 0 0 0-.164-1.065c-.033-.191-.099-.355-.132-.519.197-.027.329-.082.361-.218.033-.137.066-.273.066-.41 0-.164-.066-.437-.263-.846-.197-.328-.295-.601-.295-.738v-.082c0 .055 0 .082.033.137.033.027.065.082.131.164.066.054.131.082.263.054a.414.414 0 0 0 .295-.245 1.44 1.44 0 0 0 .131-.601c0-.218-.065-.491-.164-.765 0-.027-.033-.027-.033-.054a2.184 2.184 0 0 1-.13-.765c0-.245 0-.518.032-.873 0-.355.033-.656.098-.929.066-.273.132-.519.197-.737.329-.82.526-1.474.657-1.993.066-.328.098-.792.098-1.42 0-.328-.049-.592-.049-.865zm-.87-1.647C7.648.655 7.911.19 8.14 0c-.164.11-.393.437-.755.983-.295.437-.59.655-.853.655-.23 0-.427-.054-.525-.136-.099-.11-.197-.3-.296-.574v.028c-.098.41-.032.682.263.846-.131.519-.23 1.065-.295 1.666-.033.437-.132.873-.23 1.31a3.47 3.47 0 0 1 .394-.655c.131-.218.394-.546.722-.983.36-.546.624-1.12.853-1.802z"/><path id="R" d="M9.913 0c-.197 0-.328.027-.46.055-.065 0-.098.027-.13.027-.526.11-.986.246-1.445.464-.23.11-.46.219-.657.328l-.13.054c-.362.246-.756.492-1.15.765a5.682 5.682 0 0 0-.919.764c-.328.3-.59.628-.853.983-.197.246-.329.601-.427 1.01.098.274.197.465.295.574.099.082.296.137.526.137.262 0 .558-.219.853-.656.361-.546.624-.874.755-.983-.263.219-.492.656-.722 1.338-.23.683-.525 1.283-.854 1.748-.36.464-.59.791-.722.983a3.47 3.47 0 0 0-.394.655 3.882 3.882 0 0 1-.295.792c-.066.164-.131.327-.23.491-.197.382-.623 1.01-1.247 1.857C1.05 12.26.59 13.16.328 14.089.131 14.8 0 15.51 0 16.246c0 .3.033.71.131 1.229 0 .054 0 .109.033.164.099.245.197.41.263.491.131.164.328.246.59.246.23 0 .394-.164.526-.492.098-.218.131-.436.131-.628 0-.218-.066-.573-.197-1.12-.131-.545-.197-.982-.197-1.282 0-.246.033-.492.066-.738.033-.273.098-.546.197-.819.262-.764.656-1.147 1.181-1.147.132 0 .263.082.329.246.065.164.197.246.328.246.394 0 .656-.355.788-1.092.033-.246 0-.628-.099-1.147a2.91 2.91 0 0 1 0-1.502c.132-.491.328-.846.624-1.092.295-.246.558-.546.788-.901.23-.355.36-.655.426-.874.066-.218.296-.737.657-1.529.36-.819.69-1.392.985-1.802.098-.191.23-.328.36-.491a1.28 1.28 0 0 1 .362-.328l.197-.246a.393.393 0 0 1 .098-.109c.099-.11.23-.191.328-.3l1.51-1.202L9.913 0zM5.941 2.867c-.722 1.01-1.083 1.502-1.116 1.502-.131 0-.23-.028-.262-.055-.033-.055-.066-.164-.066-.355 0-.382.328-.874.952-1.502.656-.655 1.313-1.064 1.97-1.256-.46.383-.953.956-1.478 1.666z"/><path id="S" d="M.328 3.167c.033 0 .427-.491 1.116-1.501C1.97.956 2.462.382 2.921 0 2.265.191 1.608.6.951 1.256.329 1.884 0 2.376 0 2.758c0 .19.033.3.066.355.032.054.13.054.262.054z"/><path id="T" d="M.249 1.501c.186.13.373.261.622.261a.78.78 0 0 0 .622-.261c.187-.196.249-.392.249-.653 0-.26-.062-.456-.249-.587A.78.78 0 0 0 .871 0a.78.78 0 0 0-.622.261C.062.391 0 .587 0 .848c0 .261.062.457.249.653z"/><path id="U" d="M2.613 1.36c0-.378-.15-.68-.373-.907C1.94.151 1.642 0 1.27 0a1.06 1.06 0 0 0-.897.453C.075.68 0 .982 0 1.36s.15.68.373.906c.224.227.598.378.896.378.299 0 .672-.151.97-.378.225-.226.374-.528.374-.906z"/><path id="V" d="M.946.483A.448.448 0 0 0 .811.138.43.43 0 0 0 .473 0a.43.43 0 0 0-.338.138A.448.448 0 0 0 0 .483C0 .62.034.724.135.828a.43.43 0 0 0 .338.138.43.43 0 0 0 .338-.138.448.448 0 0 0 .135-.345z"/></defs></svg>