<svg width="22" height="23" viewBox="0 0 22 23" xmlns="http://www.w3.org/2000/svg" xmlns:xlink="http://www.w3.org/1999/xlink"><title>dinologo</title><desc>Created using Figma</desc><use xlink:href="#a" transform="translate(0 .875)" fill="#6FC4E2"/><use xlink:href="#b" transform="translate(.04 8.899)" fill="#0D1013"/><g transform="translate(-4626 -130)"><mask id="d"><use xlink:href="#c" transform="translate(4628.93 138.498)" fill="#FFF"/></mask><g mask="url(#d)"><use xlink:href="#e" transform="translate(4619.75 138.497)" fill="#FF5767"/></g></g><g transform="translate(-4626 -130)"><mask id="g"><use xlink:href="#f" transform="translate(4629.22 141.547)" fill="#FFF"/></mask><g mask="url(#g)"><use xlink:href="#h" transform="translate(4620.77 141.547)" fill="#FFC500"/></g></g><use xlink:href="#i" transform="translate(2.98 7.988)" fill="#FF5767"/><use xlink:href="#j" transform="translate(15.83 6.944)" fill="#FF5767"/><use xlink:href="#k" transform="translate(17.02 7.951)" fill="#0D1013"/><use xlink:href="#l" transform="translate(17.97 8.513)" fill="#FF5767"/><use xlink:href="#m" transform="translate(19.16 9.32)" fill="#0D1013"/><use xlink:href="#n" transform="translate(3.33 1.642)" fill="#0D1013"/><use xlink:href="#o" transform="translate(9.85 1.683)" fill="#0D1013"/><use xlink:href="#p" transform="translate(2.43 4.081)" fill="#6F568E"/><use xlink:href="#q" transform="translate(7.04 3.804)" fill="#6F568E"/><use xlink:href="#r" transform="translate(3.53 5.182)" fill="#FFF"/><use xlink:href="#s" transform="translate(4.57 6.229)" fill="#0D1013"/><use xlink:href="#t" transform="translate(8.14 4.908)" fill="#FFF"/><use xlink:href="#u" transform="translate(9.18 5.953)" fill="#0D1013"/><use xlink:href="#v" transform="translate(5.77 14.184)" fill="#FFF"/><use xlink:href="#w" transform="translate(6.26 15.695)" fill="#FFF"/><defs><path id="a" fill-rule="evenodd" d="M19.18 0H2.82A2.82 2.82 0 0 0 0 2.82v16.36A2.82 2.82 0 0 0 2.82 22h16.36A2.82 2.82 0 0 0 22 19.18V2.82A2.82 2.82 0 0 0 19.18 0z"/><path id="b" fill-rule="evenodd" d="M4.186 12.307l-2.392-1.601 1.594-2.001L.947 6.904l2.242-2.501L0 2.45 3.04 0l1.146 12.307z"/><path id="c" d="M0 0c.124.024 12.407 2.461 12.407 8.305 0 .723-.225 3.215-.508 6.04H1.207C.801 7.962.004.043 0 0z"/><path id="e" fill-rule="evenodd" d="M9.18 0s1.438 14.289 1.438 19.976c0 2.09-.157 4.063-1.011 4.802-.945.818-3.052 1.7-4.844 3.106-1.113.873-1.778 1.457-2.37 2.058-2.654 2.7-2.385 3.663-2.385 3.663S2.197 31.79 10.57 30.86l2.07-.4c1.273-.244 3.866-1.385 4.245-1.745 1.968-1.212 2.956-2.987 3.205-5.152.386-3.341 1.495-13.654 1.495-15.258C21.586 2.432 9.18 0 9.18 0z"/><path id="f" d="M8.11 0c2.217 1.293 4.004 3.026 4.004 5.255 0 .723-.225 3.215-.508 6.04H.914C.665 7.385.27 2.899 0 0h8.11z"/><path id="h" fill-rule="evenodd" d="M9.538 33.175L20.9 22.765l.548-17.309S22.344.17 16.564.003c-4.189-.12-5.241 3.207-3.089 3.852 0 0 .73 12.462.588 15.235-.107 2.116-.536 3.475-2.335 4.686C7.927 26.334 3.675 26.363 0 29.988"/><path id="i" fill-rule="evenodd" d="M10.839 10.268s1.333.061 2.69.003c1.475-.064 2.92-.353 2.972-.242 0 .001.457-2.631.128-6.406C16.301-.15 12.725-.184 7.181.11 5.06.223 0 .46 0 .46s.845 2.616 2.176 5.36c2.11 4.35 8.663 4.447 8.663 4.447z"/><path id="j" fill-rule="evenodd" d="M2.21.035c.835.205 1.25 1.265.927 2.367-.323 1.102-1.263 1.83-2.1 1.624C.203 3.821-.212 2.761.11 1.659.433.556 1.373-.171 2.21.035z"/><path id="k" fill-rule="evenodd" d="M1.007.037c.293.141.368.64.166 1.115-.2.475-.601.746-.894.605-.293-.141-.367-.64-.166-1.115.2-.475.601-.746.894-.605z"/><path id="l" fill-rule="evenodd" d="M2.89.188c.63.427.596 1.448-.078 2.279-.674.83-1.731 1.157-2.361.73-.63-.428-.595-1.448.078-2.279C1.203.088 2.26-.24 2.89.188z"/><path id="m" fill-rule="evenodd" d="M1.226.095c.225.191.163.609-.138.933-.301.324-.728.431-.953.24-.224-.191-.163-.61.138-.933.302-.324.728-.432.953-.24z"/><path id="n" fill-rule="evenodd" d="M1.675.017c.507-.066.894.061.988.385.094.324-.248.666-.549.771-.3.105-1.022.819-1.208.991-.186.172-.583.168-.769 0-.186-.168-.16-.523-.055-.77C.343.783.92.113 1.675.016z"/><path id="o" fill-rule="evenodd" d="M.954 0C.44-.011.066.157.006.49c-.06.336.318.643.63.718.311.074 1.106.715 1.31.87.203.153.6.107.768-.08.168-.189.106-.543-.026-.781C2.364.633 1.72.02.954.001z"/><path id="p" fill-rule="evenodd" d="M3.075 0A3.08 3.08 0 0 1 6.15 3.083a3.079 3.079 0 0 1-3.075 3.083A3.079 3.079 0 0 1 0 3.083 3.079 3.079 0 0 1 3.075 0z"/><path id="q" fill-rule="evenodd" d="M3.075 0A3.08 3.08 0 0 1 6.15 3.084a3.08 3.08 0 0 1-3.075 3.083A3.08 3.08 0 0 1 0 3.084 3.08 3.08 0 0 1 3.075 0z"/><path id="r" fill-rule="evenodd" d="M1.977 0a1.98 1.98 0 0 1 1.976 1.982 1.98 1.98 0 0 1-1.976 1.983A1.98 1.98 0 0 1 0 1.982 1.98 1.98 0 0 1 1.977 0z"/><path id="s" fill-rule="evenodd" d="M.934 0A.935.935 0 1 1 .93 1.87.935.935 0 0 1 .934 0z"/><path id="t" fill-rule="evenodd" d="M1.977 0a1.98 1.98 0 0 1 1.976 1.982 1.98 1.98 0 0 1-1.976 1.983A1.98 1.98 0 0 1 0 1.982 1.98 1.98 0 0 1 1.977 0z"/><path id="u" fill-rule="evenodd" d="M.934 0A.935.935 0 1 1 .93 1.87.935.935 0 0 1 .934 0z"/><path id="v" fill-rule="evenodd" d="M9.48 4.099c-1.27-.012-3.36-.252-5.25-.9C2.749 2.691.896 1.756.49.187a.249.249 0 1 0-.482.126C.831 3.502 6.625 4.566 9.44 4.597c.005-.026.048-.473.04-.498z"/><path id="w" fill-rule="evenodd" d="M.116 0L0 2.267l2.354-.608.804 2.076 2.137-1.097 1.246 1.836L8.272 2.96l-.628-.225-3.05-.54-2.414-.839L.116 0z"/></defs></svg>