<svg width="30" height="20" viewBox="0 0 30 20" xmlns="http://www.w3.org/2000/svg" xmlns:xlink="http://www.w3.org/1999/xlink"><title>eng_lang</title><desc>Created using Figma</desc><use xlink:href="#a" transform="translate(0 6.789)" fill="#0D1013"/><use xlink:href="#b" transform="translate(.14 1.684)" fill="#0D1013"/><use xlink:href="#c" transform="translate(.91 10.053)" fill="#0D1013"/><use xlink:href="#d" transform="translate(3.5 .875)" fill="#FF5767"/><use xlink:href="#e" transform="translate(21.39 11.649)" fill="#FF5767"/><use xlink:href="#f" transform="translate(9.68 3.636)" fill="#FFF"/><use xlink:href="#g" transform="translate(20.63 3.623)" fill="#FFF"/><defs><path id="a" fill-rule="evenodd" d="M0 2.18l4.485 2.721L7.315.79 3.147 0 0 2.18z"/><path id="b" fill-rule="evenodd" d="M0 3.006l3.915 2.636L7.14.96 5.32 0 0 3.006z"/><path id="c" fill-rule="evenodd" d="M6.122 6.034L0 3.47 3.61 0l3.728 2.292-1.216 3.742z"/><path id="d" fill-rule="evenodd" d="M2.805.012l21.424 1.944c1.398.118 2.408 1.192 2.26 2.384l-1.078 8.514c-.135 1.063-1.156 1.885-2.409 1.933l-18.963.74c-1.346.056-2.506-.796-2.647-1.94L.016 2.398c-.18-1.37 1.178-2.53 2.789-2.385z"/><path id="e" fill-rule="evenodd" d="M3.893 7.945L0 3.865 4.105 0l-.212 7.945z"/><path id="f" fill-rule="evenodd" d="M5.877 1.178A1.136 1.136 0 0 1 6.972.001a1.14 1.14 0 0 1 1.172.955l.802 8.015a1.136 1.136 0 0 1-1.095 1.177 1.14 1.14 0 0 1-1.172-.955l-.306-3.05-3.613.37.306 3.043a1.136 1.136 0 0 1-1.095 1.177A1.14 1.14 0 0 1 .8 9.778L0 1.756A1.136 1.136 0 0 1 1.096.578a1.14 1.14 0 0 1 1.172.956l.283 2.839 3.613-.37-.287-2.825z"/><path id="g" fill-rule="evenodd" d="M2.834 1.29a1.25 1.25 0 0 1-1.289 1.207 1.248 1.248 0 0 1-1.21-1.374A1.201 1.201 0 0 1 1.709.012a1.184 1.184 0 0 1 1.13 1.237l-.004.051v-.01zM.31 4.25a1.07 1.07 0 0 1 1.212-.898c.522.075.91.516.917 1.04l-.306 4.582c-.07.583-.6 1-1.188.932A1.065 1.065 0 0 1 0 8.834L.31 4.25z"/></defs></svg>