<svg width="30" height="13" viewBox="0 0 30 13" xmlns="http://www.w3.org/2000/svg" xmlns:xlink="http://www.w3.org/1999/xlink"><title>rus_lang</title><desc>Created using Figma</desc><use xlink:href="#a" transform="translate(22.53 .96)" fill="#6F578E"/><use xlink:href="#b" transform="translate(12.42 1.035)" fill="#FFC609"/><use xlink:href="#c" transform="translate(6.62 1.946)" fill="#231F1F"/><use xlink:href="#d" transform="translate(0 .875)" fill="#F05A69"/><use xlink:href="#e" transform="translate(28.74 3.407)" fill="#644F82"/><use xlink:href="#f" transform="translate(23.01 8.824)" fill="#644F82"/><use xlink:href="#g" transform="translate(24.02 10.616)" fill="#644F82"/><use xlink:href="#h" transform="translate(22.85 9.814)" fill="#644F82"/><use xlink:href="#i" transform="translate(22.92 10.794)" fill="#644F82"/><use xlink:href="#j" transform="translate(28.46 4.383)" fill="#644F82"/><use xlink:href="#k" transform="translate(23.68 3.039)" fill="#644F82"/><use xlink:href="#l" transform="translate(27.56 10.884)" fill="#644F82"/><use xlink:href="#m" transform="translate(28.76 9.23)" fill="#644F82"/><use xlink:href="#n" transform="translate(28.15 10.539)" fill="#644F82"/><use xlink:href="#o" transform="translate(22.91 1.445)" fill="#644F82"/><use xlink:href="#p" transform="translate(24.34 1.794)" fill="#644F82"/><use xlink:href="#q" transform="translate(22.81 3.039)" fill="#644F82"/><defs><path id="a" fill-rule="evenodd" d="M2.549 6.8v2.121c.287.072.582.105.878.098.993 0 1.49-.399 1.49-1.197 0-.678-.455-1.017-1.364-1.017H2.55V6.8zm0-4.313V4.55h.85c.793 0 1.188-.366 1.188-1.099a.887.887 0 0 0-.353-.759 1.43 1.43 0 0 0-.878-.265 7.58 7.58 0 0 0-.807.061zM3.383 0C4.654 0 5.6.258 6.219.774c.613.492.96 1.246.939 2.035a2.877 2.877 0 0 1-1.283 2.536 2.52 2.52 0 0 1 1.146.93c.318.493.474 1.075.45 1.663 0 1.147-.391 2.015-1.172 2.603-.78.588-1.808.883-3.085.884-.47 0-1.143-.01-2.019-.032A1.298 1.298 0 0 1 0 10.15V1.303A1.2 1.2 0 0 1 .354.44a1.2 1.2 0 0 1 .85-.39C1.875.015 2.602 0 3.384 0z"/><path id="b" fill-rule="evenodd" d="M2.56 6.628v2.244c.318.05.638.08.96.093.93 0 1.394-.388 1.394-1.165a1.321 1.321 0 0 0-.312-.904 1.214 1.214 0 0 0-.975-.356 6.51 6.51 0 0 0-1.066.095v-.007zm0-4.215v1.794a6.6 6.6 0 0 1 1.284-.098c.967-.043 1.912.3 2.631.954a3.336 3.336 0 0 1 1.003 2.536c0 1.178-.38 2.104-1.137 2.777-.758.673-1.83 1.008-3.217 1.003-.757 0-1.399-.016-1.924-.047a1.189 1.189 0 0 1-.856-.381A1.234 1.234 0 0 1 0 10.076V1.202A1.21 1.21 0 0 1 1.2 0h4.366c.663.03 1.176.596 1.146 1.265A1.207 1.207 0 0 1 5.566 2.42H2.56v-.008z"/><path id="c" fill-rule="evenodd" d="M0 0l2.156.347-1.23 1.912 1.979.41-1.115 1.71 1.77.222-.985 1.676L0 0z"/><path id="d" fill-rule="evenodd" d="M6.473 6.672l-1.24-3.21-1.276 3.196h2.51l.006.014zm1.615 4.124l-.67-1.72H3.012l-.678 1.72a1.195 1.195 0 0 1-1.22.819 1.064 1.064 0 0 1-.804-.34 1.114 1.114 0 0 1-.31-.793c-.006-.156.02-.31.078-.455L3.701 1.18C4.026.393 4.556 0 5.29 0c.707 0 1.226.393 1.558 1.18l3.61 8.714c.063.156.096.323.097.492a1.28 1.28 0 0 1-1.318 1.24 1.276 1.276 0 0 1-1.15-.83z"/><path id="e" fill-rule="evenodd" d="M.166 0a.18.18 0 1 1 .023.358A.178.178 0 0 1 0 .192V.177A.174.174 0 0 1 .166 0z"/><path id="f" fill-rule="evenodd" d="M.244 0a.268.268 0 1 1 .043.534A.266.266 0 0 1 0 .29V.269A.262.262 0 0 1 .243 0z"/><path id="g" fill-rule="evenodd" d="M.244 0a.268.268 0 1 1 .043.534A.266.266 0 0 1 0 .29V.269A.262.262 0 0 1 .243 0z"/><path id="h" fill-rule="evenodd" d="M.244 0a.268.268 0 1 1 .043.534A.266.266 0 0 1 0 .29V.269A.262.262 0 0 1 .243 0z"/><path id="i" fill-rule="evenodd" d="M.373 0c.247.07.43.278.468.533a.507.507 0 0 1-.468.534C.166 1.067 0 .55 0 .354A.365.365 0 0 1 .373 0z"/><path id="j" fill-rule="evenodd" d="M.352 0c.141 0 .214.18.165.4a.458.458 0 0 1-.336.401c-.142 0-.215-.18-.166-.4A.458.458 0 0 1 .352 0z"/><path id="k" fill-rule="evenodd" d="M.244 0a.268.268 0 1 1 .043.534A.266.266 0 0 1 .001.29V.269A.257.257 0 0 1 .243 0z"/><path id="l" fill-rule="evenodd" d="M.21 0a.222.222 0 0 1 .232.212.223.223 0 0 1-.21.235A.223.223 0 0 1 0 .246.218.218 0 0 1 .21.022V0z"/><path id="m" fill-rule="evenodd" d="M.467 0C.645.05.76.492.711.71a.528.528 0 0 1-.556.492C-.023 1.152-.023.536.033.317A.366.366 0 0 1 .45.01L.467 0z"/><path id="n" fill-rule="evenodd" d="M.245.008a.317.317 0 0 1 .141.618A.315.315 0 0 1 .001.32.294.294 0 0 1 .245.008z"/><path id="o" fill-rule="evenodd" d="M.466 1.067A.652.652 0 0 1 .001.533.507.507 0 0 1 .466 0c.205 0 .371.516.371.713a.365.365 0 0 1-.37.354z"/><path id="p" fill-rule="evenodd" d="M.332 0a.355.355 0 0 1 .374.335.356.356 0 0 1-.332.377A.355.355 0 0 1 0 .378V.357A.345.345 0 0 1 .332.001z"/><path id="q" fill-rule="evenodd" d="M.166 0a.18.18 0 1 1 .023.358A.178.178 0 0 1 0 .192V.177A.174.174 0 0 1 .166 0z"/></defs></svg>